<?xml version="1.0" standalone="no"?>

<!DOCTYPE svg PUBLIC "-//W3C//DTD SVG 20010904//EN"

 "http://www.w3.org/TR/2001/REC-SVG-20010904/DTD/svg10.dtd">

<svg version="1.0" xmlns="http://www.w3.org/2000/svg"

 width="113.385827" height="113.385827" viewBox="0 0 113.385827 113.385827"

 preserveAspectRatio="xMidYMid meet">

<metadata>

Created by potrace 1.12, written by Peter Selinger 2001-2015

</metadata>

<g transform="translate(50.000000,63.385773) scale(0.008858,-0.011925)"
fill="#000000" stroke="none">

<path d="M8000 9584 c0 -9 5 -14 12 -12 18 6 21 28 4 28 -9 0 -16 -7 -16 -16z"/>

<path d="M8220 9590 c0 -5 7 -10 15 -10 8 0 15 5 15 10 0 6 -7 10 -15 10 -8 0

-15 -4 -15 -10z"/>

<path d="M8330 9576 c0 -13 9 -34 20 -47 17 -21 21 -22 30 -9 22 34 7 80 -26

80 -19 0 -24 -5 -24 -24z"/>

<path d="M8582 9583 c3 -17 23 -24 73 -25 37 -1 57 -16 50 -37 -6 -20 2 -32

38 -54 l28 -18 -7 37 c-16 88 -45 114 -124 114 -52 0 -61 -3 -58 -17z"/>

<path d="M3617 9573 c-4 -3 -7 -14 -7 -23 0 -9 -20 -37 -45 -61 -25 -24 -45

-48 -45 -54 0 -5 -18 -37 -40 -70 -25 -37 -40 -71 -40 -90 0 -29 -17 -63 -47

-94 -10 -9 -11 -17 -3 -25 7 -9 -1 -22 -30 -46 -41 -35 -70 -92 -70 -139 0

-16 -5 -31 -10 -33 -12 -4 -34 -193 -26 -215 6 -15 0 -33 -54 -148 -52 -110

-70 -169 -74 -230 -1 -28 -6 -57 -11 -64 -9 -15 12 -32 34 -28 8 1 23 26 34

55 14 37 25 52 38 52 19 0 25 -27 21 -92 -1 -16 2 -28 8 -28 5 0 10 -11 10

-25 0 -15 -6 -25 -15 -25 -17 0 -30 -41 -22 -70 3 -13 0 -20 -9 -20 -17 0 -19

-51 -3 -67 6 -6 11 -41 11 -77 0 -57 2 -66 18 -66 24 0 44 51 36 93 -5 25 -2

38 9 47 21 17 19 24 -10 40 -31 16 -31 20 -1 111 13 41 20 76 15 77 -5 2 -9

26 -9 53 0 43 -3 51 -25 59 -17 6 -23 14 -19 25 5 12 9 13 21 3 11 -9 16 -9

24 3 11 18 11 36 0 43 -5 4 -1 23 9 44 22 47 42 148 45 232 2 36 4 67 4 70 1

3 4 34 5 70 4 86 42 161 59 116 3 -7 1 -18 -5 -24 -8 -8 -7 -13 6 -18 10 -4

21 -3 26 2 18 18 60 145 60 180 0 19 7 57 16 85 15 44 19 48 40 43 31 -8 33

20 4 36 -27 14 -15 32 16 24 20 -5 24 -2 24 15 0 13 -6 21 -17 21 -12 1 -9 6

12 17 40 22 70 62 67 90 -2 14 3 25 12 29 18 7 40 69 32 90 -5 12 -9 12 -27 2

-17 -10 -23 -10 -26 0 -5 13 -16 16 -26 5z m-237 -513 c0 -22 -16 -35 -25 -20

-9 14 4 52 16 45 5 -4 9 -15 9 -25z"/>

<path d="M8368 9483 c-13 -14 -15 -22 -7 -30 7 -7 8 -13 0 -17 -5 -4 -8 -13

-4 -22 8 -22 35 33 31 64 -3 24 -3 24 -20 5z"/>

<path d="M8526 9468 c-3 -13 -1 -27 4 -32 6 -6 10 -18 10 -28 0 -19 15 -24 25

-8 3 6 1 10 -4 10 -6 0 -11 18 -11 40 0 43 -14 54 -24 18z"/>

<path d="M8640 9442 c0 -10 5 -23 11 -29 8 -8 7 -16 -2 -30 -15 -26 -6 -51 23

-63 37 -14 86 -64 93 -93 10 -38 19 -40 32 -7 9 24 7 32 -13 56 -13 15 -27 25

-30 21 -3 -3 -17 6 -30 20 -17 18 -21 30 -14 37 7 7 14 6 22 -2 7 -7 22 -12

34 -12 36 0 89 -72 146 -198 12 -27 17 -30 22 -17 5 15 9 14 26 -8 11 -14 20

-30 20 -37 0 -6 5 -8 10 -5 26 16 -5 95 -69 175 -20 25 -45 62 -55 83 -12 23

-26 37 -38 37 -11 0 -36 14 -56 31 -32 26 -99 58 -124 59 -5 0 -8 -8 -8 -18z"/>

<path d="M7956 9335 c4 -8 8 -15 10 -15 2 0 4 7 4 15 0 8 -4 15 -10 15 -5 0

-7 -7 -4 -15z"/>

<path d="M8305 9331 c-6 -11 9 -23 19 -14 9 9 7 23 -3 23 -6 0 -12 -4 -16 -9z"/>

<path d="M8543 9306 c1 -11 9 -21 17 -23 10 -3 11 -2 4 4 -6 4 -14 15 -17 23

-5 11 -6 9 -4 -4z"/>

<path d="M7335 9270 c3 -5 10 -10 16 -10 5 0 9 5 9 10 0 6 -7 10 -16 10 -8 0

-12 -4 -9 -10z"/>

<path d="M8566 9254 c-7 -19 4 -93 15 -100 4 -2 5 -12 2 -22 -4 -10 4 -7 20

10 26 28 35 26 52 -17 5 -14 9 -16 12 -7 3 8 0 19 -6 25 -6 6 -11 19 -11 29 0

10 -4 18 -10 18 -5 0 -10 11 -10 23 0 24 -27 57 -47 57 -6 0 -14 -7 -17 -16z"/>

<path d="M7397 9192 c16 -22 43 -46 60 -55 l32 -14 -20 28 c-11 16 -26 29 -34

29 -7 0 -15 6 -18 14 -3 8 -15 20 -27 26 -18 10 -17 6 7 -28z"/>

<path d="M8811 9196 c-8 -9 -10 -27 -7 -44 7 -27 6 -28 -31 -24 l-38 4 43 -44

c31 -32 42 -52 42 -74 0 -28 3 -31 25 -27 20 4 27 -1 41 -31 19 -39 11 -62

-11 -32 -20 26 -76 15 -92 -19 -10 -22 -8 -27 7 -35 13 -7 21 -7 25 0 9 15 32

-5 41 -33 3 -12 22 -37 40 -55 29 -28 33 -35 24 -53 -10 -17 -6 -27 25 -65 49

-59 72 -71 91 -47 13 17 13 17 13 -2 0 -23 -21 -55 -36 -55 -6 0 -13 10 -16

22 -5 17 -9 19 -20 10 -10 -9 -16 -9 -25 0 -22 22 -14 -14 8 -38 19 -19 25

-40 29 -95 0 -9 12 -27 26 -40 29 -28 32 -54 8 -67 -10 -6 -14 -16 -10 -26 8

-21 27 -21 27 2 0 14 2 15 10 2 5 -9 5 -19 -2 -27 -26 -32 18 -147 47 -123 16

13 45 -19 49 -54 1 -14 6 -29 9 -33 4 -3 7 -12 7 -19 0 -7 25 -38 55 -69 55

-57 74 -60 34 -6 -21 29 -19 51 4 51 7 0 30 -22 51 -49 34 -42 79 -71 92 -59

2 2 -37 46 -87 98 -67 71 -92 91 -98 81 -7 -11 -11 -10 -19 5 -5 11 -7 25 -5

31 3 7 -4 25 -15 40 -11 16 -27 51 -36 78 -8 28 -23 72 -32 99 -11 32 -14 51

-7 53 23 8 47 32 40 40 -5 4 -13 0 -18 -10 -12 -21 -35 -22 -43 -1 -9 23 -8

24 14 24 11 0 20 6 20 13 -1 21 -25 101 -37 122 -6 11 -17 50 -23 85 -7 36

-27 97 -46 135 -19 39 -34 76 -34 82 0 6 -11 24 -24 40 -13 15 -27 39 -31 53

-4 14 -15 35 -23 48 -12 18 -17 20 -29 11 -11 -10 -17 -9 -30 4 -19 19 -10 47

16 47 17 0 18 3 7 35 -17 48 -30 60 -45 41z m127 -335 c4 -43 -4 -62 -23 -55

-25 10 -17 99 9 91 6 -2 12 -18 14 -36z"/>

<path d="M8036 9175 c-3 -8 -15 -15 -26 -15 -11 0 -20 -6 -20 -14 0 -20 27

-39 45 -32 8 3 15 1 15 -4 0 -6 5 -10 10 -10 6 0 10 13 10 29 0 52 -20 80 -34

46z"/>

<path d="M8680 9088 c0 -9 5 -20 11 -23 17 -11 18 -2 3 19 -12 17 -14 17 -14

4z"/>

<path d="M8078 9045 c-9 -19 -9 -28 0 -37 15 -15 18 -11 25 30 8 38 -8 43 -25

7z"/>

<path d="M8463 9005 c0 -22 2 -30 4 -17 2 12 2 30 0 40 -3 9 -5 -1 -4 -23z"/>

<path d="M8747 8997 c-8 -21 -3 -60 9 -64 7 -2 13 12 16 37 2 26 -1 40 -8 40

-7 0 -14 -6 -17 -13z"/>

<path d="M8107 8968 c-4 -14 3 -44 18 -77 14 -29 25 -59 25 -65 0 -7 11 -23

25 -36 14 -13 25 -29 25 -37 0 -7 5 -13 10 -13 12 0 -14 66 -34 90 -8 8 -16

31 -19 50 -15 97 -38 137 -50 88z"/>

<path d="M8610 8979 c0 -8 7 -23 15 -33 15 -19 15 -19 15 1 0 11 -7 26 -15 33

-12 10 -15 10 -15 -1z"/>

<path d="M12765 8869 c-4 -6 -5 -12 -2 -15 7 -7 37 7 37 17 0 13 -27 11 -35

-2z"/>

<path d="M8280 8806 c0 -32 16 -66 32 -66 15 0 2 61 -17 80 -13 13 -15 11 -15

-14z"/>

<path d="M8755 8793 c4 -21 13 -46 22 -55 10 -11 13 -26 8 -47 -6 -27 -3 -32

20 -43 24 -11 29 -10 44 8 9 11 22 19 29 16 19 -6 15 4 -28 60 -22 29 -40 60

-40 69 0 14 -26 28 -54 29 -4 0 -5 -17 -1 -37z"/>

<path d="M8596 8769 c4 -22 13 -57 20 -77 l13 -37 1 42 c0 23 -4 45 -10 48 -5

3 -10 19 -10 36 0 16 -5 29 -10 29 -6 0 -8 -16 -4 -41z"/>

<path d="M8535 8738 c-4 -21 -2 -45 5 -57 16 -31 50 -140 50 -162 0 -27 -18

-23 -32 6 -6 13 -15 22 -19 19 -12 -7 -11 -40 1 -62 5 -9 14 -29 20 -44 10

-29 40 -39 40 -14 0 7 6 19 14 25 11 9 12 20 5 44 -5 18 -9 50 -9 72 0 23 -9

58 -20 80 -11 22 -20 48 -20 60 -1 11 -7 31 -14 45 l-14 25 -7 -37z"/>

<path d="M8410 8677 c0 -21 9 -44 21 -58 l22 -24 -6 40 c-4 22 -7 48 -7 58 0

9 -7 17 -15 17 -10 0 -15 -10 -15 -33z"/>

<path d="M8255 8690 c-3 -5 1 -10 10 -10 9 0 13 5 10 10 -3 6 -8 10 -10 10 -2

0 -7 -4 -10 -10z"/>

<path d="M8297 8653 c-2 -4 4 -16 15 -25 13 -14 18 -15 18 -4 0 16 -26 40 -33

29z"/>

<path d="M8915 8620 c3 -5 8 -10 11 -10 2 0 4 5 4 10 0 6 -5 10 -11 10 -5 0

-7 -4 -4 -10z"/>

<path d="M8796 8592 c-5 -9 11 -89 21 -106 4 -6 9 -1 13 12 6 27 26 26 23 0

-2 -11 4 -18 13 -18 9 0 14 6 11 13 -3 7 1 21 9 31 18 26 9 36 -31 36 -28 0

-32 3 -28 20 4 14 0 20 -10 20 -9 0 -18 -4 -21 -8z"/>

<path d="M8398 8555 c-24 -32 -23 -47 9 -76 23 -21 25 -21 17 -4 -4 11 -8 39

-8 63 0 23 -1 42 -1 42 0 0 -8 -11 -17 -25z"/>

<path d="M8525 8570 c3 -5 8 -10 11 -10 2 0 4 5 4 10 0 6 -5 10 -11 10 -5 0

-7 -4 -4 -10z"/>

<path d="M8216 8525 c4 -8 8 -15 10 -15 2 0 4 7 4 15 0 8 -4 15 -10 15 -5 0

-7 -7 -4 -15z"/>

<path d="M4167 8524 c-4 -4 -7 -14 -7 -23 0 -11 3 -12 11 -4 6 6 10 16 7 23

-2 6 -7 8 -11 4z"/>

<path d="M9144 8434 c-24 -10 26 -82 109 -157 47 -42 90 -77 96 -77 28 0 -2

75 -44 108 -25 20 -33 42 -15 42 6 0 10 5 10 10 0 6 -4 10 -10 10 -5 0 -30 16

-56 35 -43 33 -64 40 -90 29z"/>

<path d="M8460 8410 c0 -5 5 -10 10 -10 6 0 10 5 10 10 0 6 -4 10 -10 10 -5 0

-10 -4 -10 -10z"/>

<path d="M8760 8385 c0 -8 5 -15 10 -15 6 0 10 7 10 15 0 8 -4 15 -10 15 -5 0

-10 -7 -10 -15z"/>

<path d="M8980 8385 c0 -9 5 -15 11 -13 6 2 11 8 11 13 0 5 -5 11 -11 13 -6 2

-11 -4 -11 -13z"/>

<path d="M8610 8365 c0 -17 39 -60 47 -52 7 8 -26 67 -37 67 -6 0 -10 -7 -10

-15z"/>

<path d="M8480 8331 c-11 -22 -5 -47 20 -76 9 -11 23 -46 30 -78 17 -75 38

-94 38 -35 0 24 1 57 1 73 0 18 -7 36 -18 45 -12 11 -17 26 -15 45 5 44 -36

63 -56 26z"/>

<path d="M8862 8304 c-12 -22 -3 -61 16 -69 9 -3 24 3 36 14 18 18 18 23 6 46

-15 28 -45 33 -58 9z"/>

<path d="M12120 8299 c0 -5 5 -7 10 -4 6 3 10 8 10 11 0 2 -4 4 -10 4 -5 0

-10 -5 -10 -11z"/>

<path d="M8633 8293 c-13 -2 -23 -7 -23 -11 0 -20 36 -122 43 -122 10 0 5 76

-7 102 -6 13 -3 15 13 11 17 -4 20 -2 15 11 -3 9 -9 15 -13 15 -3 -1 -16 -4

-28 -6z"/>

<path d="M8410 8283 c0 -4 5 -15 10 -23 8 -13 10 -13 10 2 0 9 -4 20 -10 23

-5 3 -10 3 -10 -2z"/>

<path d="M8780 8232 c0 -10 22 -32 32 -32 5 0 3 9 -4 20 -13 20 -28 27 -28 12z"/>

<path d="M8405 8207 c-4 -10 -5 -21 -1 -24 10 -10 18 4 13 24 -4 17 -4 17 -12

0z"/>

<path d="M8910 8210 c0 -5 5 -10 11 -10 5 0 7 5 4 10 -3 6 -8 10 -11 10 -2 0

-4 -4 -4 -10z"/>

<path d="M8832 8153 c2 -22 -1 -28 -17 -28 -11 0 -21 -8 -23 -17 -2 -10 1 -18

7 -18 6 0 11 -10 11 -22 0 -13 7 -32 15 -42 8 -11 15 -29 15 -41 0 -12 4 -25

9 -30 6 -6 11 -32 12 -60 2 -49 16 -85 31 -85 13 0 9 98 -6 132 -23 53 -38

133 -30 162 7 31 -2 76 -17 76 -5 0 -8 -12 -7 -27z"/>

<path d="M8660 8129 c0 -11 4 -18 10 -14 5 3 7 12 3 20 -7 21 -13 19 -13 -6z"/>

<path d="M8775 8140 c3 -5 8 -10 11 -10 2 0 4 5 4 10 0 6 -5 10 -11 10 -5 0

-7 -4 -4 -10z"/>

<path d="M11895 8091 c-6 -11 9 -23 19 -14 9 9 7 23 -3 23 -6 0 -12 -4 -16 -9z"/>

<path d="M11857 8063 c-12 -12 -7 -22 8 -17 8 4 15 10 15 15 0 11 -14 12 -23

2z"/>

<path d="M3347 8053 c-13 -13 -7 -32 8 -27 8 4 15 12 15 20 0 15 -12 19 -23 7z"/>

<path d="M121 8019 c-21 -27 -22 -34 -11 -57 15 -34 22 -120 9 -127 -12 -8

-12 -145 0 -145 13 0 23 29 27 88 3 30 12 86 20 125 24 108 23 142 -1 144 -12

2 -29 -10 -44 -28z"/>

<path d="M8582 8020 c0 -19 2 -27 5 -17 2 9 2 25 0 35 -3 9 -5 1 -5 -18z"/>

<path d="M8671 8019 c-22 -18 -22 -21 -8 -37 12 -14 15 -43 13 -167 -1 -82 1

-162 5 -177 5 -19 1 -40 -12 -67 -22 -46 -24 -67 -8 -77 7 -4 9 -22 5 -48 -6

-39 -6 -210 1 -326 10 -176 20 -290 26 -297 14 -14 25 13 30 77 3 36 10 83 15

105 31 126 34 159 18 171 -10 7 -16 26 -16 50 0 22 -6 49 -14 60 -11 15 -12

31 -5 68 5 27 7 59 4 72 -3 13 -7 36 -10 50 -5 22 -3 25 14 19 11 -3 23 -1 26

6 11 16 12 149 1 149 -4 0 -5 11 -2 24 3 13 -1 37 -9 52 -17 34 -19 60 -5 69

15 9 12 72 -3 78 -9 3 -16 31 -21 78 -4 41 -10 77 -14 81 -4 3 -18 -2 -31 -13z

m43 -464 c3 -8 1 -15 -4 -15 -6 0 -10 7 -10 15 0 8 2 15 4 15 2 0 6 -7 10 -15z"/>

<path d="M9090 8005 c0 -33 17 -85 32 -95 4 -3 24 -42 43 -85 63 -139 64 -140

69 -93 2 12 6 38 10 56 6 27 3 39 -20 70 -15 20 -34 41 -41 45 -18 11 -43 62

-43 88 0 20 -24 48 -42 49 -5 0 -8 -16 -8 -35z"/>

<path d="M8581 7964 c0 -11 3 -14 6 -6 3 7 2 16 -1 19 -3 4 -6 -2 -5 -13z"/>

<path d="M8046 7961 c-4 -7 -5 -15 -2 -18 9 -9 19 4 14 18 -4 11 -6 11 -12 0z"/>

<path d="M3392 7927 c-17 -20 -12 -40 6 -28 8 5 12 16 10 26 -3 17 -4 17 -16

2z"/>

<path d="M8958 7890 c-7 -72 5 -183 20 -188 7 -2 12 -19 12 -38 0 -22 5 -34

14 -34 9 0 14 12 14 36 0 19 3 38 6 41 3 4 6 -3 6 -15 0 -12 5 -22 10 -22 6 0

10 -14 10 -31 0 -24 -4 -30 -15 -25 -22 8 -19 -18 5 -39 11 -10 20 -24 20 -31

0 -19 38 -85 62 -109 l20 -20 -6 37 c-4 22 -2 39 4 43 8 5 5 14 -8 29 -21 24

-44 116 -44 182 0 44 -17 64 -19 22 0 -17 -2 -19 -7 -8 -11 23 -45 74 -56 81

-5 4 -6 18 -2 32 4 17 1 31 -10 41 -9 9 -19 29 -23 44 -6 23 -8 18 -13 -28z"/>

<path d="M11620 7859 c0 -5 5 -7 10 -4 6 3 10 8 10 11 0 2 -4 4 -10 4 -5 0

-10 -5 -10 -11z"/>

<path d="M9366 7851 c-4 -5 -2 -12 2 -15 14 -8 2 -56 -14 -56 -7 0 -16 5 -19

10 -7 12 -25 4 -25 -11 0 -8 58 -39 72 -39 2 0 4 25 6 54 2 51 -9 79 -22 57z"/>

<path d="M3600 7839 c0 -5 5 -7 10 -4 6 3 10 8 10 11 0 2 -4 4 -10 4 -5 0 -10

-5 -10 -11z"/>

<path d="M3200 7799 c0 -33 3 -39 13 -30 8 6 12 23 9 41 -6 44 -22 37 -22 -11z"/>

<path d="M3330 7816 c0 -9 5 -16 10 -16 6 0 10 4 10 9 0 6 -4 13 -10 16 -5 3

-10 -1 -10 -9z"/>

<path d="M3266 7752 c-14 -28 -13 -42 6 -42 4 0 8 8 8 18 0 10 5 23 11 29 7 7

7 13 0 17 -5 4 -17 -6 -25 -22z"/>

<path d="M8047 7763 c-11 -10 -8 -63 3 -63 6 0 10 16 10 35 0 36 -2 40 -13 28z"/>

<path d="M3297 7720 c-11 -19 -16 -38 -12 -51 7 -20 4 -21 -20 -15 -31 8 -45

-5 -45 -41 0 -14 6 -23 15 -23 21 0 19 -51 -3 -76 -13 -15 -16 -32 -14 -76 4

-56 22 -84 22 -34 0 14 4 27 9 31 12 7 67 184 76 245 4 25 12 51 17 58 8 9 5

12 -9 12 -10 0 -27 -13 -36 -30z"/>

<path d="M11520 7740 c0 -5 5 -10 11 -10 5 0 7 5 4 10 -3 6 -8 10 -11 10 -2 0

-4 -4 -4 -10z"/>

<path d="M131 7597 c2 -18 0 -38 -4 -44 -8 -13 19 -63 33 -63 10 0 6 99 -4

123 -13 28 -28 19 -25 -16z"/>

<path d="M3660 7614 c0 -14 3 -14 15 -4 8 7 15 14 15 16 0 2 -7 4 -15 4 -8 0

-15 -7 -15 -16z"/>

<path d="M8851 7604 c0 -11 3 -14 6 -6 3 7 2 16 -1 19 -3 4 -6 -2 -5 -13z"/>

<path d="M7950 7570 c0 -5 5 -10 10 -10 6 0 10 5 10 10 0 6 -4 10 -10 10 -5 0

-10 -4 -10 -10z"/>

<path d="M8860 7536 c0 -25 5 -46 10 -46 6 0 10 18 10 39 0 22 -4 43 -10 46

-6 4 -10 -12 -10 -39z"/>

<path d="M9517 7536 c-40 -34 -45 -47 -22 -66 12 -10 18 -10 30 0 12 10 18 9

32 -6 13 -12 14 -19 5 -22 -6 -2 -12 -9 -12 -15 0 -7 -16 -30 -36 -52 -20 -22

-43 -50 -51 -62 -9 -13 -22 -23 -29 -23 -8 0 -14 -10 -14 -23 0 -13 -3 -26 -6

-30 -9 -9 -34 4 -34 18 0 7 -7 18 -16 25 -13 11 -19 10 -37 -8 l-21 -22 22

-29 c12 -17 19 -36 17 -44 -6 -14 18 -40 47 -50 13 -4 17 -1 16 11 -5 60 2 79

35 93 17 8 36 24 41 35 5 12 31 36 57 54 51 35 59 50 59 123 0 33 5 49 15 53

25 10 88 7 130 -5 22 -6 69 -12 103 -11 35 0 73 -6 85 -12 26 -14 248 -43 468

-62 86 -7 161 -16 167 -20 5 -3 15 1 22 9 14 17 37 20 42 5 2 -6 17 -12 33

-15 17 -2 40 -7 53 -11 30 -9 20 18 -14 36 -13 7 -24 19 -24 25 0 14 -65 27

-96 19 -12 -3 -42 1 -67 10 -26 9 -53 13 -62 10 -8 -4 -22 -1 -30 6 -9 8 -44

12 -91 11 -42 -1 -83 4 -90 10 -7 6 -39 11 -71 11 -32 1 -63 5 -70 11 -7 5

-25 6 -41 2 -32 -6 -149 10 -195 27 -20 8 -31 7 -42 -2 -11 -9 -22 -9 -51 0

-22 7 -66 11 -109 8 -39 -3 -80 -2 -91 2 -14 6 -30 -1 -57 -24z"/>

<path d="M3400 7544 c0 -8 5 -12 10 -9 6 4 8 11 5 16 -9 14 -15 11 -15 -7z"/>

<path d="M8772 7479 c-1 -28 -4 -64 -7 -79 -4 -20 1 -43 19 -77 l26 -48 -4 90

c-5 103 -15 165 -26 165 -5 0 -8 -23 -8 -51z"/>

<path d="M3381 7484 c0 -11 3 -14 6 -6 3 7 2 16 -1 19 -3 4 -6 -2 -5 -13z"/>

<path d="M9443 7456 c3 -8 -1 -17 -9 -20 -8 -3 -14 -12 -14 -21 0 -9 -9 -15

-21 -15 -24 0 -21 -23 4 -28 10 -2 21 7 28 22 7 14 18 26 25 26 17 0 25 25 11

39 -16 16 -30 14 -24 -3z"/>

<path d="M140 7420 c-10 -29 -10 -43 -2 -53 19 -23 0 -71 -31 -77 -47 -9 -115

-80 -77 -80 5 0 49 -6 97 -14 162 -27 327 -45 443 -50 63 -2 137 -10 164 -16

59 -13 79 -1 51 30 -10 11 -23 20 -29 20 -5 0 -21 11 -35 24 -15 13 -38 31

-53 40 -26 17 -27 17 -65 -17 l-38 -34 -120 4 c-66 2 -124 9 -129 14 -6 5 -40

9 -77 9 -80 0 -94 12 -84 67 12 69 17 173 7 173 -5 0 -15 -18 -22 -40z"/>

<path d="M8911 7437 c-10 -26 -3 -77 10 -77 5 0 9 23 9 50 0 55 -6 63 -19 27z"/>

<path d="M9791 7446 c-10 -12 -9 -20 4 -40 26 -39 45 -33 45 14 0 32 -4 40

-19 40 -10 0 -24 -6 -30 -14z"/>

<path d="M10720 7425 c0 -8 7 -15 15 -15 8 0 15 -8 15 -18 0 -19 44 -47 59

-38 4 3 41 2 82 -3 78 -8 85 -6 108 38 16 29 6 39 -21 22 -14 -9 -23 -10 -31

-2 -17 17 -58 13 -73 -6 -12 -17 -13 -17 -19 0 -6 13 -19 17 -55 17 -27 0 -52

5 -55 10 -9 15 -25 12 -25 -5z"/>

<path d="M8322 7400 c0 -14 2 -19 5 -12 2 6 2 18 0 25 -3 6 -5 1 -5 -13z"/>

<path d="M9010 7396 c0 -13 5 -28 10 -31 6 -3 10 3 10 14 0 12 0 24 1 28 0 4

-4 9 -10 11 -6 2 -11 -8 -11 -22z"/>

<path d="M9150 7392 c0 -5 9 -17 20 -27 16 -14 20 -15 20 -4 0 16 -19 39 -32

39 -4 0 -8 -4 -8 -8z"/>

<path d="M3316 7368 c-9 -12 -16 -26 -16 -31 0 -4 -8 -20 -17 -34 -24 -36 -26

-181 -3 -185 9 -2 15 -15 16 -33 2 -56 13 -141 22 -166 l9 -24 8 25 c4 13 14

30 21 37 9 9 12 40 11 101 -2 86 -2 87 -27 87 -20 0 -24 4 -21 20 2 11 4 34 6

50 1 17 6 38 10 47 4 9 4 22 0 28 -3 5 -3 15 1 22 9 15 11 78 2 78 -4 0 -14

-10 -22 -22z"/>

<path d="M10240 7380 c0 -5 4 -10 9 -10 6 0 13 5 16 10 3 6 -1 10 -9 10 -9 0

-16 -4 -16 -10z"/>

<path d="M10320 7370 c0 -5 5 -10 11 -10 5 0 7 5 4 10 -3 6 -8 10 -11 10 -2 0

-4 -4 -4 -10z"/>

<path d="M10500 7361 c0 -11 31 -24 39 -16 3 3 -1 10 -9 15 -19 12 -30 12 -30

1z"/>

<path d="M8322 7335 c0 -16 2 -22 5 -12 2 9 2 23 0 30 -3 6 -5 -1 -5 -18z"/>

<path d="M10576 7352 c-3 -5 0 -14 7 -20 16 -12 75 -13 82 -1 4 5 -9 9 -27 9

-19 0 -39 5 -45 11 -7 7 -13 7 -17 1z"/>

<path d="M11033 7341 c-5 -19 -15 -26 -36 -22 -5 1 -24 -3 -43 -8 -19 -5 -34

-6 -34 -1 0 11 -39 20 -45 10 -10 -17 8 -41 29 -38 12 1 32 -5 46 -15 13 -9

32 -17 40 -17 9 0 21 -5 26 -10 19 -19 42 0 47 38 3 20 7 46 9 57 4 28 -32 34

-39 6z"/>

<path d="M9310 7340 c0 -5 7 -10 15 -10 8 0 15 5 15 10 0 6 -7 10 -15 10 -8 0

-15 -4 -15 -10z"/>

<path d="M9806 7334 c-8 -20 11 -54 29 -54 16 0 18 12 9 48 -7 25 -29 29 -38

6z"/>

<path d="M10716 7333 c-3 -3 -3 -10 0 -14 7 -12 34 -11 34 0 0 11 -26 22 -34

14z"/>

<path d="M3390 7311 c-11 -22 -5 -61 10 -61 5 0 11 14 15 31 9 39 -8 60 -25

30z"/>

<path d="M10795 7322 c-12 -12 -4 -38 15 -50 26 -16 40 -8 40 22 0 17 -7 25

-25 28 -13 3 -27 3 -30 0z"/>

<path d="M8861 7248 c-1 -43 3 -78 8 -78 5 0 7 30 4 68 -7 96 -11 99 -12 10z"/>

<path d="M8926 7273 c3 -27 14 -64 22 -83 l16 -35 4 49 c2 30 -3 61 -13 82

-23 50 -38 43 -29 -13z"/>

<path d="M9032 7284 c-10 -22 -10 -38 -2 -58 5 -15 10 -40 10 -56 0 -16 6 -33

13 -37 6 -4 20 -21 29 -38 9 -16 21 -31 27 -33 14 -5 15 35 1 43 -5 3 -10 14

-10 24 0 9 -6 23 -12 29 -7 7 -20 45 -28 85 -16 71 -16 71 -28 41z"/>

<path d="M10105 7299 c-4 -6 -5 -13 -2 -16 7 -7 27 6 27 18 0 12 -17 12 -25

-2z"/>

<path d="M9570 7281 c0 -22 15 -35 30 -26 7 4 7 13 0 26 -14 25 -30 25 -30 0z"/>

<path d="M9900 7199 c0 -35 3 -49 9 -40 10 15 8 78 -3 88 -3 3 -6 -18 -6 -48z"/>

<path d="M3360 7232 c0 -5 9 -17 20 -27 18 -16 20 -16 20 -2 0 9 -9 21 -20 27

-11 6 -20 7 -20 2z"/>

<path d="M9941 7193 c0 -24 3 -43 8 -43 16 0 23 20 13 33 -5 7 -12 21 -15 32

-2 11 -5 1 -6 -22z"/>

<path d="M10037 7186 c-7 -42 6 -85 18 -56 3 9 2 34 -3 55 l-8 40 -7 -39z"/>

<path d="M11037 7196 c-3 -8 0 -22 7 -32 13 -16 14 -16 36 3 22 21 22 21 2 32

-27 15 -39 14 -45 -3z"/>

<path d="M9837 7163 c-4 -23 -3 -52 1 -64 l9 -23 4 25 c2 13 2 42 -1 64 l-5

40 -8 -42z"/>

<path d="M9228 7178 c-8 -21 2 -38 22 -38 27 0 35 -18 16 -38 -9 -11 -12 -22

-6 -32 7 -12 15 -12 52 -1 24 8 47 14 52 15 17 3 -47 67 -87 86 -48 24 -44 23

-49 8z"/>

<path d="M3390 7165 c0 -8 5 -15 10 -15 6 0 10 7 10 15 0 8 -4 15 -10 15 -5 0

-10 -7 -10 -15z"/>

<path d="M9996 7163 c-4 -9 -2 -21 4 -27 7 -7 10 -2 10 17 0 31 -5 34 -14 10z"/>

<path d="M8861 7145 c-10 -76 -24 -138 -36 -161 -9 -17 -13 -40 -9 -56 7 -34

-21 -134 -41 -146 -12 -6 -14 -19 -9 -55 7 -46 24 -66 24 -27 0 11 16 50 35

88 28 54 36 83 40 142 3 41 7 89 9 105 3 17 1 50 -4 75 -4 25 -8 41 -9 35z"/>

<path d="M8901 7134 c0 -11 3 -14 6 -6 3 7 2 16 -1 19 -3 4 -6 -2 -5 -13z"/>

<path d="M11086 7134 c-3 -9 -6 -29 -6 -45 0 -39 31 -179 40 -179 12 0 20 126

10 156 -5 16 -12 41 -15 57 -6 30 -20 35 -29 11z"/>

<path d="M8960 7129 c0 -6 5 -19 10 -30 8 -14 8 -43 0 -96 -5 -42 -8 -78 -6

-81 3 -2 14 5 26 16 14 13 18 22 11 27 -6 3 -11 37 -11 75 0 37 -3 75 -6 84

-7 18 -24 22 -24 5z"/>

<path d="M9919 7081 c-7 -20 3 -101 12 -101 11 0 12 81 0 99 -6 9 -10 10 -12

2z"/>

<path d="M5 7070 c-9 -15 12 -30 45 -30 25 -1 168 -12 388 -30 727 -60 909

-82 920 -109 3 -7 -3 -64 -12 -125 -9 -61 -23 -154 -31 -206 -15 -101 -35

-241 -60 -435 -8 -66 -20 -145 -25 -175 -9 -50 -29 -193 -81 -565 -10 -77 -26

-185 -34 -240 -8 -55 -20 -134 -25 -175 -6 -41 -19 -136 -30 -210 -11 -74 -24

-173 -30 -220 -6 -47 -22 -157 -35 -245 -29 -186 -176 -1226 -205 -1448 -11

-84 -27 -188 -35 -232 -9 -44 -23 -134 -31 -200 -8 -66 -21 -167 -29 -225 -9

-58 -22 -150 -29 -205 -8 -55 -35 -242 -60 -415 -57 -396 -55 -380 -66 -475

-13 -103 -18 -140 -35 -255 -8 -52 -22 -149 -30 -215 -29 -209 -66 -428 -81

-476 -8 -26 -23 -54 -33 -63 -28 -25 -34 -56 -11 -56 10 0 21 7 24 16 5 12 9

14 20 5 16 -14 30 1 40 43 19 79 95 123 157 91 15 -8 42 -15 59 -15 23 0 30 4

30 20 0 20 -17 26 -62 22 -10 -1 -18 5 -18 13 0 19 -16 19 -24 0 -4 -11 -18

-15 -51 -13 -37 1 -46 5 -50 22 -7 29 27 333 44 396 5 19 14 82 21 140 6 58

17 146 25 195 8 50 23 160 35 245 11 85 25 184 30 220 12 82 39 275 50 360 5

36 14 94 20 130 6 36 15 103 21 150 15 128 37 283 79 560 10 69 24 159 29 200

6 41 15 104 21 140 5 36 14 106 20 155 6 50 20 146 30 215 22 141 88 594 100

685 4 33 13 98 19 145 19 150 62 451 82 580 5 36 14 99 19 140 5 41 14 107 20

145 17 110 29 194 40 275 5 41 14 102 20 135 5 33 14 96 20 140 6 44 15 107

20 140 5 33 15 98 21 145 6 47 15 110 19 140 5 30 13 93 19 140 6 47 15 114

20 150 15 102 49 344 66 469 8 63 18 117 21 120 11 12 203 6 379 -12 99 -9

261 -24 360 -33 99 -8 245 -21 325 -29 80 -8 208 -19 285 -25 77 -6 176 -15

220 -20 44 -5 131 -13 193 -16 97 -6 112 -5 112 9 0 19 -40 24 -460 57 -74 6

-164 15 -200 20 -36 5 -162 16 -280 25 -118 9 -314 25 -435 36 -121 11 -292

24 -380 29 -88 5 -187 14 -220 20 -79 16 -177 25 -430 44 -116 8 -235 18 -265

21 -30 3 -92 7 -138 10 -45 3 -102 8 -125 10 -23 2 -98 9 -167 15 -69 6 -135

14 -146 16 -12 3 -25 0 -29 -6z"/>

<path d="M9040 7064 c0 -8 5 -12 10 -9 6 4 8 11 5 16 -9 14 -15 11 -15 -7z"/>

<path d="M7970 7060 c0 -5 5 -10 10 -10 6 0 10 5 10 10 0 6 -4 10 -10 10 -5 0

-10 -4 -10 -10z"/>

<path d="M9844 7020 c0 -25 5 -40 14 -40 8 0 11 12 10 37 -4 51 -26 55 -24 3z"/>

<path d="M9320 7034 c0 -12 -7 -15 -29 -12 l-29 4 3 -60 c3 -65 18 -116 34

-116 16 0 31 35 31 70 0 20 10 44 25 62 31 37 31 42 0 56 -33 15 -35 15 -35

-4z"/>

<path d="M9950 7041 c0 -6 5 -13 10 -16 6 -3 10 1 10 9 0 9 -4 16 -10 16 -5 0

-10 -4 -10 -9z"/>

<path d="M10060 6997 c4 -41 5 -41 8 -8 2 18 0 37 -5 42 -5 5 -6 -11 -3 -34z"/>

<path d="M8050 6955 c0 -8 12 -18 28 -21 15 -4 43 -15 62 -26 39 -20 60 -23

60 -8 0 6 -9 10 -19 10 -11 0 -32 11 -48 24 -15 12 -33 21 -40 19 -6 -2 -14 1

-18 6 -9 16 -25 13 -25 -4z"/>

<path d="M9164 6892 c2 -34 8 -68 14 -75 5 -7 13 -30 17 -52 5 -31 9 -36 16

-23 6 10 4 31 -6 58 -8 23 -15 53 -15 65 0 13 -7 38 -15 56 l-16 34 5 -63z"/>

<path d="M3416 6933 c-3 -3 -6 -16 -6 -28 0 -11 -5 -26 -12 -33 -9 -9 -8 -12

5 -12 21 0 22 -19 2 -26 -10 -4 -15 -20 -15 -48 0 -58 10 -70 43 -55 30 13 32

20 16 36 -6 6 -11 45 -11 87 0 71 -6 94 -22 79z"/>

<path d="M2848 6923 c7 -3 16 -2 19 1 4 3 -2 6 -13 5 -11 0 -14 -3 -6 -6z"/>

<path d="M2915 6920 c3 -5 11 -10 16 -10 6 0 7 5 4 10 -3 6 -11 10 -16 10 -6

0 -7 -4 -4 -10z"/>

<path d="M9610 6909 c-22 -40 -30 -79 -16 -79 24 0 57 41 54 68 -4 33 -23 39

-38 11z"/>

<path d="M9836 6921 c-4 -5 -2 -12 4 -16 5 -3 10 -15 10 -26 0 -13 7 -19 21

-19 17 0 20 5 17 33 -2 24 -8 33 -25 35 -11 2 -24 -1 -27 -7z"/>

<path d="M3008 6913 c7 -3 16 -2 19 1 4 3 -2 6 -13 5 -11 0 -14 -3 -6 -6z"/>

<path d="M11124 6837 c7 -39 -3 -47 -55 -47 -16 0 -29 -4 -29 -9 0 -19 43 -40

70 -35 l26 6 -7 -68 c-4 -37 -3 -75 1 -83 4 -9 13 -28 19 -43 14 -37 28 -35

34 5 6 38 -10 213 -23 242 -5 11 -10 29 -12 39 -2 11 -9 21 -17 24 -11 4 -12

-3 -7 -31z"/>

<path d="M9241 6841 c-2 -27 22 -91 34 -91 13 0 35 20 35 32 0 4 -8 8 -18 8

-11 0 -25 14 -35 33 -8 17 -16 26 -16 18z"/>

<path d="M8925 6819 c-11 -17 1 -21 15 -4 8 9 8 15 2 15 -6 0 -14 -5 -17 -11z"/>

<path d="M9862 6818 c-11 -14 16 -118 31 -118 4 0 7 24 7 54 0 57 -18 88 -38

64z"/>

<path d="M9627 6791 c-7 -34 0 -64 14 -55 11 7 11 55 0 72 -6 10 -10 5 -14

-17z"/>

<path d="M8255 6791 c-3 -5 -1 -12 5 -16 5 -3 10 1 10 9 0 18 -6 21 -15 7z"/>

<path d="M9134 6758 c7 -36 23 -58 42 -58 16 0 18 13 5 38 -5 9 -12 25 -15 35

-3 9 -13 17 -22 17 -13 0 -15 -6 -10 -32z"/>

<path d="M10155 6779 c-10 -15 1 -23 20 -15 9 3 13 10 10 16 -8 13 -22 13 -30

-1z"/>

<path d="M10880 6780 c0 -5 5 -10 10 -10 6 0 10 5 10 10 0 6 -4 10 -10 10 -5

0 -10 -4 -10 -10z"/>

<path d="M3315 6770 c-4 -6 6 -10 22 -10 22 0 25 2 13 10 -19 12 -27 12 -35 0z"/>

<path d="M12653 6720 c-3 -11 -10 -20 -15 -20 -11 0 -47 -40 -48 -52 0 -16 18

-7 53 27 36 35 48 65 26 65 -6 0 -13 -9 -16 -20z"/>

<path d="M8106 6715 c-11 -8 -15 -15 -10 -15 6 0 19 7 30 15 10 8 15 14 9 14

-5 0 -19 -6 -29 -14z"/>

<path d="M9223 6698 c2 -31 12 -47 29 -48 11 0 6 52 -5 68 -16 21 -26 13 -24

-20z"/>

<path d="M9940 6716 c0 -27 22 -96 31 -96 12 0 -2 84 -17 100 -12 12 -14 12

-14 -4z"/>

<path d="M9997 6723 c-9 -19 -8 -103 2 -103 7 0 11 22 11 55 0 52 -4 65 -13

48z"/>

<path d="M3692 6709 c2 -7 10 -15 17 -17 8 -3 12 1 9 9 -2 7 -10 15 -17 17 -8

3 -12 -1 -9 -9z"/>

<path d="M9064 6709 c-3 -6 -1 -16 5 -22 6 -6 11 -28 11 -50 0 -21 12 -68 26

-103 29 -73 27 -90 -6 -45 -24 34 -50 41 -50 13 0 -18 53 -107 69 -117 5 -2

82 -9 172 -15 90 -6 241 -22 334 -35 242 -33 339 -44 520 -55 88 -6 196 -15

240 -20 44 -4 87 -8 95 -8 8 1 92 -3 185 -7 94 -4 202 -8 242 -9 39 -1 75 -4

79 -8 11 -11 54 -10 54 1 0 22 -51 29 -245 37 -60 2 -123 6 -140 9 -46 7 -553

50 -780 65 -66 4 -121 8 -122 9 -2 0 -3 10 -3 20 0 17 -4 18 -41 10 -22 -5

-44 -7 -50 -4 -14 9 -11 35 5 41 8 3 17 11 19 18 8 20 -60 19 -72 -1 -8 -14

-13 -15 -35 -5 -20 9 -39 9 -77 1 -56 -12 -111 -6 -132 16 -8 7 -30 20 -51 29

-20 8 -36 20 -36 26 0 6 -13 16 -29 21 -21 7 -32 19 -36 39 -7 32 -41 80 -56

80 -5 0 -14 -12 -20 -26 -9 -25 -11 -26 -28 -10 -12 11 -16 25 -13 41 9 49

-15 94 -34 64z"/>

<path d="M10038 6707 c-2 -6 -4 -21 -3 -32 1 -11 2 -30 3 -43 3 -41 22 -12 22

33 0 42 -13 68 -22 42z"/>

<path d="M4381 6701 c-6 -4 -50 -8 -97 -9 -47 -1 -94 -4 -104 -7 -10 -3 -21

-2 -24 3 -3 5 -22 6 -43 1 -21 -4 -65 -14 -98 -21 -63 -12 -125 -59 -125 -92

0 -20 14 -21 30 -1 49 59 150 83 363 86 133 2 165 7 153 27 -8 13 -41 21 -55

13z"/>

<path d="M8180 6688 c15 -17 23 -19 32 -10 8 8 5 14 -16 22 -38 14 -40 13 -16

-12z"/>

<path d="M8708 6663 c-11 -39 -20 -51 -48 -65 -19 -10 -30 -18 -25 -18 6 0 20

-3 32 -6 18 -5 25 0 36 27 8 19 25 44 37 57 17 18 19 26 10 37 -20 24 -28 18

-42 -32z"/>

<path d="M10078 6685 c-3 -14 -1 -28 4 -31 6 -4 8 -17 5 -30 -3 -16 0 -24 9

-24 10 0 14 15 14 55 0 40 -4 55 -14 55 -7 0 -16 -11 -18 -25z"/>

<path d="M8832 6660 c-8 -16 -14 -50 -14 -75 0 -26 -5 -48 -13 -52 -7 -5 -14

-16 -16 -26 -4 -15 -7 -14 -32 8 -29 27 -47 26 -47 -4 0 -27 -34 -61 -62 -61

-20 0 -28 8 -41 40 -25 65 -109 102 -257 114 -211 17 -501 23 -562 11 -47 -9

-50 -25 -5 -25 101 1 381 -12 437 -20 36 -5 113 -15 171 -23 171 -22 195 -51

193 -237 -2 -217 -92 -541 -163 -583 -48 -28 -263 -95 -356 -111 -333 -56

-830 -64 -1030 -17 -49 12 -112 26 -139 31 -60 12 -91 31 -116 72 -22 36 -90

238 -120 357 -31 125 -42 133 -35 27 4 -50 11 -98 16 -108 5 -10 21 -56 34

-103 29 -100 74 -199 107 -236 41 -47 60 -53 278 -95 150 -28 691 -19 993 18

54 6 100 15 103 20 3 4 13 8 23 8 27 0 186 47 237 70 88 41 135 134 180 365 9

50 20 94 24 98 4 5 36 9 71 10 l64 2 8 100 c4 55 11 120 16 145 22 106 20 101

48 98 22 -2 29 -10 34 -36 8 -40 12 -44 33 -36 26 10 31 52 10 75 -11 12 -18

29 -16 39 1 9 -4 23 -13 30 -11 9 -15 31 -15 76 0 70 -8 80 -28 34z"/>

<path d="M5115 6670 c-4 -6 9 -10 32 -10 28 0 34 3 23 10 -20 13 -47 13 -55 0z"/>

<path d="M3401 6644 c0 -11 3 -14 6 -6 3 7 2 16 -1 19 -3 4 -6 -2 -5 -13z"/>

<path d="M5255 6652 c6 -5 33 -13 60 -16 62 -8 40 8 -25 18 -28 4 -41 4 -35

-2z"/>

<path d="M8330 6650 c0 -5 9 -10 19 -10 11 0 23 5 26 10 4 6 -5 10 -19 10 -14

0 -26 -4 -26 -10z"/>

<path d="M5390 6630 c0 -5 9 -10 21 -10 11 0 17 5 14 10 -3 6 -13 10 -21 10

-8 0 -14 -4 -14 -10z"/>

<path d="M10690 6586 c0 -46 15 -70 26 -42 8 21 -4 86 -16 86 -6 0 -10 -20

-10 -44z"/>

<path d="M10743 6585 c0 -27 2 -38 4 -22 2 15 2 37 0 50 -2 12 -4 0 -4 -28z"/>

<path d="M3732 6608 c-18 -18 -15 -28 7 -28 26 0 34 15 18 29 -10 8 -17 7 -25

-1z"/>

<path d="M5508 6603 c7 -3 16 -2 19 1 4 3 -2 6 -13 5 -11 0 -14 -3 -6 -6z"/>

<path d="M7160 6596 l-65 -11 49 -3 c57 -4 96 4 96 18 0 6 -3 9 -7 9 -5 -1

-37 -7 -73 -13z"/>

<path d="M7303 6603 c9 -2 25 -2 35 0 9 3 1 5 -18 5 -19 0 -27 -2 -17 -5z"/>

<path d="M4560 6578 c0 -6 -7 -20 -17 -30 -9 -10 -13 -21 -9 -25 4 -5 12 0 17

10 6 9 16 17 24 17 20 0 30 21 14 31 -19 12 -29 11 -29 -3z"/>

<path d="M6950 6570 c-11 -7 5 -10 52 -10 37 0 70 5 73 10 8 13 -105 13 -125

0z"/>

<path d="M9896 6573 c-3 -3 -6 -25 -6 -48 0 -22 -6 -47 -12 -53 -16 -16 5 -32

40 -32 18 0 22 4 18 18 -3 9 -8 38 -12 65 -6 47 -15 63 -28 50z"/>

<path d="M10790 6570 c0 -5 7 -10 16 -10 8 0 12 5 9 10 -3 6 -10 10 -16 10 -5

0 -9 -4 -9 -10z"/>

<path d="M9960 6542 c0 -15 9 -21 41 -25 51 -7 54 -10 51 -52 -2 -26 1 -35 13

-35 9 0 15 10 16 28 l1 27 7 -25 c8 -28 51 -42 51 -16 0 8 -4 18 -10 21 -5 3

-10 24 -10 46 0 46 -18 52 -26 9 -7 -34 -24 -30 -24 6 0 21 -4 24 -39 24 -22

0 -46 3 -55 6 -11 4 -16 0 -16 -14z"/>

<path d="M6800 6540 c0 -7 14 -8 38 -4 51 9 53 14 4 14 -23 0 -42 -5 -42 -10z"/>

<path d="M10841 6534 c0 -11 3 -14 6 -6 3 7 2 16 -1 19 -3 4 -6 -2 -5 -13z"/>

<path d="M4780 6523 c0 -11 -5 -24 -12 -31 -15 -15 -6 -24 16 -16 17 7 22 49

6 59 -5 3 -10 -2 -10 -12z"/>

<path d="M12385 6530 c3 -5 10 -10 16 -10 5 0 9 5 9 10 0 6 -7 10 -16 10 -8 0

-12 -4 -9 -10z"/>

<path d="M3550 6506 c0 -15 -7 -27 -18 -31 -16 -4 -42 -43 -42 -61 0 -11 47

21 72 50 33 37 37 66 8 66 -15 0 -20 -7 -20 -24z"/>

<path d="M3740 6508 c0 -13 4 -29 9 -36 6 -10 10 -7 15 12 6 23 10 25 34 19

25 -6 26 -5 10 10 -9 9 -28 17 -42 17 -20 0 -26 -5 -26 -22z"/>

<path d="M5695 6520 c3 -5 8 -10 11 -10 2 0 4 5 4 10 0 6 -5 10 -11 10 -5 0

-7 -4 -4 -10z"/>

<path d="M6768 6523 c7 -3 16 -2 19 1 4 3 -2 6 -13 5 -11 0 -14 -3 -6 -6z"/>

<path d="M3850 6516 c0 -2 6 -15 13 -29 10 -20 17 -23 25 -15 9 9 8 16 -5 30

-14 16 -33 24 -33 14z"/>

<path d="M5050 6510 c0 -5 5 -10 11 -10 5 0 7 5 4 10 -3 6 -8 10 -11 10 -2 0

-4 -4 -4 -10z"/>

<path d="M11158 6502 c-15 -15 -15 -22 -2 -71 7 -30 19 -58 25 -61 7 -5 5 -9

-5 -13 -21 -8 -20 -27 1 -42 23 -17 9 -33 -35 -41 -43 -7 -85 -31 -77 -44 3

-4 37 -14 75 -20 61 -10 70 -14 70 -33 0 -12 4 -28 9 -35 11 -19 22 9 27 71 2

34 0 47 -10 47 -8 0 -11 10 -8 29 2 15 -3 42 -12 59 -12 24 -15 45 -10 87 5

38 3 59 -6 70 -15 19 -21 18 -42 -3z"/>

<path d="M4464 6495 c-10 -8 -14 -15 -7 -15 19 0 43 11 43 21 0 13 -14 11 -36

-6z"/>

<path d="M6653 6493 c-7 -3 -13 -11 -13 -19 0 -8 -4 -14 -10 -14 -5 0 -10 -11

-10 -24 0 -15 -11 -33 -26 -45 -23 -18 -36 -20 -88 -16 -33 3 -79 10 -102 16

-45 12 -472 8 -492 -5 -33 -20 -1 -25 141 -20 169 6 490 -11 495 -26 4 -12 52

-13 71 -1 8 5 12 18 8 31 -4 16 4 30 31 55 29 27 33 35 18 35 -15 0 -16 3 -7

14 13 15 4 26 -16 19z"/>

<path d="M7660 6480 c0 -5 5 -10 10 -10 6 0 10 5 10 10 0 6 -4 10 -10 10 -5 0

-10 -4 -10 -10z"/>

<path d="M7742 6453 c4 -33 36 -42 68 -20 20 14 20 14 -4 31 -14 9 -35 16 -46

16 -17 0 -21 -5 -18 -27z"/>

<path d="M9980 6460 c0 -5 5 -10 11 -10 5 0 7 5 4 10 -3 6 -8 10 -11 10 -2 0

-4 -4 -4 -10z"/>

<path d="M10720 6441 c0 -16 -3 -36 -6 -45 -4 -11 -1 -16 10 -16 12 0 16 10

16 39 0 22 -4 43 -10 46 -6 4 -10 -6 -10 -24z"/>

<path d="M12228 6446 c-18 -13 -24 -36 -10 -36 8 0 42 37 42 45 0 9 -15 5 -32

-9z"/>

<path d="M5182 6431 c7 -11 15 -18 20 -15 11 7 -3 34 -18 34 -12 0 -12 -4 -2

-19z"/>

<path d="M7920 6432 c1 -12 85 -98 103 -105 21 -8 23 -27 3 -27 -8 0 -17 -8

-21 -19 -3 -10 -22 -26 -43 -35 -32 -15 -132 -99 -132 -112 0 -11 30 -3 30 9

0 6 5 4 11 -5 6 -11 22 -18 39 -18 30 0 49 -15 28 -23 -9 -3 -10 -8 -2 -16 8

-9 15 -2 29 23 11 20 28 36 40 38 12 2 21 12 23 26 2 12 8 22 13 22 5 0 9 7 9

15 0 8 -4 15 -10 15 -5 0 -10 9 -10 20 0 11 5 20 10 20 6 0 10 9 10 20 0 30

18 24 22 -7 2 -22 9 -29 31 -31 22 -3 29 -10 34 -32 5 -26 9 -28 34 -23 20 4

36 -1 55 -16 30 -24 64 -28 64 -7 0 7 -11 25 -25 40 -14 15 -25 33 -25 41 0 7

-15 25 -32 39 -18 14 -40 32 -48 40 -41 38 -241 128 -240 108z"/>

<path d="M3883 6403 c4 -20 -2 -32 -26 -54 -35 -32 -44 -30 -63 17 -21 50 -40

44 -43 -13 -1 -27 -3 -61 -4 -78 -2 -30 -2 -30 58 -33 32 -2 65 -8 71 -13 7

-6 15 -33 19 -62 23 -174 76 -327 131 -379 16 -15 52 -35 79 -46 106 -41 366

-103 510 -122 50 -6 119 -16 155 -20 113 -16 426 -24 434 -12 3 6 3 13 -1 15

-5 3 -73 8 -153 12 -201 10 -197 10 -415 40 -100 15 -128 20 -260 49 -203 45

-345 108 -366 163 -32 84 -100 399 -105 488 -1 28 -3 56 -3 63 -1 6 -6 12 -12

12 -7 0 -9 -11 -6 -27z"/>

<path d="M7580 6409 c0 -5 -16 -9 -35 -9 -19 0 -35 -4 -35 -10 0 -6 27 -10 60

-10 64 0 75 8 35 27 -14 6 -25 7 -25 2z"/>

<path d="M8944 6413 c4 -6 0 -13 -6 -16 -10 -4 -10 -7 -1 -17 10 -11 4 -17

-30 -34 -23 -12 -43 -28 -45 -37 -1 -9 13 -40 32 -69 19 -29 38 -66 41 -82 5

-19 15 -30 32 -34 36 -9 46 8 46 76 -1 33 3 63 8 66 25 15 1 104 -27 104 -5 0

-19 12 -32 28 -13 15 -21 22 -18 15z m12 -155 c-19 -26 -21 -11 -4 29 9 22 12

24 15 11 3 -10 -3 -28 -11 -40z"/>

<path d="M10850 6410 c0 -5 -13 -10 -30 -10 -19 0 -30 -5 -30 -14 0 -19 40

-32 50 -16 5 8 9 6 14 -7 7 -16 8 -16 16 -2 10 18 2 59 -11 59 -5 0 -9 -4 -9

-10z"/>

<path d="M4797 6403 c-8 -14 11 -51 32 -63 19 -10 20 -8 11 12 -6 13 -13 31

-16 41 -7 18 -20 23 -27 10z"/>

<path d="M10760 6395 c0 -8 5 -15 10 -15 6 0 10 7 10 15 0 8 -4 15 -10 15 -5

0 -10 -7 -10 -15z"/>

<path d="M7777 6385 c-12 -9 -18 -27 -19 -56 -1 -58 -7 -79 -22 -79 -8 0 -19

-7 -27 -16 -10 -13 -10 -17 2 -25 21 -13 39 -11 39 6 0 8 5 15 10 15 18 0 61

107 54 135 -8 32 -15 36 -37 20z"/>

<path d="M12155 6390 c-3 -5 -1 -10 4 -10 6 0 11 5 11 10 0 6 -2 10 -4 10 -3

0 -8 -4 -11 -10z"/>

<path d="M3447 6383 c-16 -15 -6 -34 15 -31 29 4 38 38 10 38 -10 0 -22 -3

-25 -7z"/>

<path d="M10950 6381 c0 -5 -3 -16 -6 -25 -4 -11 -1 -16 10 -16 18 0 22 35 6

45 -5 3 -10 2 -10 -4z"/>

<path d="M5170 6370 c0 -5 5 -10 10 -10 6 0 10 5 10 10 0 6 -4 10 -10 10 -5 0

-10 -4 -10 -10z"/>

<path d="M3450 6327 c0 -18 27 -53 34 -46 9 9 -11 59 -24 59 -5 0 -10 -6 -10

-13z"/>

<path d="M5900 6311 c0 -25 20 -38 31 -20 15 23 10 39 -11 39 -13 0 -20 -7

-20 -19z"/>

<path d="M6037 6323 c18 -2 50 -2 70 0 21 2 7 4 -32 4 -38 0 -55 -2 -38 -4z"/>

<path d="M6208 6323 c6 -2 18 -2 25 0 6 3 1 5 -13 5 -14 0 -19 -2 -12 -5z"/>

<path d="M6284 6319 c12 -8 25 -8 40 -1 18 9 16 11 -19 11 -33 0 -37 -1 -21

-10z"/>

<path d="M6378 6323 c6 -2 18 -2 25 0 6 3 1 5 -13 5 -14 0 -19 -2 -12 -5z"/>

<path d="M6483 6319 c9 -5 36 -13 59 -17 29 -5 46 -14 53 -29 14 -28 40 -15

30 16 -7 23 -42 36 -80 29 -14 -3 -25 -1 -25 3 0 5 -12 9 -27 9 -24 -1 -25 -2

-10 -11z"/>

<path d="M4860 6310 c0 -5 9 -10 21 -10 11 0 17 5 14 10 -3 6 -13 10 -21 10

-8 0 -14 -4 -14 -10z"/>

<path d="M4995 6290 c-3 -5 1 -10 9 -10 9 0 16 5 16 10 0 6 -4 10 -9 10 -6 0

-13 -4 -16 -10z"/>

<path d="M7380 6270 c6 -11 15 -20 21 -20 6 0 6 7 -1 20 -6 11 -15 20 -21 20

-6 0 -6 -7 1 -20z"/>

<path d="M9162 6253 c2 -10 25 -15 78 -19 41 -2 95 -7 120 -12 55 -9 55 -11

70 -242 5 -91 14 -232 20 -315 5 -82 14 -220 20 -305 10 -145 27 -380 50 -670

6 -69 10 -153 10 -187 0 -61 12 -113 27 -113 34 1 35 15 19 206 -33 397 -39

467 -66 814 -5 69 -14 199 -20 290 -6 91 -15 215 -20 275 -5 61 -12 138 -14

171 l-4 62 61 4 c34 3 98 1 142 -4 44 -4 136 -12 205 -18 69 -5 170 -14 225

-20 55 -6 150 -15 210 -20 61 -5 160 -13 220 -19 61 -5 148 -13 195 -16 47 -3

119 -10 160 -15 41 -5 114 -12 163 -15 71 -4 87 -3 87 9 0 18 -24 22 -270 41

-107 9 -271 22 -365 30 -93 9 -253 22 -355 30 -102 8 -237 19 -300 25 -63 6

-185 13 -270 16 -85 3 -195 12 -245 19 -111 18 -157 17 -153 -2z"/>

<path d="M6600 6216 c0 -9 5 -16 10 -16 6 0 10 4 10 9 0 6 -4 13 -10 16 -5 3

-10 -1 -10 -9z"/>

<path d="M8840 6199 c0 -24 3 -30 16 -25 9 3 19 6 24 6 4 0 3 11 -3 25 -17 35

-37 32 -37 -6z"/>

<path d="M9047 6213 c-4 -3 -7 -17 -7 -30 0 -33 24 -24 28 10 3 26 -7 35 -21

20z"/>

<path d="M11875 6210 c-3 -5 -1 -10 4 -10 6 0 11 5 11 10 0 6 -2 10 -4 10 -3

0 -8 -4 -11 -10z"/>

<path d="M3409 6205 c-8 -12 -5 -49 16 -200 13 -95 24 -134 51 -187 l33 -66

-14 -139 c-8 -76 -23 -248 -35 -383 -11 -135 -27 -315 -35 -400 -8 -85 -17

-189 -20 -230 -3 -41 -10 -122 -15 -180 -5 -58 -12 -139 -15 -180 -12 -160

-25 -330 -35 -440 -22 -258 -23 -290 -12 -290 16 0 28 28 36 80 12 88 40 422

51 615 3 50 8 104 10 120 5 29 17 172 30 360 4 44 10 105 16 135 12 68 32 285

30 322 -1 15 3 46 8 70 6 24 6 49 1 58 -5 9 -5 21 -1 26 14 15 31 314 21 359

-15 62 -12 73 11 43 11 -16 27 -28 35 -28 18 0 18 9 1 29 -8 9 -20 31 -27 49

-11 29 -11 34 5 46 16 12 17 17 5 45 -7 17 -18 35 -24 39 -27 18 -56 73 -50

96 3 13 1 27 -5 30 -6 4 -11 27 -11 52 0 32 -4 44 -15 44 -9 0 -15 9 -15 23 0

13 -4 27 -9 33 -5 5 -11 20 -13 34 -2 14 -6 21 -9 15z"/>

<path d="M7117 6203 c-4 -3 2 -13 14 -21 22 -15 47 -3 35 17 -8 12 -39 15 -49

4z"/>

<path d="M7695 6190 c3 -5 8 -10 11 -10 2 0 4 5 4 10 0 6 -5 10 -11 10 -5 0

-7 -4 -4 -10z"/>

<path d="M5896 6175 c-4 -11 -12 -29 -16 -40 -5 -11 -11 -31 -13 -45 -3 -14

-19 -63 -35 -110 -16 -47 -32 -100 -36 -119 -6 -32 -5 -33 12 -18 9 9 23 37

31 64 22 81 35 118 43 128 4 5 8 26 8 48 0 21 5 47 11 58 5 11 8 28 6 37 -3

15 -5 14 -11 -3z"/>

<path d="M7573 6183 c-18 -6 -16 -23 1 -23 17 0 30 16 19 23 -5 2 -14 2 -20 0z"/>

<path d="M6695 6160 c-28 -31 -8 -37 23 -7 19 20 22 27 11 27 -9 0 -24 -9 -34

-20z"/>

<path d="M7510 6170 c0 -5 7 -10 15 -10 8 0 15 5 15 10 0 6 -7 10 -15 10 -8 0

-15 -4 -15 -10z"/>

<path d="M7615 6170 c-3 -5 -1 -10 4 -10 6 0 11 5 11 10 0 6 -2 10 -4 10 -3 0

-8 -4 -11 -10z"/>

<path d="M8868 6132 c9 -10 19 -14 21 -9 2 5 -3 13 -10 18 -24 15 -30 10 -11

-9z"/>

<path d="M11731 6136 c-15 -9 -20 -16 -12 -20 6 -4 23 2 37 13 30 23 12 28

-25 7z"/>

<path d="M6690 6106 c0 -37 23 -106 35 -106 28 0 45 13 45 34 -1 26 -16 47

-52 70 -26 17 -28 17 -28 2z"/>

<path d="M8986 6095 c-3 -8 -14 -15 -25 -15 -25 0 -48 -37 -32 -53 16 -16 13

-37 -5 -37 -11 0 -14 -5 -10 -16 3 -9 6 -18 6 -21 0 -3 6 0 14 6 10 8 16 8 23

-1 15 -19 43 -147 43 -195 0 -45 16 -59 24 -20 14 69 17 84 20 107 2 14 6 40

10 57 9 40 0 73 -20 73 -13 0 -12 6 5 34 22 34 28 66 13 66 -5 0 -22 -14 -37

-32 -32 -35 -47 -23 -21 17 9 13 16 29 16 35 0 15 -17 12 -24 -5z"/>

<path d="M11168 6086 c-32 -11 -31 -5 -14 -111 8 -44 10 -87 6 -95 -5 -8 -4

-22 1 -32 6 -12 6 -25 -2 -40 -10 -18 -8 -24 7 -35 14 -10 18 -25 17 -70 -1

-32 2 -62 7 -68 12 -14 29 -146 23 -177 -4 -20 0 -29 16 -37 22 -12 29 -55 12

-66 -9 -5 -5 -64 6 -95 3 -8 6 -26 7 -39 1 -32 22 -38 32 -9 11 32 7 134 -6

157 -5 11 -10 33 -10 49 0 18 -6 32 -16 36 -12 4 -14 14 -9 36 4 17 2 36 -3

43 -6 7 -13 48 -16 92 -3 44 -10 96 -16 115 -6 19 -13 76 -17 127 -5 77 -3 96

11 118 9 14 14 31 9 37 -4 7 -9 26 -12 43 -6 29 -8 30 -33 21z"/>

<path d="M11666 6084 c-11 -7 -16 -17 -13 -21 4 -4 15 1 24 10 22 21 14 30

-11 11z"/>

<path d="M3735 6020 c3 -5 8 -10 11 -10 2 0 4 5 4 10 0 6 -5 10 -11 10 -5 0

-7 -4 -4 -10z"/>

<path d="M3723 5983 c-26 -18 -30 -33 -8 -33 8 0 15 6 15 14 0 8 8 16 18 18 9

2 13 6 7 10 -5 3 -20 -1 -32 -9z"/>

<path d="M6520 5961 c0 -5 8 -17 17 -27 20 -20 32 -1 13 21 -14 17 -30 20 -30

6z"/>

<path d="M6552 5845 c-1 -28 3 -47 11 -52 7 -4 21 -37 32 -73 10 -36 31 -91

46 -123 16 -31 28 -61 26 -66 -4 -15 43 -71 59 -71 15 0 15 2 0 25 -9 13 -16

33 -16 43 0 33 -40 143 -81 223 -10 20 -24 59 -30 87 -8 38 -15 52 -27 52 -13

0 -18 -11 -20 -45z"/>

<path d="M8927 5883 c-4 -3 -7 -53 -7 -109 0 -57 -4 -113 -9 -126 -5 -13 -22

-56 -36 -95 -20 -55 -31 -73 -45 -73 -15 0 -20 -10 -25 -47 -19 -145 -50 -224

-119 -305 -37 -42 -76 -134 -76 -177 0 -30 13 -50 50 -75 40 -26 56 -20 69 27

7 23 18 51 24 62 12 22 43 125 57 190 5 22 20 70 33 106 13 37 27 83 31 104 7

35 25 80 79 195 23 49 28 107 10 118 -8 5 -8 21 -3 52 13 65 12 134 -2 148

-14 14 -22 15 -31 5z"/>

<path d="M8189 5823 c-8 -8 -12 -26 -11 -38 2 -13 -2 -26 -7 -30 -6 -3 -11

-11 -11 -17 0 -20 41 32 50 62 10 34 -2 47 -21 23z"/>

<path d="M8851 5813 c-14 -35 -8 -74 10 -56 6 6 9 28 7 49 l-3 39 -14 -32z"/>

<path d="M5763 5783 c-13 -34 -65 -104 -88 -119 -37 -24 -133 -43 -268 -52

-73 -5 -133 -14 -139 -20 -25 -25 303 -7 382 21 47 16 107 73 115 108 4 16 11

31 16 34 12 8 11 45 -1 45 -6 0 -14 -8 -17 -17z"/>

<path d="M8858 5728 c-9 -7 -19 -35 -22 -63 -18 -150 -19 -160 -6 -149 13 13

30 70 37 129 3 22 9 44 14 50 11 11 12 45 1 45 -5 0 -15 -6 -24 -12z"/>

<path d="M3756 5711 c-4 -5 -2 -12 3 -15 5 -4 12 -2 15 3 4 5 2 12 -3 15 -5 4

-12 2 -15 -3z"/>

<path d="M3598 5578 c-6 -17 1 -38 13 -38 5 0 9 11 9 25 0 26 -14 34 -22 13z"/>

<path d="M3721 5554 c0 -11 3 -14 6 -6 3 7 2 16 -1 19 -3 4 -6 -2 -5 -13z"/>

<path d="M8721 5547 c-11 -13 -21 -35 -21 -48 0 -14 -9 -54 -21 -89 -20 -63

-33 -120 -46 -207 -8 -58 16 -58 50 0 38 64 91 347 68 362 -5 2 -18 -6 -30

-18z"/>

<path d="M3075 5500 c3 -5 8 -10 11 -10 2 0 4 5 4 10 0 6 -5 10 -11 10 -5 0

-7 -4 -4 -10z"/>

<path d="M3760 5482 c0 -9 9 -23 19 -29 18 -11 18 -10 4 18 -17 33 -23 37 -23

11z"/>

<path d="M8370 5470 c0 -5 5 -10 10 -10 6 0 10 5 10 10 0 6 -4 10 -10 10 -5 0

-10 -4 -10 -10z"/>

<path d="M7200 5450 c0 -5 5 -10 10 -10 6 0 10 5 10 10 0 6 -4 10 -10 10 -5 0

-10 -4 -10 -10z"/>

<path d="M3170 5385 c0 -8 16 -19 38 -25 35 -11 37 -14 40 -58 5 -72 22 -76

22 -5 0 43 -5 64 -16 74 -13 10 -17 10 -24 -1 -6 -10 -11 -8 -21 9 -16 24 -39

28 -39 6z"/>

<path d="M3770 5391 c0 -13 26 -32 33 -24 14 13 6 33 -13 33 -11 0 -20 -4 -20

-9z"/>

<path d="M3700 5246 c0 -15 28 -86 34 -86 2 0 3 7 2 17 0 10 9 19 26 23 22 7

27 4 32 -13 4 -18 8 -19 18 -9 28 28 -48 76 -79 50 -10 -8 -13 -6 -13 11 0 11

-4 21 -10 21 -5 0 -10 -6 -10 -14z"/>

<path d="M7000 5124 c0 -65 6 -91 36 -168 67 -170 67 -262 -2 -392 -19 -35

-34 -66 -34 -68 0 -3 13 2 29 10 16 8 34 28 39 44 6 15 22 36 36 45 14 9 28

31 31 48 4 18 14 40 23 50 13 15 14 23 4 51 -7 18 -9 47 -6 64 4 22 1 36 -10

47 -9 9 -16 30 -16 47 0 17 -7 39 -15 48 -13 15 -33 83 -38 135 -2 11 -8 30

-14 41 -7 12 -9 24 -6 28 9 8 -27 46 -44 46 -10 0 -13 -19 -13 -76z"/>

<path d="M11261 5171 c-10 -6 -11 -13 -2 -29 8 -14 8 -23 1 -27 -14 -9 7 -35

27 -35 11 0 13 5 7 18 -4 9 -7 32 -7 50 2 33 -3 37 -26 23z"/>

<path d="M3740 5126 c0 -27 16 -43 23 -24 2 7 8 -17 12 -54 7 -65 25 -95 25

-43 0 16 6 25 16 25 13 0 14 -3 4 -15 -7 -8 -9 -22 -6 -31 12 -32 36 5 36 57

0 44 -13 66 -22 38 -2 -5 -11 -7 -21 -3 -12 4 -16 13 -11 26 4 13 -1 24 -13

33 -27 21 -43 18 -43 -9z"/>

<path d="M11274 4973 c2 -38 7 -76 11 -86 4 -9 5 -30 2 -45 -3 -17 1 -34 11

-45 13 -15 14 -22 4 -38 -7 -11 -10 -25 -6 -31 4 -6 9 -25 11 -42 3 -31 37

-75 49 -64 3 4 1 42 -6 85 -7 43 -16 114 -20 158 -5 44 -11 91 -13 105 -3 14

-6 35 -6 48 -1 15 -7 22 -22 22 -19 0 -20 -5 -15 -67z"/>

<path d="M8290 4885 c0 -14 5 -25 10 -25 6 0 10 11 10 25 0 14 -4 25 -10 25

-5 0 -10 -11 -10 -25z"/>

<path d="M7712 4863 c-18 -20 -21 -28 -11 -39 16 -20 29 -17 29 6 0 11 5 20

10 20 6 0 10 9 10 20 0 26 -9 24 -38 -7z"/>

<path d="M8623 4783 c-17 -6 -16 -30 4 -89 20 -60 41 -84 54 -63 15 25 10 80

-13 120 -22 40 -24 41 -45 32z"/>

<path d="M6692 4580 c-43 -26 -48 -44 -23 -69 26 -26 31 -26 31 -1 0 20 0 20

42 -1 41 -21 43 -21 75 -3 38 20 39 39 3 66 -40 29 -89 32 -128 8z"/>

<path d="M8448 4487 c-41 -123 -47 -164 -22 -174 26 -10 40 13 24 42 -16 29

-7 43 15 25 18 -15 20 -64 2 -78 -11 -9 -11 -27 -1 -99 7 -48 13 -114 13 -146

1 -49 4 -60 20 -64 28 -7 61 -89 64 -158 2 -58 1 -60 -23 -60 -24 0 -25 -2

-23 -68 1 -57 5 -73 28 -103 19 -24 24 -39 17 -46 -11 -11 6 -74 34 -131 8

-16 14 -52 14 -80 0 -53 17 -120 50 -192 20 -45 27 -73 40 -158 9 -67 39 -108

72 -99 14 3 16 7 7 12 -9 6 -6 16 11 39 21 31 21 34 7 79 -8 26 -13 62 -10 80

5 31 4 32 -30 32 -20 0 -39 -5 -43 -12 -11 -17 -25 29 -18 58 4 15 13 24 25

24 10 0 19 4 19 9 0 5 8 8 17 7 14 -1 18 8 20 36 1 21 -2 40 -7 43 -11 6 -51

-12 -61 -28 -14 -20 -39 2 -39 33 0 41 16 70 40 70 10 0 22 5 25 10 4 6 11 8

16 4 19 -11 37 16 30 44 -9 35 -61 46 -61 13 0 -30 -20 -36 -43 -13 -15 16

-21 35 -22 74 0 29 -4 59 -9 66 -4 7 -5 26 -1 42 8 36 -23 310 -37 328 -6 7

-8 31 -5 55 6 46 -8 184 -24 235 -8 24 -16 32 -34 32 -28 0 -43 18 -21 26 8 3

15 13 15 22 0 9 5 56 12 104 10 79 9 92 -7 133 -14 32 -25 45 -39 45 -17 0

-26 -19 -57 -113z"/>

<path d="M11327 4593 c-3 -5 -1 -44 3 -88 4 -44 6 -83 4 -86 -2 -4 -1 -21 2

-38 5 -23 12 -31 28 -31 21 0 21 -1 -3 -19 -20 -15 -22 -23 -16 -52 4 -19 10

-38 13 -44 3 -5 5 -25 3 -44 -2 -20 3 -37 11 -42 8 -5 13 -29 13 -68 0 -33 4

-63 8 -67 4 -4 7 -16 7 -27 0 -11 8 -26 18 -33 16 -12 16 -13 -4 -14 -31 0

-36 -11 -19 -37 12 -18 14 -31 6 -59 -13 -46 -2 -74 46 -113 35 -29 60 -41 49

-23 -13 21 -37 165 -42 247 -3 50 -9 99 -14 110 -5 11 -11 58 -14 105 -6 106

-15 161 -29 178 -6 8 -10 34 -8 58 1 24 -3 78 -10 119 -10 61 -15 75 -30 75

-10 0 -20 -3 -22 -7z"/>

<path d="M3942 4535 c-7 -8 -22 -15 -32 -15 -11 0 -20 -4 -20 -10 0 -5 14 -10

30 -10 17 0 30 -4 30 -10 0 -5 7 -10 16 -10 11 0 14 5 10 16 -3 9 -6 24 -6 35

0 22 -10 24 -28 4z"/>

<path d="M5936 4525 c4 -8 15 -15 25 -15 23 0 25 16 3 24 -25 10 -34 7 -28 -9z"/>

<path d="M8776 4523 c-2 -10 -7 -33 -11 -51 -4 -18 -18 -53 -32 -77 -29 -53

-21 -61 55 -52 74 8 165 -9 234 -44 10 -5 28 -9 40 -9 13 0 54 -16 92 -35 39

-19 78 -35 89 -35 10 0 43 -12 74 -26 60 -29 52 -29 263 1 91 13 167 15 360

11 135 -2 246 -5 248 -5 1 -1 2 -7 2 -15 0 -14 13 -18 145 -36 44 -6 98 -16

120 -21 82 -20 150 -41 160 -49 6 -4 41 -18 79 -30 92 -30 182 -73 231 -109

22 -17 57 -39 77 -50 20 -12 39 -25 43 -31 3 -5 31 -22 61 -36 29 -14 87 -52

126 -85 40 -32 76 -59 79 -59 20 0 114 -163 104 -180 -9 -14 26 -90 46 -100

23 -13 34 3 19 29 -12 23 -14 71 -2 71 16 0 52 -32 52 -46 0 -8 16 -22 36 -30

20 -8 56 -37 81 -65 40 -42 73 -62 73 -43 0 8 -40 65 -59 85 -9 9 -27 30 -40

47 -13 17 -39 40 -57 51 -18 11 -44 38 -59 60 -14 23 -40 47 -58 55 -17 7 -49

30 -71 50 -21 20 -42 36 -47 36 -4 0 -11 9 -14 20 -4 11 -23 29 -43 39 -20 11

-50 33 -66 50 -17 17 -35 31 -42 31 -7 0 -34 20 -60 45 -27 24 -62 50 -79 56

-16 7 -47 28 -68 46 -20 18 -42 33 -48 33 -12 0 -64 25 -131 63 -26 15 -60 27

-76 27 -16 0 -49 11 -74 24 -25 13 -60 27 -79 31 -19 4 -45 13 -59 20 -55 29

-95 38 -158 37 -68 -1 -94 7 -125 39 -21 23 -55 24 -81 4 -29 -22 -63 -19 -77

7 -10 18 -8 24 11 40 l22 18 -37 0 c-25 0 -53 -11 -92 -37 l-55 -36 -71 11

c-45 7 -77 7 -88 1 -10 -5 -48 -9 -86 -9 -39 -1 -75 -6 -85 -13 -11 -9 -41

-12 -90 -10 -40 2 -96 4 -123 3 -39 0 -59 6 -85 25 -22 16 -47 25 -72 25 -28

0 -44 7 -63 27 -14 15 -25 34 -25 42 0 10 -12 12 -52 9 -43 -5 -59 -2 -85 17

-34 22 -34 35 -1 35 10 0 18 4 18 8 0 22 -30 40 -72 45 -32 3 -59 14 -86 36

-46 36 -49 37 -56 14z m1251 -219 c-3 -3 -12 -4 -19 -1 -8 3 -5 6 6 6 11 1 17

-2 13 -5z"/>

<path d="M5961 4474 c0 -11 3 -14 6 -6 3 7 2 16 -1 19 -3 4 -6 -2 -5 -13z"/>

<path d="M6580 4479 c0 -5 5 -7 10 -4 6 3 10 8 10 11 0 2 -4 4 -10 4 -5 0 -10

-5 -10 -11z"/>

<path d="M6025 4460 c-3 -5 1 -10 9 -10 9 0 16 5 16 10 0 6 -4 10 -9 10 -6 0

-13 -4 -16 -10z"/>

<path d="M6542 4438 c-6 -16 -18 -28 -26 -28 -7 0 -19 -7 -27 -16 -10 -13 -10

-17 2 -25 8 -5 19 -9 24 -9 6 0 3 5 -5 10 -13 8 -12 11 5 24 11 8 30 12 43 9

13 -3 22 -1 22 6 0 6 -4 11 -9 11 -5 0 -11 10 -14 23 -3 21 -4 21 -15 -5z"/>

<path d="M6054 4414 c-4 -10 -12 -22 -18 -26 -8 -5 -8 -8 0 -8 5 0 19 6 30 14

15 12 16 17 7 27 -10 10 -14 8 -19 -7z"/>

<path d="M4187 4323 c-12 -11 -8 -23 8 -23 8 0 15 7 15 15 0 16 -12 20 -23 8z"/>

<path d="M9645 4320 c-4 -6 7 -10 24 -10 17 0 31 5 31 10 0 6 -11 10 -24 10

-14 0 -28 -4 -31 -10z"/>

<path d="M9325 4310 c-3 -5 -1 -10 4 -10 6 0 11 5 11 10 0 6 -2 10 -4 10 -3 0

-8 -4 -11 -10z"/>

<path d="M8784 4275 c-4 -8 -4 -41 0 -73 3 -31 7 -64 7 -72 2 -53 35 -180 46

-180 9 0 10 -6 3 -24 -12 -32 -2 -66 20 -66 29 0 34 36 11 76 -19 32 -20 37

-6 64 17 33 20 126 5 135 -5 3 -10 21 -10 38 0 34 -37 108 -57 115 -7 2 -16

-4 -19 -13z"/>

<path d="M6780 4261 c0 -6 4 -13 10 -16 6 -3 7 1 4 9 -7 18 -14 21 -14 7z"/>

<path d="M6840 4260 c0 -5 5 -10 11 -10 5 0 7 5 4 10 -3 6 -8 10 -11 10 -2 0

-4 -4 -4 -10z"/>

<path d="M10488 4232 c-10 -2 -18 -8 -18 -13 0 -12 57 -12 64 0 7 10 -22 19

-46 13z"/>

<path d="M8335 4118 c-16 -57 -34 -107 -40 -113 -7 -5 -22 -39 -35 -75 -22

-62 -53 -131 -78 -175 -6 -11 -21 -42 -33 -70 -12 -27 -24 -52 -28 -55 -3 -3

-15 -23 -26 -45 -11 -22 -30 -53 -42 -68 -13 -16 -23 -39 -23 -52 0 -13 -10

-30 -26 -40 -14 -9 -23 -22 -21 -30 3 -7 -6 -23 -20 -36 -34 -32 -52 -77 -46

-113 5 -27 8 -28 44 -22 34 6 39 4 39 -14 0 -15 -7 -20 -27 -21 -16 -1 -35 -2

-43 -3 -8 0 -19 -15 -24 -32 -5 -17 -18 -36 -28 -43 -16 -10 -18 -7 -18 29 0

53 -13 51 -35 -7 -10 -27 -22 -53 -26 -59 -5 -6 -5 -14 -1 -18 4 -4 7 -24 7

-43 0 -45 20 -54 28 -13 4 18 13 30 22 30 9 0 18 7 21 15 4 8 10 15 15 15 17

0 88 55 100 78 7 12 19 20 26 18 8 -3 15 5 19 20 4 17 15 27 35 31 16 3 29 9

29 13 0 5 3 16 7 25 5 14 2 16 -18 10 -13 -4 -29 -14 -36 -22 -10 -12 -12 -11

-18 7 -7 23 17 69 38 71 6 1 23 2 37 2 19 2 26 9 31 37 6 26 4 37 -7 43 -8 4

-14 18 -14 31 0 23 47 97 80 126 10 8 21 30 24 47 4 18 12 36 18 39 5 4 17 22

24 41 12 28 18 32 29 23 11 -9 21 -9 45 1 32 15 44 47 13 34 -52 -20 -74 13

-33 50 11 10 20 28 20 39 0 17 2 18 10 6 9 -13 11 -13 20 0 5 8 10 24 10 34 0

11 5 34 12 52 9 26 8 39 -5 73 -12 29 -14 47 -7 65 12 33 8 158 -6 163 -6 2

-23 -41 -39 -99z m-13 -203 c-2 -25 -8 -45 -12 -45 -14 0 -21 50 -10 70 17 32

25 23 22 -25z"/>

<path d="M6570 4185 c0 -16 27 -32 37 -21 7 7 -16 36 -28 36 -5 0 -9 -7 -9

-15z"/>

<path d="M6920 4060 c0 -5 5 -10 10 -10 6 0 10 5 10 10 0 6 -4 10 -10 10 -5 0

-10 -4 -10 -10z"/>

<path d="M6850 4021 c0 -5 5 -13 10 -16 6 -3 10 -2 10 4 0 5 -4 13 -10 16 -5

3 -10 2 -10 -4z"/>

<path d="M10366 3995 c-9 -25 -9 -25 25 -25 24 0 30 4 27 18 -4 23 -44 28 -52

7z"/>

<path d="M9310 3980 c0 -5 5 -10 10 -10 6 0 10 5 10 10 0 6 -4 10 -10 10 -5 0

-10 -4 -10 -10z"/>

<path d="M8709 3957 c-4 -6 -4 -57 -1 -57 6 0 31 33 32 41 0 6 -28 21 -31 16z"/>

<path d="M10390 3930 c0 -5 5 -10 10 -10 6 0 10 5 10 10 0 6 -4 10 -10 10 -5

0 -10 -4 -10 -10z"/>

<path d="M6801 3914 c0 -11 3 -14 6 -6 3 7 2 16 -1 19 -3 4 -6 -2 -5 -13z"/>

<path d="M6903 3903 c-15 -5 -17 -23 -4 -23 5 0 11 7 15 15 3 8 4 15 3 14 -1

0 -8 -3 -14 -6z"/>

<path d="M7375 3890 c3 -5 8 -10 11 -10 2 0 4 5 4 10 0 6 -5 10 -11 10 -5 0

-7 -4 -4 -10z"/>

<path d="M10588 3893 c-16 -2 -28 -8 -28 -12 0 -23 38 -34 128 -38 53 -3 114

-11 135 -19 40 -15 87 -19 87 -6 0 30 -243 87 -322 75z"/>

<path d="M8730 3881 c0 -5 5 -13 10 -16 6 -3 10 -2 10 4 0 5 -4 13 -10 16 -5

3 -10 2 -10 -4z"/>

<path d="M6197 3873 c-12 -12 -7 -63 6 -63 17 0 38 36 31 55 -6 16 -26 20 -37

8z"/>

<path d="M10390 3865 c-14 -8 -42 -21 -62 -31 -21 -9 -35 -20 -32 -26 3 -5 12

-7 19 -4 7 2 21 -1 30 -8 19 -13 36 -7 115 42 19 12 43 19 52 16 10 -3 18 -1

18 5 0 16 -21 24 -33 12 -14 -14 -54 -14 -62 -1 -8 13 -15 12 -45 -5z"/>

<path d="M9875 3840 c-3 -5 -21 -10 -40 -10 -19 0 -37 -4 -40 -10 -3 -5 -20

-10 -36 -10 -17 0 -32 -6 -35 -15 -3 -8 -22 -24 -42 -36 -21 -12 -53 -37 -72

-55 -19 -18 -55 -42 -80 -53 -25 -11 -56 -32 -68 -46 -21 -22 -22 -26 -7 -31

25 -10 93 16 110 42 8 13 38 46 66 73 72 70 231 125 265 91 7 -7 17 -5 30 5

10 8 14 15 7 15 -7 0 -13 8 -13 18 1 14 4 13 21 -7 34 -41 59 -50 94 -33 17 9

24 17 18 19 -7 3 -13 11 -13 19 0 10 -13 14 -49 14 -28 0 -53 5 -56 10 -3 6

-17 10 -30 10 -13 0 -27 -4 -30 -10z"/>

<path d="M4142 3828 c-7 -7 -12 -19 -12 -28 0 -9 -3 -20 -7 -24 -14 -14 -12

-84 3 -90 8 -3 14 -16 14 -29 0 -25 22 -49 53 -60 10 -4 16 -11 12 -16 -3 -5

-7 -31 -10 -58 -2 -26 -7 -58 -11 -70 -9 -32 24 -31 36 1 6 16 20 27 40 31 24

5 30 11 24 23 -4 10 -9 32 -12 50 -3 26 -8 31 -22 27 -14 -5 -17 1 -17 35 0

23 -10 60 -21 83 -12 23 -25 62 -29 86 -9 47 -21 59 -41 39z"/>

<path d="M10073 3829 c-16 -16 1 -49 25 -49 17 0 58 38 49 46 -11 12 -63 14

-74 3z"/>

<path d="M8852 3806 c2 -15 8 -26 13 -26 15 0 12 43 -3 48 -10 3 -13 -4 -10

-22z"/>

<path d="M6575 3800 c3 -5 8 -10 11 -10 2 0 4 5 4 10 0 6 -5 10 -11 10 -5 0

-7 -4 -4 -10z"/>

<path d="M7050 3800 c0 -5 5 -10 10 -10 6 0 10 5 10 10 0 6 -4 10 -10 10 -5 0

-10 -4 -10 -10z"/>

<path d="M6203 3793 c-14 -5 -18 -33 -5 -33 10 0 32 22 32 32 0 9 -8 9 -27 1z"/>

<path d="M10765 3740 c-3 -6 1 -17 9 -26 9 -8 20 -22 24 -31 6 -10 23 -15 52

-15 50 1 70 15 54 39 -20 31 -125 56 -139 33z"/>

<path d="M10991 3718 c14 -49 52 -82 94 -82 19 0 35 -3 35 -8 0 -4 18 -13 39

-19 22 -6 55 -27 73 -45 36 -36 68 -43 88 -19 11 13 9 20 -10 40 -13 14 -28

25 -34 24 -38 -4 -56 2 -56 21 0 18 -7 20 -55 20 -42 0 -57 4 -62 16 -11 28

-77 83 -100 84 -20 0 -21 -3 -12 -32z"/>

<path d="M4003 3733 c-18 -7 -16 -23 2 -23 8 0 15 7 15 15 0 8 -1 15 -2 14 -2

0 -9 -3 -15 -6z"/>

<path d="M3765 3722 c-11 -4 -31 -15 -44 -24 -20 -14 -22 -20 -11 -33 17 -21

23 -19 60 15 18 16 46 34 64 39 l31 9 -40 0 c-22 0 -49 -3 -60 -6z"/>

<path d="M5245 3710 c-3 -5 -2 -10 4 -10 5 0 13 5 16 10 3 6 2 10 -4 10 -5 0

-13 -4 -16 -10z"/>

<path d="M10400 3705 c-7 -9 -10 -18 -7 -21 10 -11 37 5 37 21 0 19 -14 19

-30 0z"/>

<path d="M9888 3676 c-17 -12 -17 -16 -2 -45 18 -37 42 -40 72 -8 28 30 28 33

-8 52 -35 18 -40 18 -62 1z"/>

<path d="M3635 3639 c-4 -6 -5 -13 -2 -16 7 -7 27 6 27 18 0 12 -17 12 -25 -2z"/>

<path d="M8870 3634 c0 -8 5 -12 10 -9 6 4 8 11 5 16 -9 14 -15 11 -15 -7z"/>

<path d="M9670 3632 c-14 -9 -26 -20 -28 -24 -2 -5 -10 -8 -18 -8 -8 0 -14 -4

-14 -10 0 -5 7 -10 15 -10 8 0 15 4 15 8 0 5 18 14 40 21 23 7 40 18 40 26 0

19 -19 18 -50 -3z"/>

<path d="M5092 3620 c-7 -11 -10 -20 -8 -20 13 0 56 24 56 32 0 16 -35 8 -48

-12z"/>

<path d="M9860 3624 c0 -8 5 -12 10 -9 6 3 10 10 10 16 0 5 -4 9 -10 9 -5 0

-10 -7 -10 -16z"/>

<path d="M8371 3614 c-19 -8 -31 -17 -28 -21 4 -3 2 -12 -4 -19 -17 -20 33

-47 71 -39 26 6 29 10 24 31 -5 18 -2 24 10 24 24 0 19 15 -9 28 -14 7 -27 12

-28 12 -1 -1 -17 -7 -36 -16z"/>

<path d="M3975 3609 c-4 -6 -5 -13 -2 -16 7 -7 27 6 27 18 0 12 -17 12 -25 -2z"/>

<path d="M10805 3601 c-26 -4 -40 -11 -40 -21 0 -8 5 -14 12 -13 6 1 14 -4 17

-12 4 -11 -2 -15 -22 -15 -39 0 -50 -11 -57 -55 -7 -51 13 -80 47 -69 35 11

71 12 96 1 33 -15 45 3 47 72 2 62 -23 123 -48 120 -7 -1 -30 -5 -52 -8z"/>

<path d="M9330 3570 c-14 -11 -36 -20 -50 -20 -24 0 -50 -16 -50 -30 0 -13 47

-28 60 -20 7 4 19 6 27 3 7 -3 13 0 13 6 0 6 10 11 23 11 42 0 66 50 31 64

-23 9 -26 8 -54 -14z"/>

<path d="M10600 3580 c0 -5 5 -10 10 -10 6 0 10 5 10 10 0 6 -4 10 -10 10 -5

0 -10 -4 -10 -10z"/>

<path d="M11026 3568 c3 -13 13 -30 21 -39 15 -18 91 -41 105 -33 8 5 -12 44

-24 44 -4 0 -24 11 -44 25 -47 32 -68 33 -58 3z"/>

<path d="M12405 3573 c4 -10 7 -28 6 -40 -1 -35 26 -28 34 8 7 32 -4 49 -34

49 -9 0 -11 -6 -6 -17z"/>

<path d="M10503 3559 c4 -13 7 -27 7 -31 0 -5 6 -8 14 -8 21 0 15 40 -8 52

-17 9 -18 8 -13 -13z"/>

<path d="M3480 3560 c0 -13 11 -13 30 0 12 8 11 10 -7 10 -13 0 -23 -4 -23

-10z"/>

<path d="M12230 3550 c-8 -5 -12 -12 -8 -15 9 -9 48 4 48 16 0 12 -21 11 -40

-1z"/>

<path d="M4885 3539 c-10 -15 1 -23 20 -15 9 3 13 10 10 16 -8 13 -22 13 -30

-1z"/>

<path d="M4565 3529 c-10 -15 3 -25 16 -12 7 7 7 13 1 17 -6 3 -14 1 -17 -5z"/>

<path d="M7100 3503 c1 -27 1 -27 15 -9 19 25 19 36 0 36 -10 0 -15 -10 -15

-27z"/>

<path d="M12077 3507 c-22 -12 -36 -26 -33 -34 3 -7 1 -13 -4 -13 -6 0 -10

-16 -10 -35 0 -27 4 -35 18 -35 27 0 31 8 22 40 -8 26 -6 29 21 35 16 4 34 3

40 -1 14 -8 5 -87 -10 -92 -14 -5 -4 -22 13 -22 7 0 17 15 22 33 8 26 16 33

44 38 19 4 29 7 23 8 -7 0 -27 10 -45 21 l-32 19 28 11 c18 6 26 16 24 28 -5

26 -74 26 -121 -1z"/>

<path d="M9900 3494 c0 -16 5 -24 13 -22 18 7 20 35 2 41 -11 5 -15 0 -15 -19z"/>

<path d="M12240 3499 c0 -5 5 -7 10 -4 6 3 10 8 10 11 0 2 -4 4 -10 4 -5 0

-10 -5 -10 -11z"/>

<path d="M3916 3487 c-11 -8 -20 -31 -23 -60 -3 -26 -11 -48 -17 -49 -6 0 -16

-2 -23 -2 -6 -1 -20 -9 -31 -19 -12 -11 -22 -14 -26 -8 -7 10 -66 -18 -66 -31

0 -5 -9 -17 -20 -28 -20 -20 -28 -70 -10 -70 5 0 30 7 56 16 43 14 47 14 65

-2 11 -9 20 -15 22 -13 1 2 18 42 36 89 19 47 37 87 40 90 8 6 31 73 31 88 0

16 -12 15 -34 -1z"/>

<path d="M10423 3489 c-26 -8 -33 -15 -33 -34 0 -16 6 -25 15 -25 8 0 15 9 15

20 0 11 4 20 8 20 5 0 17 7 28 15 22 16 13 17 -33 4z"/>

<path d="M11233 3493 c-12 -2 -27 -11 -34 -19 -10 -12 -8 -20 13 -40 25 -25

93 -41 103 -23 3 4 12 6 20 2 12 -4 13 0 6 18 -4 13 -18 25 -30 27 -11 2 -26

12 -31 23 -6 10 -14 18 -18 18 -4 -1 -17 -4 -29 -6z"/>

<path d="M11798 3489 c-27 -15 -22 -37 7 -35 25 1 40 20 29 37 -7 11 -15 11

-36 -2z"/>

<path d="M12496 3492 c-11 -11 -6 -23 20 -47 32 -29 46 -32 37 -7 -8 22 -50

62 -57 54z"/>

<path d="M7302 3470 c0 -14 2 -19 5 -12 2 6 2 18 0 25 -3 6 -5 1 -5 -13z"/>

<path d="M11700 3473 c0 -19 38 -88 45 -81 2 2 -3 25 -12 51 -15 47 -33 63

-33 30z"/>

<path d="M11910 3480 c0 -5 5 -10 10 -10 6 0 10 5 10 10 0 6 -4 10 -10 10 -5

0 -10 -4 -10 -10z"/>

<path d="M9090 3460 c0 -5 5 -10 10 -10 6 0 10 5 10 10 0 6 -4 10 -10 10 -5 0

-10 -4 -10 -10z"/>

<path d="M4056 3452 c-6 -10 33 -46 42 -37 8 7 -10 37 -25 42 -6 2 -14 0 -17

-5z"/>

<path d="M8861 3447 c-19 -19 -10 -94 10 -81 6 3 16 1 23 -5 33 -27 53 38 24

75 -13 17 -45 23 -57 11z"/>

<path d="M9135 3450 c-5 -8 -21 -10 -40 -7 -27 4 -34 2 -38 -14 -3 -12 -17

-22 -36 -25 -17 -4 -31 -10 -31 -15 0 -15 97 -10 112 5 30 32 49 58 45 63 -3

2 -8 -1 -12 -7z"/>

<path d="M9460 3449 c0 -5 5 -7 10 -4 6 3 10 8 10 11 0 2 -4 4 -10 4 -5 0 -10

-5 -10 -11z"/>

<path d="M12290 3435 c-11 -13 -8 -15 24 -15 20 0 36 5 36 10 0 6 -4 10 -9 10

-5 0 -16 2 -24 5 -7 3 -20 -1 -27 -10z"/>

<path d="M3758 3429 c-10 -5 -15 -16 -11 -24 3 -9 0 -22 -7 -30 -16 -19 -4

-33 12 -17 7 7 20 12 30 12 10 0 18 7 18 15 0 9 -9 15 -21 15 -19 0 -19 1 -5

16 26 25 17 33 -16 13z"/>

<path d="M7100 3407 c0 -10 13 -32 29 -48 17 -16 36 -45 42 -64 14 -39 24 -43

38 -17 6 11 4 31 -6 60 -10 30 -11 47 -4 56 8 9 -3 14 -44 22 -51 9 -55 8 -55

-9z"/>

<path d="M9902 3417 c-13 -15 -5 -57 10 -57 6 0 8 -9 5 -20 -6 -24 6 -26 24

-3 11 13 11 17 2 20 -7 3 -13 20 -13 39 0 36 -10 43 -28 21z"/>

<path d="M12398 3423 c7 -3 16 -2 19 1 4 3 -2 6 -13 5 -11 0 -14 -3 -6 -6z"/>

<path d="M4170 3405 c0 -8 5 -15 10 -15 6 0 10 7 10 15 0 8 -4 15 -10 15 -5 0

-10 -7 -10 -15z"/>

<path d="M9350 3400 c0 -11 6 -20 13 -20 8 0 22 9 32 20 18 20 17 20 -13 20

-25 0 -32 -4 -32 -20z"/>

<path d="M11772 3394 c-9 -19 -7 -27 17 -53 16 -17 39 -31 51 -31 14 0 40 -18

67 -45 24 -25 49 -45 57 -45 7 0 14 -12 14 -27 3 -46 8 -87 15 -103 3 -8 16

-44 28 -80 12 -36 25 -69 30 -74 5 -6 9 -17 9 -26 0 -9 13 -43 28 -76 74 -154

91 -196 122 -294 18 -58 40 -123 50 -145 10 -22 32 -85 49 -140 18 -55 41

-125 53 -155 11 -30 25 -68 30 -83 12 -31 52 -55 143 -83 33 -10 69 -26 79

-36 11 -10 26 -18 33 -18 8 0 25 -7 38 -16 15 -10 29 -13 39 -7 13 7 9 12 -17

25 -64 32 -124 58 -133 58 -6 0 -17 11 -24 25 -7 14 -17 25 -22 25 -4 0 -8 7

-8 16 0 9 -11 29 -25 46 -14 16 -25 35 -25 42 0 6 -5 17 -11 23 -11 11 -29 56

-65 163 -8 25 -17 65 -20 89 -2 25 -8 49 -13 55 -15 20 -22 66 -11 86 14 27

-6 37 -31 14 -27 -24 -40 -9 -54 63 -11 53 -14 58 -37 56 -24 -1 -26 1 -26 48

0 27 4 52 9 55 11 7 12 74 1 74 -4 0 -13 -5 -19 -11 -8 -8 -13 -5 -18 12 -4

13 -15 32 -23 42 -15 17 -15 20 8 38 l25 19 -22 6 c-23 6 -37 29 -27 45 10 17

-7 49 -26 49 -10 0 -27 15 -39 33 l-21 32 30 13 c17 6 30 17 30 22 0 20 -31

22 -51 4 -20 -18 -20 -18 -14 6 3 16 -2 39 -14 63 -10 20 -14 37 -9 37 5 0 8

6 5 13 -2 6 -15 12 -28 12 -33 0 -39 48 -10 73 18 15 19 19 7 35 -22 28 -60

19 -64 -15 -4 -32 -7 -33 -45 -15 -27 12 -35 31 -17 42 6 3 10 14 10 24 0 14

-9 17 -49 18 -42 1 -50 -3 -59 -23z m328 -408 c0 -3 -4 -8 -10 -11 -5 -3 -10

-1 -10 4 0 6 5 11 10 11 6 0 10 -2 10 -4z"/>

<path d="M9580 3390 c-27 -20 -22 -37 7 -25 10 5 26 7 36 6 22 -3 22 16 -1 28

-13 7 -24 4 -42 -9z"/>

<path d="M11535 3402 c-11 -11 -4 -58 13 -79 9 -12 34 -28 56 -37 76 -31 75

-17 -4 61 -33 33 -62 58 -65 55z"/>

<path d="M12000 3400 c0 -5 5 -10 10 -10 6 0 10 5 10 10 0 6 -4 10 -10 10 -5

0 -10 -4 -10 -10z"/>

<path d="M12240 3379 c0 -18 2 -19 15 -9 15 12 12 30 -6 30 -5 0 -9 -10 -9

-21z"/>

<path d="M12422 3392 c-15 -10 27 -32 61 -32 l22 1 -24 19 c-25 22 -39 24 -59

12z"/>

<path d="M4151 3356 c-16 -19 -11 -29 8 -17 7 5 12 14 9 21 -3 9 -8 7 -17 -4z"/>

<path d="M11013 3358 c-13 -6 -23 -17 -23 -25 0 -21 31 -63 46 -63 14 0 54 34

54 46 0 6 -49 55 -53 53 -1 0 -12 -5 -24 -11z"/>

<path d="M10640 3344 c0 -8 5 -12 10 -9 6 3 10 10 10 16 0 5 -4 9 -10 9 -5 0

-10 -7 -10 -16z"/>

<path d="M9496 3321 c-14 -26 -14 -29 6 -38 17 -7 26 -5 40 9 24 24 23 33 -7

46 -22 10 -26 9 -39 -17z"/>

<path d="M4370 3321 c-27 -52 0 -118 44 -107 30 7 34 39 11 70 -8 11 -15 28

-15 38 0 24 -27 23 -40 -1z"/>

<path d="M6071 3331 c-7 -5 -12 -14 -10 -20 3 -6 9 -7 18 -2 7 5 12 14 10 20

-3 6 -9 7 -18 2z"/>

<path d="M12343 3333 c-20 -8 -15 -23 7 -23 11 0 20 7 20 15 0 15 -6 17 -27 8z"/>

<path d="M12700 3325 c0 -8 7 -15 15 -15 8 0 15 4 15 9 0 5 -7 11 -15 15 -9 3

-15 0 -15 -9z"/>

<path d="M11250 3312 c0 -12 9 -23 21 -27 37 -12 14 -30 -35 -27 -27 2 -46 -1

-46 -7 0 -6 -7 -11 -15 -11 -22 0 -18 -22 8 -46 30 -29 59 -36 90 -25 22 9 29

7 42 -12 12 -17 19 -20 33 -11 13 9 19 8 28 -4 6 -8 16 -12 22 -8 15 9 -3 51

-37 89 -22 24 -23 29 -11 37 12 8 11 11 -8 16 -18 5 -20 9 -10 15 19 12 -2 29

-45 36 -33 5 -37 3 -37 -15z"/>

<path d="M2933 3305 c-38 -16 -43 -40 -10 -49 23 -6 57 23 57 50 0 17 -6 17

-47 -1z"/>

<path d="M9133 3313 c-20 -7 -15 -20 9 -26 25 -7 44 13 25 25 -13 9 -16 9 -34

1z"/>

<path d="M11200 3305 c0 -16 16 -20 24 -6 3 5 -1 11 -9 15 -9 3 -15 0 -15 -9z"/>

<path d="M11475 3300 c3 -5 8 -10 11 -10 2 0 4 5 4 10 0 6 -5 10 -11 10 -5 0

-7 -4 -4 -10z"/>

<path d="M12540 3290 c0 -11 40 -34 47 -26 3 3 3 12 0 21 -7 16 -47 21 -47 5z"/>

<path d="M12200 3286 c0 -9 30 -14 35 -6 4 6 -3 10 -14 10 -12 0 -21 -2 -21

-4z"/>

<path d="M12737 3270 c3 -11 14 -20 24 -20 22 0 24 11 7 28 -19 19 -37 14 -31

-8z"/>

<path d="M8866 3264 c-3 -9 -1 -23 5 -30 16 -19 68 -18 76 2 7 20 -4 30 -43

38 -24 6 -33 3 -38 -10z"/>

<path d="M7356 3244 c-3 -9 -4 -20 0 -25 6 -10 34 14 34 30 0 17 -27 13 -34

-5z"/>

<path d="M9372 3232 c-19 -26 -32 -78 -22 -84 11 -6 48 29 63 59 9 17 20 33

24 35 5 3 3 3 -4 2 -7 -2 -15 1 -18 6 -10 17 -23 11 -43 -18z"/>

<path d="M12130 3250 c-12 -8 -11 -10 8 -10 12 0 22 5 22 10 0 13 -11 13 -30

0z"/>

<path d="M7277 3235 c-4 -8 -4 -29 0 -45 3 -17 0 -36 -6 -44 -9 -11 -9 -19 1

-35 16 -26 32 -22 36 10 2 13 8 34 14 47 10 19 9 28 -4 50 -20 32 -34 38 -41

17z"/>

<path d="M11790 3220 c10 -19 40 -28 40 -12 0 13 -23 32 -37 32 -11 0 -11 -5

-3 -20z"/>

<path d="M10610 3220 c0 -5 5 -10 11 -10 5 0 7 5 4 10 -3 6 -8 10 -11 10 -2 0

-4 -4 -4 -10z"/>

<path d="M6030 3205 c0 -8 5 -15 10 -15 6 0 10 7 10 15 0 8 -4 15 -10 15 -5 0

-10 -7 -10 -15z"/>

<path d="M10441 3204 c0 -11 3 -14 6 -6 3 7 2 16 -1 19 -3 4 -6 -2 -5 -13z"/>

<path d="M11630 3216 c0 -14 42 -46 61 -46 15 0 20 5 17 23 -2 18 -10 23 -40

25 -21 2 -38 1 -38 -2z"/>

<path d="M12590 3210 c0 -5 5 -10 10 -10 6 0 10 5 10 10 0 6 -4 10 -10 10 -5

0 -10 -4 -10 -10z"/>

<path d="M2915 3161 c-3 -5 -1 -12 5 -16 5 -3 10 1 10 9 0 18 -6 21 -15 7z"/>

<path d="M10433 3145 c-3 -9 -3 -18 0 -21 9 -9 27 6 27 22 0 19 -19 18 -27 -1z"/>

<path d="M3567 3143 c-13 -12 -7 -33 8 -33 8 0 15 9 15 20 0 20 -11 26 -23 13z"/>

<path d="M11757 3143 c-12 -12 -7 -22 13 -28 11 -4 40 -22 64 -40 24 -18 47

-31 50 -28 13 13 5 30 -30 66 -34 35 -79 49 -97 30z"/>

<path d="M4525 3113 c1 -16 6 -47 10 -70 7 -40 9 -41 27 -29 11 8 28 12 39 9

31 -9 23 20 -22 71 -47 53 -58 57 -54 19z"/>

<path d="M8890 3112 c0 -11 5 -24 10 -27 6 -4 9 2 7 14 -4 29 -17 39 -17 13z"/>

<path d="M9235 3120 c3 -5 8 -10 11 -10 2 0 4 5 4 10 0 6 -5 10 -11 10 -5 0

-7 -4 -4 -10z"/>

<path d="M2573 3113 c-16 -6 -17 -33 -3 -33 11 0 26 28 19 34 -2 2 -10 1 -16

-1z"/>

<path d="M9270 3105 c0 -9 5 -15 11 -13 6 2 11 8 11 13 0 5 -5 11 -11 13 -6 2

-11 -4 -11 -13z"/>

<path d="M11506 3088 c-11 -15 -12 -26 -6 -32 6 -6 10 -20 10 -32 0 -33 20

-41 41 -16 9 12 22 22 28 22 19 0 12 38 -11 60 -28 26 -43 25 -62 -2z"/>

<path d="M9230 3070 c0 -5 5 -10 10 -10 6 0 10 5 10 10 0 6 -4 10 -10 10 -5 0

-10 -4 -10 -10z"/>

<path d="M9150 3050 c0 -5 4 -10 9 -10 6 0 13 5 16 10 3 6 -1 10 -9 10 -9 0

-16 -4 -16 -10z"/>

<path d="M11675 3041 c-3 -12 -10 -21 -14 -21 -13 0 -33 -56 -29 -82 2 -16 13

-26 38 -34 43 -14 55 -2 34 38 -13 25 -13 28 6 38 15 8 19 17 15 33 -4 12 -3

17 2 11 4 -6 16 -13 26 -17 10 -4 17 -17 17 -32 0 -14 5 -25 10 -25 6 0 10 -9

10 -19 0 -11 4 -22 10 -26 16 -10 42 41 38 77 -3 30 -6 33 -32 31 -19 -1 -36

5 -46 17 -10 11 -31 23 -48 26 -25 5 -31 2 -37 -15z"/>

<path d="M6360 3035 c0 -8 7 -15 15 -15 8 0 15 7 15 15 0 8 -7 15 -15 15 -8 0

-15 -7 -15 -15z"/>

<path d="M8355 3036 c-55 -17 -139 -78 -143 -103 -3 -22 45 -83 65 -83 7 0 13

-4 13 -10 0 -15 33 -50 47 -50 7 0 13 -9 13 -19 0 -10 7 -21 15 -25 8 -3 15

-12 15 -21 0 -21 -9 -19 -30 8 -22 26 -35 21 -15 -7 8 -10 28 -21 45 -25 26

-5 35 -14 46 -46 7 -22 14 -51 14 -65 1 -24 1 -25 15 -5 8 11 25 31 39 45 38

40 52 91 35 129 -14 31 -39 43 -39 17 0 -18 -22 -26 -49 -19 -15 4 -21 13 -21

34 0 23 -9 36 -45 61 -25 18 -45 37 -45 43 0 6 11 27 25 47 22 32 32 38 75 44

28 4 50 9 50 13 0 4 -7 17 -16 29 -17 25 -48 27 -109 8z"/>

<path d="M10456 3035 c-3 -8 -1 -15 4 -15 6 0 10 7 10 15 0 8 -2 15 -4 15 -2

0 -6 -7 -10 -15z"/>

<path d="M2550 3031 c-19 -5 -26 -14 -28 -39 -3 -33 13 -43 34 -22 7 7 15 2

24 -15 15 -28 30 -33 30 -10 0 9 -7 18 -16 22 -11 4 -14 14 -10 34 6 33 0 38

-34 30z"/>

<path d="M7990 3024 c0 -17 22 -14 28 4 2 7 -3 12 -12 12 -9 0 -16 -7 -16 -16z"/>

<path d="M8880 3007 c0 -43 15 -57 54 -50 44 9 59 38 36 73 -7 12 -12 12 -22

2 -14 -14 -48 -16 -48 -2 0 6 -4 10 -10 10 -5 0 -10 -15 -10 -33z"/>

<path d="M8509 2993 c-5 -16 -17 -34 -26 -40 -19 -15 -25 -113 -7 -113 16 0

54 44 54 64 0 10 7 24 15 32 8 9 15 31 15 50 0 27 -4 34 -20 34 -13 0 -24 -10

-31 -27z"/>

<path d="M2730 3000 c0 -5 5 -10 10 -10 6 0 10 5 10 10 0 6 -4 10 -10 10 -5 0

-10 -4 -10 -10z"/>

<path d="M3954 2994 c3 -9 6 -18 6 -20 0 -3 5 -2 10 1 16 10 12 35 -6 35 -11

0 -14 -5 -10 -16z"/>

<path d="M6318 3003 c7 -3 16 -2 19 1 4 3 -2 6 -13 5 -11 0 -14 -3 -6 -6z"/>

<path d="M7401 2994 c0 -11 3 -14 6 -6 3 7 2 16 -1 19 -3 4 -6 -2 -5 -13z"/>

<path d="M7990 2985 c0 -9 5 -15 11 -13 6 2 11 8 11 13 0 5 -5 11 -11 13 -6 2

-11 -4 -11 -13z"/>

<path d="M11356 2992 c-3 -6 -1 -14 5 -17 15 -10 25 3 12 16 -7 7 -13 7 -17 1z"/>

<path d="M3483 2965 c-22 -25 -14 -37 12 -18 13 10 25 21 25 26 0 12 -24 7

-37 -8z"/>

<path d="M10450 2970 c0 -5 7 -10 16 -10 8 0 12 5 9 10 -3 6 -10 10 -16 10 -5

0 -9 -4 -9 -10z"/>

<path d="M4675 2960 c3 -5 8 -10 11 -10 2 0 4 5 4 10 0 6 -5 10 -11 10 -5 0

-7 -4 -4 -10z"/>

<path d="M7100 2961 c0 -6 5 -13 10 -16 6 -3 10 1 10 9 0 9 -4 16 -10 16 -5 0

-10 -4 -10 -9z"/>

<path d="M7703 2955 c-8 -22 6 -33 17 -15 13 20 12 30 0 30 -6 0 -13 -7 -17

-15z"/>

<path d="M2986 2935 c-9 -14 -21 -23 -26 -20 -6 4 -19 0 -30 -8 -19 -13 -15

-15 49 -21 44 -5 78 -3 90 4 11 5 24 10 28 9 27 -5 33 2 23 22 -9 17 -20 20

-56 18 -28 -2 -48 2 -53 10 -6 9 -13 5 -25 -14z"/>

<path d="M3417 2953 c-4 -6 -19 -8 -35 -5 -16 2 -32 0 -36 -6 -8 -13 75 -25

88 -12 7 7 7 13 -1 21 -6 6 -13 7 -16 2z"/>

<path d="M7150 2948 c0 -3 14 -17 30 -33 17 -16 30 -24 30 -18 0 7 -13 21 -30

33 -16 12 -30 20 -30 18z"/>

<path d="M9960 2935 c0 -8 5 -15 10 -15 6 0 10 7 10 15 0 8 -4 15 -10 15 -5 0

-10 -7 -10 -15z"/>

<path d="M11869 2929 c-14 -14 -19 -28 -15 -45 7 -25 -19 -59 -59 -79 -32 -16

-30 -64 4 -103 l29 -34 -5 66 c-6 65 -5 66 19 66 14 0 33 9 43 20 27 30 35 10

35 -100 0 -72 5 -105 20 -138 10 -23 22 -59 26 -80 8 -46 30 -91 56 -116 24

-22 34 -15 17 12 -10 16 -9 24 10 51 21 28 21 58 1 46 -5 -3 -11 -1 -15 5 -3

5 -1 10 4 10 15 0 14 32 -3 55 -7 11 -16 36 -19 55 -3 19 -13 62 -21 95 -59

231 -78 263 -127 214z"/>

<path d="M3202 2923 c2 -13 14 -19 41 -21 43 -4 50 14 11 28 -38 15 -56 12

-52 -7z"/>

<path d="M3315 2910 c-4 -6 7 -10 24 -10 17 0 31 5 31 10 0 6 -11 10 -24 10

-14 0 -28 -4 -31 -10z"/>

<path d="M4750 2896 c0 -9 5 -16 10 -16 6 0 10 4 10 9 0 6 -4 13 -10 16 -5 3

-10 -1 -10 -9z"/>

<path d="M11341 2896 c-9 -11 -9 -19 1 -35 13 -22 34 -23 32 -3 -1 7 -2 21 -2

32 -2 23 -15 26 -31 6z"/>

<path d="M12620 2900 c0 -5 5 -10 10 -10 6 0 10 5 10 10 0 6 -4 10 -10 10 -5

0 -10 -4 -10 -10z"/>

<path d="M7676 2885 c-3 -8 -16 -15 -30 -15 -28 0 -43 -17 -28 -32 6 -6 8 -16

5 -24 -2 -7 2 -23 11 -36 12 -17 16 -18 16 -6 0 8 7 21 16 28 8 8 23 30 33 51

16 32 16 39 4 43 -20 8 -20 8 -27 -9z"/>

<path d="M2735 2870 c-3 -5 1 -10 9 -10 9 0 16 5 16 10 0 6 -4 10 -9 10 -6 0

-13 -4 -16 -10z"/>

<path d="M2910 2870 c0 -5 5 -10 10 -10 6 0 10 5 10 10 0 6 -4 10 -10 10 -5 0

-10 -4 -10 -10z"/>

<path d="M3935 2870 c-3 -5 3 -10 14 -10 12 0 21 5 21 10 0 6 -6 10 -14 10 -8

0 -18 -4 -21 -10z"/>

<path d="M8691 2854 c-6 -14 -11 -39 -11 -57 0 -18 -6 -42 -13 -54 -36 -63

-47 -87 -42 -92 7 -7 73 -7 80 1 9 9 14 217 6 223 -5 2 -13 -7 -20 -21z"/>

<path d="M12238 2853 c-20 -5 -22 -12 -9 -31 6 -10 12 -7 25 12 17 26 15 27

-16 19z"/>

<path d="M2480 2835 c-15 -8 -19 -14 -10 -14 18 -1 46 16 40 23 -3 2 -16 -2

-30 -9z"/>

<path d="M7998 2821 c-5 -32 6 -42 16 -16 3 8 12 15 21 15 8 0 15 5 15 10 0 6

-4 10 -9 10 -5 0 -16 3 -24 6 -10 4 -16 -4 -19 -25z"/>

<path d="M3881 2811 c-9 -6 -10 -11 -2 -15 13 -8 -3 -44 -27 -62 -11 -8 -12

-15 -4 -31 6 -11 8 -23 5 -27 -3 -3 -1 -6 5 -6 7 0 12 15 12 35 0 27 4 35 18

35 13 0 18 9 18 40 1 42 -2 46 -25 31z"/>

<path d="M11376 2805 c-11 -29 -7 -55 9 -55 16 0 20 36 6 58 -7 11 -10 10 -15

-3z"/>

<path d="M5596 2794 c-4 -9 -4 -19 -1 -22 7 -8 35 19 29 29 -8 14 -21 11 -28

-7z"/>

<path d="M7550 2790 c-25 -25 -25 -32 -1 -61 24 -30 27 -26 33 34 6 51 -1 58

-32 27z"/>

<path d="M11584 2785 c-7 -17 43 -64 69 -65 30 0 22 47 -13 65 -36 19 -49 19

-56 0z"/>

<path d="M12777 2784 c-8 -8 3 -34 14 -34 5 0 9 9 9 20 0 19 -11 26 -23 14z"/>

<path d="M2269 2751 c-13 -11 -21 -22 -18 -26 10 -9 59 17 59 32 0 18 -14 16

-41 -6z"/>

<path d="M3607 2742 c-2 -4 -1 -16 2 -27 6 -19 7 -19 22 -4 15 15 15 17 -2 27

-10 7 -20 8 -22 4z"/>

<path d="M6210 2741 c0 -5 5 -13 10 -16 6 -3 10 -2 10 4 0 5 -4 13 -10 16 -5

3 -10 2 -10 -4z"/>

<path d="M2200 2710 c-8 -5 -25 -10 -37 -10 -14 0 -23 -6 -23 -16 0 -12 7 -14

33 -9 34 8 57 22 57 36 0 12 -11 11 -30 -1z"/>

<path d="M12660 2699 l-25 -7 27 -1 c15 -1 30 -6 33 -11 7 -11 25 -4 25 9 0

13 -32 18 -60 10z"/>

<path d="M12468 2674 c-54 -28 -61 -41 -20 -42 30 0 96 44 87 59 -8 13 -14 11

-67 -17z"/>

<path d="M6980 2664 c0 -8 5 -12 10 -9 6 4 8 11 5 16 -9 14 -15 11 -15 -7z"/>

<path d="M11576 2642 c-31 -46 -32 -52 -6 -52 14 0 22 11 30 41 6 23 9 43 7

45 -2 2 -16 -13 -31 -34z"/>

<path d="M1037 2620 c-20 -27 -37 -53 -37 -57 0 -5 11 -13 25 -19 33 -16 42

-3 47 69 1 31 3 57 3 57 -1 0 -17 -22 -38 -50z"/>

<path d="M7400 2660 c0 -5 4 -10 9 -10 6 0 13 5 16 10 3 6 -1 10 -9 10 -9 0

-16 -4 -16 -10z"/>

<path d="M11707 2653 c-4 -3 -7 -15 -7 -25 0 -10 -9 -23 -20 -30 -11 -7 -20

-18 -20 -24 0 -6 -9 -19 -20 -29 -11 -10 -20 -21 -20 -24 0 -4 18 -14 40 -24

25 -11 44 -27 50 -43 8 -21 15 -25 35 -22 29 6 35 -18 9 -37 -12 -8 -15 -20

-9 -43 5 -25 12 -32 31 -32 15 0 24 -6 24 -15 0 -8 5 -15 10 -15 14 0 12 28

-2 33 -10 3 -8 9 5 24 23 26 22 64 -3 91 -11 12 -20 35 -20 54 -1 39 -20 114

-38 146 -12 22 -32 28 -45 15z"/>

<path d="M2000 2615 c-7 -9 -11 -18 -8 -21 7 -7 58 17 58 28 0 14 -37 9 -50

-7z"/>

<path d="M303 2607 c-41 -12 -41 -21 -3 -37 36 -15 43 -11 38 22 -3 22 -6 23

-35 15z"/>

<path d="M12356 2575 c-9 -14 -13 -25 -9 -25 14 1 43 27 43 39 0 19 -17 12

-34 -14z"/>

<path d="M1934 2555 c-16 -14 -32 -25 -36 -25 -5 0 -8 -4 -8 -10 0 -17 13 -11

48 21 41 37 37 49 -4 14z"/>

<path d="M400 2555 c0 -8 4 -15 9 -15 5 0 11 7 15 15 3 9 0 15 -9 15 -8 0 -15

-7 -15 -15z"/>

<path d="M6190 2560 c0 -5 5 -10 10 -10 6 0 10 5 10 10 0 6 -4 10 -10 10 -5 0

-10 -4 -10 -10z"/>

<path d="M7050 2547 c0 -23 11 -47 22 -47 14 0 5 53 -9 58 -7 2 -13 -3 -13

-11z"/>

<path d="M8265 2542 c-37 -13 -51 -23 -53 -39 -3 -20 1 -21 43 -20 39 2 49 6

63 29 24 40 7 50 -53 30z"/>

<path d="M1728 2513 c-16 -8 -28 -18 -28 -23 0 -5 -9 -11 -19 -15 -10 -3 -21

-15 -24 -27 -4 -13 -11 -19 -20 -15 -18 7 -52 -27 -42 -43 5 -7 -2 -9 -21 -4

-22 6 -26 4 -21 -9 4 -11 -7 -24 -39 -44 -37 -24 -44 -33 -44 -60 0 -39 13

-42 44 -8 13 14 31 25 41 25 9 0 35 16 58 35 22 19 46 35 52 35 18 0 40 29 74

96 41 82 41 85 -11 57z"/>

<path d="M4356 2501 c-17 -32 -21 -61 -8 -61 8 0 33 82 27 88 -2 2 -11 -10

-19 -27z"/>

<path d="M10533 2504 c-11 -24 -7 -64 7 -64 10 0 21 73 12 82 -4 4 -12 -4 -19

-18z"/>

<path d="M8971 2490 c0 -33 1 -34 11 -12 8 17 8 26 0 34 -9 9 -12 4 -11 -22z"/>

<path d="M1037 2503 c-11 -10 -8 -53 3 -53 6 0 10 14 10 30 0 31 -2 35 -13 23z"/>

<path d="M1856 2474 c-9 -24 -7 -28 9 -14 17 14 20 30 6 30 -5 0 -12 -7 -15

-16z"/>

<path d="M8452 2460 c-34 -32 -48 -60 -62 -121 -10 -44 -10 -65 -1 -89 6 -18

11 -44 11 -56 0 -13 3 -24 8 -24 15 0 33 61 36 127 4 69 20 121 43 136 17 11

17 47 0 47 -7 0 -23 -9 -35 -20z"/>

<path d="M3878 2445 c-22 -30 -22 -35 -2 -35 18 0 43 27 44 48 0 20 -24 13

-42 -13z"/>

<path d="M290 2424 c0 -12 -3 -24 -7 -28 -4 -4 -9 -30 -11 -59 -2 -29 -1 -49

3 -45 14 13 34 133 24 143 -5 5 -9 1 -9 -11z"/>

<path d="M3932 2424 c4 -20 34 -41 44 -31 8 8 -24 47 -38 47 -5 0 -8 -7 -6

-16z"/>

<path d="M1020 2406 c-7 -13 -10 -28 -7 -33 3 -4 1 -28 -4 -53 -5 -25 -12 -70

-15 -100 -3 -30 -9 -59 -14 -65 -10 -13 -20 -142 -11 -150 7 -7 25 93 60 340

3 28 10 55 14 62 4 6 3 14 -1 17 -5 3 -15 -5 -22 -18z"/>

<path d="M4320 2417 c0 -8 -6 -27 -14 -43 -18 -37 -29 -124 -16 -124 6 0 10 7

10 15 0 9 7 27 16 40 9 13 13 29 10 34 -4 5 -2 12 3 15 11 7 10 76 -1 76 -4 0

-8 -6 -8 -13z"/>

<path d="M1943 2395 c-8 -22 2 -28 40 -28 17 0 39 -5 47 -12 33 -26 182 -46

195 -25 3 6 -3 10 -14 10 -12 0 -21 3 -21 8 0 14 -68 30 -80 18 -8 -8 -14 -6

-21 7 -6 9 -21 17 -34 17 -13 0 -27 5 -30 10 -10 16 -75 12 -82 -5z"/>

<path d="M2336 2393 c-11 -11 -6 -23 9 -23 8 0 15 4 15 9 0 13 -16 22 -24 14z"/>

<path d="M8980 2380 c0 -11 5 -20 10 -20 6 0 10 9 10 20 0 11 -4 20 -10 20 -5

0 -10 -9 -10 -20z"/>

<path d="M2497 2383 c-13 -12 -7 -23 13 -23 11 0 20 -4 20 -8 0 -5 12 -14 27

-21 23 -11 29 -10 40 5 21 29 15 37 -24 31 -26 -5 -42 -2 -53 8 -9 8 -20 12

-23 8z"/>

<path d="M2299 2328 l-20 -27 25 -7 c18 -4 34 1 60 21 20 15 36 30 36 34 0 4

-18 6 -41 6 -33 0 -45 -5 -60 -27z"/>

<path d="M12026 2325 c-7 -19 4 -105 13 -105 4 0 15 18 25 39 14 33 15 43 4

60 -15 25 -34 27 -42 6z"/>

<path d="M3800 2310 c0 -5 5 -10 11 -10 5 0 7 5 4 10 -3 6 -8 10 -11 10 -2 0

-4 -4 -4 -10z"/>

<path d="M3495 2290 c-3 -5 -23 -10 -44 -10 -38 0 -76 -29 -76 -57 0 -15 4

-16 27 -8 9 4 31 -1 49 -10 30 -16 33 -16 42 1 12 20 21 94 13 94 -3 0 -8 -4

-11 -10z"/>

<path d="M8990 2279 c0 -11 4 -18 9 -15 5 4 11 1 13 -6 7 -19 38 0 38 23 0 17

-3 19 -14 10 -10 -8 -16 -9 -21 -1 -11 17 -25 11 -25 -11z"/>

<path d="M258 2274 c-5 -4 -8 -23 -8 -43 0 -25 3 -32 11 -24 6 6 9 25 7 43 -2

17 -6 28 -10 24z"/>

<path d="M2730 2272 c0 -14 48 -35 64 -29 26 10 18 28 -9 21 -15 -4 -25 -2

-25 5 0 6 -7 11 -15 11 -8 0 -15 -4 -15 -8z"/>

<path d="M1850 2230 c0 -11 -4 -20 -9 -20 -5 0 -16 -12 -26 -26 -16 -25 -16

-27 4 -47 19 -20 22 -20 37 -5 9 9 19 39 22 67 4 42 2 51 -12 51 -9 0 -16 -8

-16 -20z"/>

<path d="M2475 2240 c-3 -5 1 -10 9 -10 9 0 16 5 16 10 0 6 -4 10 -9 10 -6 0

-13 -4 -16 -10z"/>

<path d="M2837 2243 c-12 -11 -8 -22 13 -33 30 -16 45 -2 24 21 -18 20 -27 23

-37 12z"/>

<path d="M1968 2223 c7 -3 16 -2 19 1 4 3 -2 6 -13 5 -11 0 -14 -3 -6 -6z"/>

<path d="M2040 2210 c0 -5 19 -10 43 -10 24 0 48 -5 55 -12 7 -7 12 -9 12 -4

0 4 -6 14 -14 22 -16 16 -96 19 -96 4z"/>

<path d="M2270 2210 c0 -5 -7 -10 -15 -10 -8 0 -15 -9 -15 -21 0 -17 5 -20 31

-17 38 4 62 33 39 48 -20 13 -40 13 -40 0z"/>

<path d="M2490 2210 c0 -5 4 -10 9 -10 6 0 13 5 16 10 3 6 -1 10 -9 10 -9 0

-16 -4 -16 -10z"/>

<path d="M7930 2191 c0 -10 7 -21 15 -25 8 -3 15 -12 15 -21 0 -8 4 -15 9 -15

5 0 11 -14 15 -32 5 -23 2 -34 -9 -41 -9 -4 -13 -12 -10 -18 11 -16 25 -10 35

17 6 14 19 28 30 31 30 8 24 29 -17 60 -21 15 -45 36 -54 45 -21 23 -29 23

-29 -1z"/>

<path d="M8347 2203 c-4 -3 -7 -23 -7 -43 0 -20 -5 -41 -11 -47 -5 -5 -9 -34

-7 -64 3 -50 5 -54 29 -57 41 -5 55 21 36 66 -9 20 -18 63 -19 94 -3 56 -7 66

-21 51z"/>

<path d="M8870 2181 c0 -17 5 -31 10 -31 6 0 10 11 10 24 0 14 -4 28 -10 31

-6 4 -10 -7 -10 -24z"/>

<path d="M12060 2190 c0 -11 5 -20 12 -20 9 0 9 -3 0 -12 -17 -17 -15 -63 3

-78 8 -7 15 -27 15 -46 0 -18 5 -36 10 -39 6 -3 10 -20 10 -36 0 -16 9 -39 19

-50 19 -21 19 -20 20 49 0 57 -3 73 -19 87 -11 10 -17 22 -14 27 4 5 -2 25

-12 44 -16 29 -17 36 -5 43 10 7 11 13 2 30 -15 27 -41 27 -41 1z"/>

<path d="M9036 2193 c-11 -11 -6 -23 9 -23 8 0 15 4 15 9 0 13 -16 22 -24 14z"/>

<path d="M3053 2183 c-24 -5 -30 -18 -14 -28 5 -3 13 0 17 6 5 8 9 8 14 -1 9

-15 77 -40 85 -32 10 11 5 32 -9 32 -8 0 -16 4 -18 9 -4 12 -46 20 -75 14z"/>

<path d="M10056 2174 c-9 -24 -7 -34 8 -34 20 0 27 26 12 40 -10 8 -15 7 -20

-6z"/>

<path d="M2675 2170 c-3 -5 -1 -10 4 -10 6 0 11 5 11 10 0 6 -2 10 -4 10 -3 0

-8 -4 -11 -10z"/>

<path d="M5320 2170 c0 -5 5 -10 10 -10 6 0 10 5 10 10 0 6 -4 10 -10 10 -5 0

-10 -4 -10 -10z"/>

<path d="M5380 2170 c-12 -8 -9 -10 13 -10 15 0 27 5 27 10 0 13 -20 13 -40 0z"/>

<path d="M11440 2156 c0 -8 5 -18 10 -21 6 -3 10 3 10 14 0 12 -4 21 -10 21

-5 0 -10 -6 -10 -14z"/>

<path d="M3208 2153 c7 -3 16 -2 19 1 4 3 -2 6 -13 5 -11 0 -14 -3 -6 -6z"/>

<path d="M9527 2135 c-4 -8 -2 -17 3 -20 6 -4 10 -4 10 -1 0 2 3 11 6 20 3 9

2 16 -4 16 -5 0 -12 -7 -15 -15z"/>

<path d="M11745 2135 c-3 -8 -7 -22 -10 -30 -8 -25 12 -17 35 15 l21 30 -21 0

c-11 0 -23 -7 -25 -15z"/>

<path d="M9847 2134 c-8 -8 1 -24 14 -24 5 0 9 7 9 15 0 15 -12 20 -23 9z"/>

<path d="M2740 2120 c0 -5 7 -10 15 -10 8 0 15 5 15 10 0 6 -7 10 -15 10 -8 0

-15 -4 -15 -10z"/>

<path d="M230 2106 c0 -8 5 -18 10 -21 6 -3 10 3 10 14 0 12 -4 21 -10 21 -5

0 -10 -6 -10 -14z"/>

<path d="M3388 2106 c-17 -12 -17 -14 1 -30 28 -26 66 -17 66 14 0 19 -6 26

-25 27 -14 2 -33 -3 -42 -11z"/>

<path d="M5816 2105 c-3 -8 -1 -15 3 -15 5 0 11 7 15 15 3 8 1 15 -3 15 -5 0

-11 -7 -15 -15z"/>

<path d="M11460 2110 c0 -5 5 -10 11 -10 5 0 7 5 4 10 -3 6 -8 10 -11 10 -2 0

-4 -4 -4 -10z"/>

<path d="M5655 2090 c-3 -5 3 -10 14 -10 12 0 21 5 21 10 0 6 -6 10 -14 10 -8

0 -18 -4 -21 -10z"/>

<path d="M6705 2090 c-3 -5 3 -10 14 -10 12 0 21 5 21 10 0 6 -6 10 -14 10 -8

0 -18 -4 -21 -10z"/>

<path d="M5474 2074 c3 -9 6 -18 6 -21 0 -3 7 0 15 7 21 18 19 30 -6 30 -15 0

-19 -4 -15 -16z"/>

<path d="M5540 2064 c0 -8 5 -12 10 -9 6 3 10 10 10 16 0 5 -4 9 -10 9 -5 0

-10 -7 -10 -16z"/>

<path d="M12240 2063 c0 -31 35 -116 49 -121 19 -6 4 94 -17 119 -20 24 -32

24 -32 2z"/>

<path d="M2208 2056 c-21 -16 -23 -26 -5 -26 7 0 18 9 25 20 14 23 5 26 -20 6z"/>

<path d="M5023 2046 c7 -15 16 -21 21 -16 5 5 2 15 -7 24 -22 23 -27 20 -14

-8z"/>

<path d="M6483 2063 c-7 -2 -13 -9 -13 -14 0 -14 24 -11 46 6 19 14 19 14 -1

14 -11 0 -26 -3 -32 -6z"/>

<path d="M8170 2040 c0 -5 5 -10 10 -10 6 0 10 5 10 10 0 6 -4 10 -10 10 -5 0

-10 -4 -10 -10z"/>

<path d="M11780 2040 c0 -5 5 -10 10 -10 6 0 10 5 10 10 0 6 -4 10 -10 10 -5

0 -10 -4 -10 -10z"/>

<path d="M1720 2021 c-5 -11 -10 -22 -10 -25 0 -13 28 -5 44 13 15 17 15 19 1

25 -23 8 -23 8 -35 -13z"/>

<path d="M9021 2024 c0 -11 3 -14 6 -6 3 7 2 16 -1 19 -3 4 -6 -2 -5 -13z"/>

<path d="M1840 2019 c0 -5 5 -7 10 -4 6 3 10 8 10 11 0 2 -4 4 -10 4 -5 0 -10

-5 -10 -11z"/>

<path d="M1800 1970 c0 -24 6 -25 26 -6 19 20 18 26 -6 26 -13 0 -20 -7 -20

-20z"/>

<path d="M2050 1975 c-8 -9 -8 -15 -2 -15 12 0 26 19 19 26 -2 2 -10 -2 -17

-11z"/>

<path d="M11210 1965 c0 -8 5 -15 10 -15 6 0 10 7 10 15 0 8 -4 15 -10 15 -5

0 -10 -7 -10 -15z"/>

<path d="M9080 1963 c-25 -10 -50 -41 -44 -57 5 -12 11 -11 40 6 20 12 34 28

34 39 0 20 -4 21 -30 12z"/>

<path d="M3347 1952 c-9 -2 -14 -9 -11 -16 3 -8 -5 -16 -19 -20 -30 -7 -60

-72 -46 -98 13 -24 11 -66 -3 -75 -17 -11 -48 -70 -48 -91 1 -42 17 -41 38 0

11 24 32 58 47 77 14 19 25 40 25 46 0 6 13 29 30 51 16 21 30 46 30 55 0 8 4

19 9 25 5 5 11 18 15 29 5 17 1 20 -22 20 -16 0 -36 -1 -45 -3z"/>

<path d="M3560 1944 c0 -8 5 -12 10 -9 6 4 8 11 5 16 -9 14 -15 11 -15 -7z"/>

<path d="M11717 1953 c-12 -11 -8 -23 8 -23 8 0 15 7 15 15 0 16 -12 20 -23 8z"/>

<path d="M1440 1940 c0 -5 5 -10 10 -10 6 0 10 5 10 10 0 6 -4 10 -10 10 -5 0

-10 -4 -10 -10z"/>

<path d="M2156 1943 c-11 -11 -6 -23 9 -23 8 0 15 4 15 9 0 13 -16 22 -24 14z"/>

<path d="M12421 1918 c6 -18 13 -43 16 -56 3 -12 9 -25 14 -28 5 -3 9 -13 9

-23 0 -10 9 -39 20 -65 24 -52 53 -74 76 -55 17 14 19 39 3 39 -18 0 -79 63

-79 82 0 9 -5 20 -11 24 -7 4 -9 21 -6 41 5 27 3 34 -8 29 -9 -3 -15 3 -17 16

-2 12 -8 23 -15 25 -9 3 -9 -4 -2 -29z"/>

<path d="M2617 1934 c-8 -8 1 -24 14 -24 5 0 9 7 9 15 0 15 -12 20 -23 9z"/>

<path d="M3722 1918 c-14 -14 -16 -62 -2 -53 6 3 10 17 10 30 0 13 6 26 13 28

6 3 7 6 2 6 -6 1 -16 -4 -23 -11z"/>

<path d="M1737 1914 c-10 -10 -9 -44 2 -44 13 0 23 32 13 42 -5 5 -11 5 -15 2z"/>

<path d="M950 1890 c0 -19 3 -21 12 -12 9 9 9 15 0 24 -9 9 -12 7 -12 -12z"/>

<path d="M12304 1854 c3 -26 22 -100 42 -163 20 -64 38 -122 40 -128 2 -7 8

-13 14 -13 13 0 13 41 0 111 -5 30 -12 70 -15 90 -3 21 -16 53 -29 72 -13 19

-26 43 -28 53 -1 9 -9 19 -17 22 -11 4 -13 -5 -7 -44z"/>

<path d="M1461 1833 c2 -45 6 -57 25 -70 13 -8 28 -32 34 -54 13 -46 27 -57

47 -36 18 18 9 75 -13 84 -8 3 -14 16 -14 28 0 33 -29 79 -57 92 -23 11 -23

11 -22 -44z"/>

<path d="M5110 1866 c0 -15 18 -31 26 -23 7 7 -7 37 -17 37 -5 0 -9 -6 -9 -14z"/>

<path d="M8460 1864 c0 -8 5 -12 10 -9 6 4 8 11 5 16 -9 14 -15 11 -15 -7z"/>

<path d="M11166 1865 c-9 -26 -7 -32 5 -12 6 10 9 21 6 23 -2 3 -7 -2 -11 -11z"/>

<path d="M2120 1840 c0 -5 5 -10 11 -10 5 0 7 5 4 10 -3 6 -8 10 -11 10 -2 0

-4 -4 -4 -10z"/>

<path d="M12780 1835 c-13 -16 -7 -45 10 -45 5 0 10 14 10 30 0 34 -3 36 -20

15z"/>

<path d="M8120 1814 c-6 -14 -10 -45 -10 -68 0 -36 -4 -45 -21 -49 l-22 -6 22

-36 c12 -20 18 -42 14 -48 -4 -6 -7 -98 -8 -204 -2 -179 -1 -193 16 -193 24 0

30 12 34 73 3 28 8 86 12 127 5 41 5 109 2 150 -4 41 -7 121 -8 178 -1 102

-12 128 -31 76z"/>

<path d="M11127 1807 c-9 -15 -17 -34 -17 -44 0 -12 7 -7 21 16 24 39 21 65

-4 28z"/>

<path d="M5162 1811 c2 -7 7 -12 11 -12 12 1 9 15 -3 20 -7 2 -11 -2 -8 -8z"/>

<path d="M930 1793 c0 -10 5 -25 10 -33 7 -11 10 -7 10 18 0 17 -4 32 -10 32

-5 0 -10 -8 -10 -17z"/>

<path d="M11744 1768 c-1 -30 1 -37 8 -25 5 10 18 17 28 17 25 0 25 12 2 33

-29 26 -37 20 -38 -25z"/>

<path d="M1693 1758 c-13 -22 -11 -79 3 -85 23 -9 104 39 110 64 8 30 -1 40

-21 23 -11 -9 -22 -9 -46 -1 -39 13 -36 14 -46 -1z"/>

<path d="M5200 1746 c0 -8 11 -28 25 -43 l24 -28 1 26 c0 14 -8 33 -18 42 -23

21 -32 21 -32 3z"/>

<path d="M8021 1728 c-1 -15 4 -30 9 -33 6 -3 10 -17 10 -31 0 -13 5 -24 10

-24 15 0 11 31 -9 75 -18 37 -19 38 -20 13z"/>

<path d="M930 1711 c0 -12 5 -21 10 -21 6 0 10 6 10 14 0 8 -4 18 -10 21 -5 3

-10 -3 -10 -14z"/>

<path d="M2072 1715 c-10 -12 -10 -15 2 -15 7 0 16 7 20 15 7 19 -5 19 -22 0z"/>

<path d="M11070 1710 c0 -5 5 -10 10 -10 6 0 10 5 10 10 0 6 -4 10 -10 10 -5

0 -10 -4 -10 -10z"/>

<path d="M11600 1690 c0 -5 5 -10 10 -10 6 0 10 5 10 10 0 6 -4 10 -10 10 -5

0 -10 -4 -10 -10z"/>

<path d="M7730 1679 c0 -5 5 -7 10 -4 6 3 10 8 10 11 0 2 -4 4 -10 4 -5 0 -10

-5 -10 -11z"/>

<path d="M1336 1655 c-3 -9 0 -15 9 -15 8 0 15 7 15 15 0 8 -4 15 -9 15 -5 0

-11 -7 -15 -15z"/>

<path d="M12146 1651 c-17 -19 -14 -71 5 -71 5 0 14 -11 19 -25 5 -14 16 -25

25 -25 11 0 15 -10 14 -42 -1 -49 22 -137 50 -188 10 -19 22 -49 26 -67 8 -38

19 -48 63 -56 29 -6 32 -4 32 18 0 23 -14 39 -35 40 -5 0 -9 12 -7 27 1 15 -2

29 -8 33 -5 3 -10 19 -10 34 0 16 -7 34 -15 41 -9 7 -23 39 -32 72 -9 32 -20

58 -25 58 -15 0 -8 58 8 64 13 5 13 10 -6 36 -12 16 -27 30 -35 30 -7 0 -15 9

-18 20 -6 25 -29 26 -51 1z"/>

<path d="M1290 1640 c0 -5 7 -10 16 -10 8 0 12 5 9 10 -3 6 -10 10 -16 10 -5

0 -9 -4 -9 -10z"/>

<path d="M5290 1625 c0 -12 18 -39 40 -60 54 -53 54 -21 0 37 -33 36 -40 39

-40 23z"/>

<path d="M916 1611 c-4 -7 -5 -15 -2 -18 9 -9 19 4 14 18 -4 11 -6 11 -12 0z"/>

<path d="M1280 1609 c0 -6 -9 -8 -22 -4 -17 6 -20 4 -15 -10 4 -9 7 -21 7 -26

0 -20 31 -7 40 17 12 32 12 34 0 34 -5 0 -10 -5 -10 -11z"/>

<path d="M12546 1611 c-8 -13 4 -41 18 -41 7 0 6 -3 -2 -9 -9 -5 -11 -17 -7

-34 9 -32 30 -51 50 -43 13 5 13 10 -5 43 -11 21 -20 45 -20 54 0 21 -26 44

-34 30z"/>

<path d="M3212 1589 c2 -6 8 -10 13 -10 5 0 11 4 13 10 2 6 -4 11 -13 11 -9 0

-15 -5 -13 -11z"/>

<path d="M11640 1592 c0 -5 6 -16 13 -27 16 -20 31 -7 21 19 -6 16 -34 23 -34

8z"/>

<path d="M7132 1574 c-7 -8 -8 -14 -3 -14 10 0 25 19 20 25 -2 1 -10 -3 -17

-11z"/>

<path d="M1217 1573 c-12 -12 -7 -22 8 -17 8 4 15 10 15 15 0 11 -14 12 -23 2z"/>

<path d="M9901 1530 c-10 -31 4 -45 15 -15 4 8 11 12 16 9 10 -6 28 12 28 29

0 4 -11 7 -24 7 -18 0 -27 -8 -35 -30z"/>

<path d="M10083 1539 c15 -9 16 -13 5 -26 -11 -14 -11 -15 2 -11 8 2 16 14 18

26 3 17 -2 22 -20 22 -21 -1 -21 -2 -5 -11z"/>

<path d="M11950 1535 c-6 -7 -21 -15 -32 -17 -30 -4 -42 -28 -29 -60 14 -36

56 -39 67 -5 3 12 15 30 25 40 24 23 24 34 0 46 -14 8 -22 7 -31 -4z"/>

<path d="M9690 1510 c0 -33 11 -38 30 -15 10 11 9 18 -3 30 -22 22 -27 19 -27

-15z"/>

<path d="M10140 1530 c0 -5 5 -10 11 -10 5 0 7 5 4 10 -3 6 -8 10 -11 10 -2 0

-4 -4 -4 -10z"/>

<path d="M10940 1511 c-12 -17 -17 -31 -12 -31 12 0 46 50 39 56 -3 3 -15 -9

-27 -25z"/>

<path d="M5382 1521 c-16 -10 39 -69 76 -82 16 -5 35 -20 41 -32 13 -25 50

-52 58 -43 7 7 -16 36 -28 36 -5 0 -38 29 -72 64 -38 39 -68 62 -75 57z"/>

<path d="M7727 1508 c-2 -7 -2 -38 1 -70 2 -31 0 -70 -6 -87 -8 -21 -8 -49 -1

-88 13 -77 13 -171 1 -186 -19 -22 -24 -83 -11 -128 9 -31 14 -38 17 -24 2 11

8 24 13 29 5 6 9 34 9 62 0 29 5 56 11 59 6 4 7 19 4 35 -4 16 -2 38 4 49 15

27 -2 108 -25 126 -13 10 -16 17 -8 22 6 5 14 26 17 48 3 22 10 59 16 83 8 30

8 49 1 62 -12 22 -36 26 -43 8z"/>

<path d="M12400 1515 c0 -3 6 -16 14 -28 8 -12 17 -38 20 -57 11 -59 51 -180

59 -180 10 0 -2 71 -14 85 -5 5 -9 28 -9 52 0 41 -25 111 -45 125 -12 9 -25

10 -25 3z"/>

<path d="M3383 1478 c2 -21 14 -44 35 -65 18 -17 32 -39 32 -47 0 -27 17 -18

39 20 32 53 28 70 -17 78 -22 3 -51 15 -65 26 l-26 21 2 -33z"/>

<path d="M10815 1490 c-3 -5 1 -10 10 -10 9 0 13 5 10 10 -3 6 -8 10 -10 10

-2 0 -7 -4 -10 -10z"/>

<path d="M1220 1480 c0 -5 5 -10 10 -10 6 0 10 5 10 10 0 6 -4 10 -10 10 -5 0

-10 -4 -10 -10z"/>

<path d="M10880 1470 c0 -5 5 -10 11 -10 5 0 7 5 4 10 -3 6 -8 10 -11 10 -2 0

-4 -4 -4 -10z"/>

<path d="M7005 1460 c-3 -5 1 -10 9 -10 9 0 16 5 16 10 0 6 -4 10 -9 10 -6 0

-13 -4 -16 -10z"/>

<path d="M9461 1456 c-19 -23 4 -28 24 -6 15 17 16 20 3 20 -9 0 -21 -6 -27

-14z"/>

<path d="M1181 1423 c1 -34 2 -35 9 -13 11 36 11 50 0 50 -5 0 -10 -17 -9 -37z"/>

<path d="M10910 1450 c0 -5 5 -10 10 -10 6 0 10 5 10 10 0 6 -4 10 -10 10 -5

0 -10 -4 -10 -10z"/>

<path d="M1980 1420 c0 -5 5 -10 11 -10 5 0 7 5 4 10 -3 6 -8 10 -11 10 -2 0

-4 -4 -4 -10z"/>

<path d="M8598 1407 c-3 -16 1 -28 12 -35 13 -8 18 -5 27 19 6 16 8 29 3 29

-5 0 -15 3 -23 6 -10 3 -16 -3 -19 -19z"/>

<path d="M12590 1416 c0 -8 5 -27 10 -42 6 -15 13 -39 15 -53 8 -46 16 -86 23

-101 3 -8 6 -22 7 -30 3 -22 25 -117 41 -170 7 -25 18 -72 24 -105 6 -33 17

-78 24 -100 13 -38 28 -147 42 -312 3 -40 10 -73 15 -73 5 0 9 138 9 323 l0

322 -33 15 c-23 11 -32 22 -32 40 0 14 -5 34 -12 45 -6 11 -9 33 -6 48 5 23 1

29 -16 34 -12 3 -21 13 -21 24 0 28 -62 149 -77 149 -7 0 -13 -6 -13 -14z"/>

<path d="M11663 1367 c9 -69 15 -87 33 -87 18 0 31 30 17 39 -13 8 -25 41 -27

70 0 13 -7 26 -15 29 -11 4 -13 -6 -8 -51z"/>

<path d="M6930 1379 c0 -5 5 -7 10 -4 6 3 10 8 10 11 0 2 -4 4 -10 4 -5 0 -10

-5 -10 -11z"/>

<path d="M9180 1348 c0 -38 38 -120 53 -115 6 2 14 10 17 18 4 8 13 28 22 45

13 26 13 33 1 50 -8 12 -23 18 -37 16 -13 -2 -27 2 -31 7 -12 21 -25 11 -25

-21z"/>

<path d="M5570 1365 c0 -11 49 -55 62 -55 7 0 -2 14 -20 30 -33 30 -42 35 -42

25z"/>

<path d="M10120 1356 c0 -8 5 -18 10 -21 6 -3 10 3 10 14 0 12 -4 21 -10 21

-5 0 -10 -6 -10 -14z"/>

<path d="M11907 1363 c-12 -11 -8 -23 8 -23 8 0 15 7 15 15 0 16 -12 20 -23 8z"/>

<path d="M841 1334 c-14 -32 -4 -46 27 -37 18 4 22 12 20 32 -4 35 -31 38 -47

5z"/>

<path d="M8443 1330 c-28 -11 -30 -20 -4 -20 10 0 21 7 25 15 3 8 4 15 3 14

-1 0 -12 -4 -24 -9z"/>

<path d="M9053 1319 c4 -13 -1 -26 -14 -37 -10 -9 -19 -24 -19 -33 0 -25 33

-49 58 -42 26 6 30 48 7 79 -8 10 -15 27 -15 37 0 9 -5 17 -11 17 -7 0 -9 -9

-6 -21z"/>

<path d="M3438 1324 c-5 -4 -8 -19 -8 -34 0 -14 -4 -30 -9 -35 -15 -18 -33

-79 -37 -133 -2 -30 -9 -62 -14 -72 -6 -10 -10 -30 -10 -44 0 -14 -4 -28 -10

-31 -15 -9 -12 -22 5 -29 21 -8 51 29 59 72 4 20 9 73 12 117 2 44 9 96 15

116 12 37 9 86 -3 73z"/>

<path d="M3330 1290 c0 -5 5 -10 10 -10 6 0 10 5 10 10 0 6 -4 10 -10 10 -5 0

-10 -4 -10 -10z"/>

<path d="M8335 1278 c-8 -21 1 -38 21 -38 18 0 18 11 0 36 -13 17 -15 18 -21

2z"/>

<path d="M5650 1270 c0 -5 7 -10 15 -10 8 0 15 5 15 10 0 6 -7 10 -15 10 -8 0

-15 -4 -15 -10z"/>

<path d="M10120 1250 c0 -32 11 -38 28 -17 7 8 7 17 -2 30 -19 25 -26 21 -26

-13z"/>

<path d="M5715 1261 c-25 -5 -27 -8 -12 -14 27 -10 34 -9 41 8 3 8 4 14 3 14

-1 -1 -15 -4 -32 -8z"/>

<path d="M5800 1225 c0 -8 7 -15 15 -15 8 0 15 4 15 9 0 5 -7 11 -15 15 -9 3

-15 0 -15 -9z"/>

<path d="M3786 1188 c-8 -12 -13 -25 -10 -30 3 -5 -2 -16 -12 -23 -18 -13 -18

-14 1 -29 28 -22 35 -20 35 9 0 19 5 25 21 25 17 0 20 4 15 23 -3 12 -6 28 -6

35 0 20 -28 14 -44 -10z"/>

<path d="M8660 1199 c0 -5 5 -7 10 -4 6 3 10 8 10 11 0 2 -4 4 -10 4 -5 0 -10

-5 -10 -11z"/>

<path d="M8914 1198 c-5 -8 -17 -17 -26 -21 -10 -3 -18 -16 -18 -27 0 -20 1

-20 16 -6 8 9 24 16 35 16 20 0 24 16 10 39 -7 11 -10 11 -17 -1z"/>

<path d="M5920 1185 c0 -8 9 -15 19 -15 11 0 27 -7 35 -16 18 -18 67 -15 74 4

3 9 -3 11 -21 7 -17 -5 -28 -2 -34 8 -12 21 -73 31 -73 12z"/>

<path d="M12030 1185 c0 -8 5 -15 10 -15 6 0 10 7 10 15 0 8 -4 15 -10 15 -5

0 -10 -7 -10 -15z"/>

<path d="M1125 1168 c10 -34 23 -44 31 -25 6 18 -11 47 -28 47 -5 0 -6 -10 -3

-22z"/>

<path d="M8117 1173 c-4 -3 -7 -17 -7 -29 0 -12 -7 -30 -16 -39 -13 -12 -15

-32 -13 -98 4 -77 3 -82 -16 -82 -11 0 -24 -6 -28 -13 -5 -7 -12 -10 -18 -7

-5 4 -9 1 -9 -5 0 -17 31 -24 49 -12 9 7 25 16 36 21 41 18 50 41 60 157 10

112 10 114 -11 114 -11 0 -24 -3 -27 -7z"/>

<path d="M9240 1156 c0 -14 5 -28 10 -31 6 -3 10 -21 10 -40 0 -19 5 -37 10

-40 6 -3 10 -17 10 -31 0 -15 6 -24 16 -24 12 0 14 -7 9 -30 -6 -27 6 -81 26

-122 5 -10 9 -30 9 -45 0 -29 21 -97 33 -109 4 -4 7 -18 7 -30 0 -13 5 -26 11

-30 12 -7 9 35 -6 69 -5 12 -3 17 9 17 14 0 16 7 10 38 -4 20 -11 43 -17 50

-6 8 -11 34 -12 58 0 28 -6 49 -15 54 -10 6 -15 26 -15 60 0 38 -5 55 -18 65

-12 8 -14 16 -8 20 6 3 11 17 11 30 0 18 -9 29 -35 41 -19 9 -35 22 -35 30 0

7 -4 16 -10 19 -6 3 -10 -5 -10 -19z"/>

<path d="M8660 1160 c0 -5 5 -10 11 -10 5 0 7 5 4 10 -3 6 -8 10 -11 10 -2 0

-4 -4 -4 -10z"/>

<path d="M12295 1150 c-4 -6 -3 -16 3 -22 6 -6 12 -6 17 2 4 6 3 16 -3 22 -6

6 -12 6 -17 -2z"/>

<path d="M12385 1139 c-4 -5 -18 -14 -31 -19 -13 -5 -32 -25 -41 -45 -16 -33

-16 -37 -1 -51 13 -14 22 -15 48 -5 18 6 36 8 41 5 5 -3 9 1 9 9 0 8 9 22 21

33 17 15 18 20 6 29 -8 5 -17 20 -21 33 -8 24 -21 29 -31 11z"/>

<path d="M4180 1118 c0 -19 2 -20 10 -8 13 19 13 30 0 30 -5 0 -10 -10 -10

-22z"/>

<path d="M12772 1128 c6 -18 28 -21 28 -4 0 9 -7 16 -16 16 -9 0 -14 -5 -12

-12z"/>

<path d="M10128 1119 c-6 -17 3 -89 11 -89 4 0 14 11 21 25 10 19 11 30 2 50

-12 26 -28 33 -34 14z"/>

<path d="M1115 1110 c-8 -12 3 -50 14 -50 5 0 14 7 21 15 10 11 9 18 -3 30

-18 18 -24 19 -32 5z"/>

<path d="M8688 1074 c-5 -4 -8 -16 -8 -28 0 -14 3 -17 11 -9 6 6 9 19 7 28 -1

9 -6 13 -10 9z"/>

<path d="M9107 1072 c-15 -3 -17 -9 -12 -30 4 -15 8 -34 8 -42 0 -8 6 -23 14

-32 8 -9 14 -29 12 -45 -1 -15 3 -39 8 -53 11 -26 20 -55 48 -155 26 -89 49

-144 57 -139 5 3 8 33 7 67 -1 54 -7 89 -27 147 -3 8 -6 27 -7 42 -2 16 -10

39 -19 53 -9 13 -16 37 -16 53 0 15 -9 38 -21 50 -12 13 -18 30 -15 40 8 24

-14 50 -37 44z"/>

<path d="M4140 1044 c0 -8 5 -12 10 -9 6 3 10 10 10 16 0 5 -4 9 -10 9 -5 0

-10 -7 -10 -16z"/>

<path d="M12016 1043 c-12 -12 -6 -33 9 -33 8 0 15 6 15 14 0 17 -14 28 -24

19z"/>

<path d="M1107 1023 c-23 -6 -47 -65 -47 -114 0 -42 4 -46 24 -26 24 23 36 56

39 102 1 25 2 44 2 44 0 -1 -8 -3 -18 -6z"/>

<path d="M4110 990 c-7 -16 -15 -30 -19 -30 -3 0 -12 -13 -19 -30 -7 -16 -27

-44 -43 -61 -16 -17 -29 -39 -29 -49 0 -10 -8 -21 -17 -24 -10 -4 -34 -29 -53

-56 -19 -27 -38 -50 -42 -50 -5 0 -8 -7 -8 -15 0 -9 -7 -18 -15 -21 -13 -5

-23 -44 -11 -44 13 0 107 55 136 80 19 17 40 30 46 30 7 0 15 7 18 16 3 8 2

12 -4 9 -6 -3 -10 5 -10 19 0 16 7 27 20 31 19 6 28 25 13 25 -5 0 -9 15 -10

33 -1 25 5 38 23 52 13 10 24 25 24 34 0 9 7 29 15 45 17 33 18 36 6 36 -5 0

-14 -13 -21 -30z"/>

<path d="M8686 993 c4 -16 8 -38 8 -50 1 -13 5 -23 9 -23 15 0 20 33 9 51 -7

10 -12 26 -12 34 0 8 -5 15 -11 15 -7 0 -9 -9 -3 -27z"/>

<path d="M9698 998 c-6 -17 3 -58 12 -58 4 0 10 8 12 18 6 22 -18 60 -24 40z"/>

<path d="M12042 979 c5 -15 -1 -24 -44 -71 -16 -16 -28 -34 -28 -39 0 -14 94

2 108 19 7 9 10 23 6 32 -3 8 -7 26 -8 40 0 16 -8 26 -20 28 -12 3 -17 -1 -14

-9z"/>

<path d="M2230 920 c0 -5 4 -10 9 -10 6 0 13 5 16 10 3 6 -1 10 -9 10 -9 0

-16 -4 -16 -10z"/>

<path d="M9709 893 c-1 -10 -1 -32 0 -50 2 -21 -5 -40 -18 -54 -20 -22 -20

-22 -1 -49 36 -50 47 -54 52 -18 3 18 1 46 -3 63 -5 16 -9 49 -9 72 0 41 -19

72 -21 36z"/>

<path d="M7687 870 c-10 -18 -12 -32 -6 -36 6 -4 6 -11 -1 -19 -13 -16 -10

-56 5 -56 5 0 14 24 21 53 6 29 14 61 19 71 13 31 -22 19 -38 -13z"/>

<path d="M11744 815 c3 -8 1 -15 -5 -15 -5 0 -7 -11 -3 -26 5 -18 1 -29 -11

-38 -19 -14 -9 -26 18 -22 20 3 57 35 57 50 0 6 -14 24 -31 39 -17 15 -29 20

-25 12z"/>

<path d="M8717 753 c-4 -18 -1 -32 9 -39 8 -6 14 -17 15 -25 1 -8 4 -3 8 11 7

21 -10 80 -23 80 -2 0 -6 -12 -9 -27z"/>

<path d="M10150 724 c0 -31 23 -28 28 4 2 15 -2 22 -12 22 -11 0 -16 -9 -16

-26z"/>

<path d="M12083 735 c-9 -25 4 -29 17 -6 7 15 7 21 0 21 -6 0 -13 -7 -17 -15z"/>

<path d="M11536 731 c-4 -5 3 -15 15 -21 18 -10 20 -9 17 6 -4 20 -23 30 -32

15z"/>

<path d="M8542 665 c1 -16 9 -30 16 -33 18 -6 15 33 -4 49 -14 11 -15 9 -12

-16z"/>

<path d="M11567 683 c-15 -15 -5 -23 29 -23 31 0 35 2 24 15 -13 16 -42 20

-53 8z"/>

<path d="M9707 673 c-7 -12 -1 -104 8 -132 5 -18 9 -21 16 -10 12 20 11 56 -3

79 -10 15 -10 22 0 32 16 16 15 38 -2 38 -8 0 -17 -3 -19 -7z"/>

<path d="M11432 673 c-23 -3 -32 -9 -28 -18 2 -7 -2 -19 -9 -25 -8 -7 -12 -16

-9 -21 9 -15 36 -10 49 8 7 10 26 18 41 19 64 2 74 4 74 14 0 6 -21 10 -46 10

-27 0 -43 4 -39 10 3 6 5 9 3 8 -2 0 -18 -3 -36 -5z"/>

<path d="M8756 603 c9 -111 27 -213 36 -213 6 0 8 -14 5 -32 -2 -18 0 -44 5

-58 10 -24 23 -95 35 -187 3 -24 8 -41 12 -38 10 6 3 102 -10 142 -6 18 -8 46

-4 62 4 18 1 40 -8 58 -8 16 -18 51 -22 78 -4 28 -12 55 -17 62 -5 7 -9 34 -8

60 2 53 -8 111 -21 118 -4 3 -5 -21 -3 -52z"/>

<path d="M9070 645 c0 -8 5 -15 10 -15 6 0 10 7 10 15 0 8 -4 15 -10 15 -5 0

-10 -7 -10 -15z"/>

<path d="M8900 631 c0 -12 5 -21 10 -21 6 0 10 6 10 14 0 8 -4 18 -10 21 -5 3

-10 -3 -10 -14z"/>

<path d="M8420 632 c0 -15 57 -30 76 -19 17 10 17 11 -1 18 -27 10 -75 11 -75

1z"/>

<path d="M8420 590 c0 -5 7 -10 16 -10 8 0 12 5 9 10 -3 6 -10 10 -16 10 -5 0

-9 -4 -9 -10z"/>

<path d="M9394 574 c4 -16 12 -53 17 -84 20 -119 32 -170 40 -170 12 0 11 74

-1 86 -5 5 -10 50 -12 99 -3 86 -4 90 -27 93 -21 3 -23 1 -17 -24z"/>

<path d="M11355 590 c-3 -5 1 -10 10 -10 9 0 13 5 10 10 -3 6 -8 10 -10 10 -2

0 -7 -4 -10 -10z"/>

<path d="M8360 571 c0 -5 7 -11 15 -15 9 -3 15 0 15 9 0 8 -7 15 -15 15 -8 0

-15 -4 -15 -9z"/>

<path d="M9270 544 c0 -14 -4 -23 -10 -19 -16 10 -12 -56 5 -89 8 -15 15 -39

15 -52 0 -12 5 -26 10 -29 6 -3 10 -19 10 -36 0 -16 4 -29 9 -29 12 0 26 101

15 109 -8 5 -12 29 -14 93 -1 10 -5 20 -11 23 -5 4 -9 17 -9 31 0 13 -4 24

-10 24 -5 0 -10 -12 -10 -26z"/>

<path d="M11034 559 c-10 -17 7 -29 37 -27 16 1 29 5 29 8 0 11 -60 28 -66 19z"/>

<path d="M12085 560 c3 -5 8 -10 11 -10 2 0 4 5 4 10 0 6 -5 10 -11 10 -5 0

-7 -4 -4 -10z"/>

<path d="M4221 524 c0 -11 3 -14 6 -6 3 7 2 16 -1 19 -3 4 -6 -2 -5 -13z"/>

<path d="M8935 530 c3 -5 8 -10 11 -10 2 0 4 5 4 10 0 6 -5 10 -11 10 -5 0 -7

-4 -4 -10z"/>

<path d="M12110 520 c0 -5 5 -10 10 -10 6 0 10 5 10 10 0 6 -4 10 -10 10 -5 0

-10 -4 -10 -10z"/>

<path d="M8295 510 c-3 -5 1 -10 9 -10 9 0 16 5 16 10 0 6 -4 10 -9 10 -6 0

-13 -4 -16 -10z"/>

<path d="M8210 490 c0 -6 -8 -10 -17 -8 -12 2 -19 -4 -21 -18 -2 -12 -12 -24

-23 -27 -14 -4 -19 -14 -19 -36 0 -17 5 -31 10 -31 6 0 10 6 10 13 0 16 37 51

63 60 18 7 25 57 7 57 -5 0 -10 -5 -10 -10z"/>

<path d="M12121 463 c-1 -17 36 -36 44 -23 3 5 -3 10 -14 10 -10 0 -22 6 -24

13 -4 9 -6 9 -6 0z"/>

<path d="M4214 414 c-6 -35 8 -85 23 -83 20 3 27 -2 14 -10 -9 -6 -11 -16 -6

-27 6 -17 9 -15 18 10 8 24 7 32 -7 42 -10 7 -16 18 -15 26 4 32 -2 78 -11 78

-5 0 -12 -16 -16 -36z"/>

<path d="M9135 440 c3 -5 8 -10 11 -10 2 0 4 5 4 10 0 6 -5 10 -11 10 -5 0 -7

-4 -4 -10z"/>

<path d="M8962 383 c2 -8 5 -13 8 -11 3 2 18 -5 32 -14 32 -21 48 -6 24 21

-20 22 -68 25 -64 4z"/>

<path d="M9718 370 c-3 -16 0 -34 5 -39 5 -5 5 -11 -2 -15 -7 -5 -7 -15 -1

-32 6 -14 7 -37 4 -51 -5 -19 -3 -24 7 -21 17 6 31 156 16 176 -15 20 -24 14

-29 -18z"/>

<path d="M10380 380 c0 -5 5 -10 10 -10 6 0 10 5 10 10 0 6 -4 10 -10 10 -5 0

-10 -4 -10 -10z"/>

<path d="M9150 338 c-12 -22 -12 -22 6 -6 10 10 15 20 12 24 -4 3 -12 -5 -18

-18z"/>

<path d="M10460 350 c0 -5 5 -10 10 -10 6 0 10 5 10 10 0 6 -4 10 -10 10 -5 0

-10 -4 -10 -10z"/>

<path d="M12167 354 c-7 -8 13 -64 23 -64 15 0 20 31 7 50 -12 21 -20 24 -30

14z"/>

<path d="M10380 330 c0 -5 5 -10 10 -10 6 0 10 5 10 10 0 6 -4 10 -10 10 -5 0

-10 -4 -10 -10z"/>

<path d="M7840 290 c0 -5 5 -10 10 -10 6 0 10 5 10 10 0 6 -4 10 -10 10 -5 0

-10 -4 -10 -10z"/>

<path d="M9460 256 c0 -8 5 -18 10 -21 6 -3 10 1 10 9 0 8 -4 18 -10 21 -5 3

-10 -1 -10 -9z"/>

<path d="M4260 233 c0 -4 5 -15 10 -23 8 -13 10 -13 10 2 0 9 -4 20 -10 23 -5

3 -10 3 -10 -2z"/>

<path d="M7790 222 c-17 -14 -21 -24 -15 -41 4 -14 12 -20 22 -17 8 3 23 6 33

6 14 0 40 42 40 66 0 12 -62 1 -80 -14z"/>

<path d="M12595 230 c-3 -5 -1 -10 4 -10 6 0 11 5 11 10 0 6 -2 10 -4 10 -3 0

-8 -4 -11 -10z"/>

<path d="M9700 154 c-28 -49 -24 -78 14 -82 44 -5 60 37 34 93 -15 33 -22 32

-48 -11z"/>

<path d="M10535 180 c3 -5 8 -10 11 -10 2 0 4 5 4 10 0 6 -5 10 -11 10 -5 0

-7 -4 -4 -10z"/>

<path d="M1074 148 c-4 -13 -15 -34 -25 -47 -11 -13 -19 -34 -19 -47 0 -12

-10 -30 -22 -38 -21 -15 -18 -16 52 -16 58 0 71 3 62 12 -7 7 -12 31 -12 54 0

86 -20 132 -36 82z"/>

<path d="M12220 115 c0 -24 5 -35 15 -35 15 0 20 26 9 54 -11 28 -24 17 -24

-19z"/>

<path d="M9350 132 c0 -2 5 -12 10 -23 15 -26 30 -24 30 5 0 19 -5 24 -20 23

-11 -1 -20 -3 -20 -5z"/>

<path d="M10500 125 c0 -8 7 -15 15 -15 8 0 15 -4 15 -10 0 -5 -4 -10 -10 -10

-5 0 -10 -9 -10 -20 0 -18 3 -19 20 -10 22 12 27 49 8 68 -17 17 -38 15 -38

-3z"/>

<path d="M728 108 c-10 -12 -18 -26 -18 -30 0 -15 21 -8 27 10 4 9 14 22 22

29 14 11 14 12 1 13 -8 0 -23 -10 -32 -22z"/>

<path d="M10160 69 c-7 -11 -9 -28 -5 -37 5 -15 9 -13 25 8 11 14 20 31 20 38

0 20 -28 14 -40 -9z"/>

<path d="M9380 70 c0 -5 5 -10 10 -10 6 0 10 5 10 10 0 6 -4 10 -10 10 -5 0

-10 -4 -10 -10z"/>

<path d="M560 55 c0 -8 5 -15 10 -15 6 0 10 7 10 15 0 8 -4 15 -10 15 -5 0

-10 -7 -10 -15z"/>

<path d="M7642 58 c-14 -14 -16 -42 -3 -34 7 5 23 46 17 46 -1 0 -7 -5 -14

-12z"/>

<path d="M697 34 c-24 -32 -22 -34 23 -34 22 0 40 5 40 10 0 6 -4 10 -10 10

-5 0 -10 6 -10 14 0 24 -24 24 -43 0z"/>

<path d="M3895 10 c-4 -6 3 -10 14 -10 25 0 27 6 6 13 -8 4 -17 2 -20 -3z"/>

</g>

</svg>

