<?xml version="1.0" standalone="no"?>
<!DOCTYPE svg PUBLIC "-//W3C//DTD SVG 20010904//EN"
 "http://www.w3.org/TR/2001/REC-SVG-20010904/DTD/svg10.dtd">
<svg version="1.0" xmlns="http://www.w3.org/2000/svg"
 width="1280.000000" height="960.000000" viewBox="0 0 1280.000000 960.000000"
 preserveAspectRatio="xMidYMid meet">
<metadata>
Created by potrace 1.13, written by Peter Selinger 2001-2015
</metadata>
<g transform="translate(0.000000,960.000000) scale(0.100000,-0.100000)"
fill="#000000" stroke="none">
<path d="M7912 9570 c1 -37 17 -50 25 -21 6 25 19 27 30 6 7 -13 18 -13 63 -5
30 5 71 9 90 9 19 0 67 5 105 11 39 7 85 11 103 11 17 -1 32 3 32 9 0 6 -77
10 -224 10 l-225 0 1 -30z"/>
<path d="M7810 9530 c0 -5 9 -10 20 -10 11 0 20 5 20 10 0 6 -9 10 -20 10 -11
0 -20 -4 -20 -10z"/>
<path d="M7411 9493 c-6 -11 -13 -12 -35 -3 -15 5 -33 7 -39 3 -7 -4 -20 -6
-29 -5 -10 2 -18 0 -18 -5 1 -31 63 -57 107 -44 17 5 35 6 39 3 4 -4 5 0 1 10
-9 24 2 29 29 11 22 -14 26 -14 49 1 14 9 25 21 25 26 0 14 -18 12 -23 -2 -3
-10 -7 -10 -18 -2 -23 18 -79 23 -88 7z"/>
<path d="M7600 9500 c-12 -7 -12 -12 -2 -22 10 -10 17 -10 32 0 11 6 27 12 35
12 8 0 15 5 15 10 0 13 -60 13 -80 0z"/>
<path d="M7200 9445 c-5 -12 -15 -25 -22 -28 -18 -6 -7 -16 23 -19 18 -2 24 2
23 15 -1 10 5 17 17 17 13 0 17 -5 12 -16 -4 -12 -2 -15 8 -10 8 3 22 9 32 12
9 4 17 10 17 14 0 4 -8 10 -17 13 -10 3 -33 10 -51 16 -30 9 -34 8 -42 -14z"/>
<path d="M7018 9436 c-10 -7 -18 -25 -18 -40 0 -24 2 -25 20 -14 11 7 20 21
20 30 0 10 5 18 10 18 6 0 10 5 10 10 0 14 -22 12 -42 -4z"/>
<path d="M7067 9410 c-21 -24 -21 -30 -3 -30 7 0 16 10 19 22 8 30 4 31 -16 8z"/>
<path d="M6864 9382 c-12 -9 -25 -28 -29 -41 -7 -22 -5 -23 21 -17 16 3 45 9
66 12 38 7 60 41 35 56 -8 5 -14 -1 -17 -15 -8 -31 -46 -31 -42 1 4 26 -5 28
-34 4z"/>
<path d="M6753 9363 c-13 -2 -23 -9 -23 -14 0 -5 -17 -7 -39 -3 -24 4 -41 2
-45 -5 -4 -6 -19 -11 -34 -11 -34 0 -17 -18 35 -36 31 -11 40 -11 53 1 10 9
25 12 40 8 18 -5 22 -3 17 9 -4 11 1 18 14 21 17 5 29 39 12 36 -5 -1 -18 -4
-30 -6z"/>
<path d="M6460 9320 c-6 -11 -19 -20 -29 -20 -32 0 -46 -27 -31 -55 14 -26 36
-35 27 -11 -3 8 0 22 6 31 10 13 18 14 41 6 31 -12 46 -7 46 14 0 8 9 19 20
25 11 6 18 15 15 21 -4 5 -14 5 -28 -2 -16 -9 -22 -9 -25 0 -6 18 -30 13 -42
-9z"/>
<path d="M6550 9285 c0 -8 7 -15 15 -15 8 0 15 7 15 15 0 8 -7 15 -15 15 -8 0
-15 -7 -15 -15z"/>
<path d="M6213 9280 c-13 -5 -23 -16 -23 -25 0 -19 -8 -19 -53 0 -31 13 -39
13 -63 0 -15 -7 -39 -11 -54 -9 -21 5 -28 1 -37 -19 -9 -19 -17 -24 -32 -20
-12 3 -27 0 -35 -6 -11 -9 -15 -8 -20 5 -5 13 -9 15 -18 6 -17 -17 -43 -15
-59 4 -12 14 -14 14 -20 -4 -6 -15 -21 -20 -70 -26 -41 -4 -66 -12 -72 -22 -5
-9 -16 -13 -28 -9 -11 4 -26 2 -34 -5 -9 -7 -15 -8 -20 0 -9 15 -35 12 -35 -5
0 -8 7 -15 15 -15 8 0 15 -5 15 -11 0 -11 50 -6 86 8 9 3 14 0 12 -8 -3 -15 9
-15 88 -3 30 4 45 13 55 30 14 27 59 34 59 9 0 -10 11 -15 35 -15 19 0 35 5
35 11 0 6 9 8 20 4 12 -4 31 0 45 9 13 9 31 16 40 16 9 0 27 8 41 17 25 16 27
16 36 0 12 -23 44 -21 65 3 13 15 20 17 30 8 10 -8 20 -8 39 1 14 6 38 11 53
11 16 0 35 7 42 16 11 14 10 16 -6 13 -11 -1 -31 3 -45 9 -14 6 -19 11 -12 11
6 1 12 6 12 11 0 12 -57 12 -87 0z m42 -20 c3 -5 1 -10 -4 -10 -6 0 -11 5 -11
10 0 6 2 10 4 10 3 0 8 -4 11 -10z m-200 -50 c3 -5 -1 -10 -10 -10 -9 0 -13 5
-10 10 3 6 8 10 10 10 2 0 7 -4 10 -10z"/>
<path d="M5474 9146 c-4 -9 -4 -20 0 -23 3 -4 12 -1 18 5 9 9 9 15 0 24 -9 9
-13 7 -18 -6z"/>
<path d="M5365 9120 c-3 -5 -19 -10 -35 -10 -16 0 -32 -5 -35 -10 -4 -6 -19
-9 -33 -8 -23 3 -27 -1 -30 -25 -3 -27 -2 -27 37 -21 22 3 54 1 71 -5 28 -9
33 -8 37 9 4 15 11 18 28 14 16 -4 26 1 38 20 21 32 21 36 -2 36 -10 0 -21 -9
-24 -20 -7 -28 -27 -25 -27 5 0 25 -14 33 -25 15z"/>
<path d="M5497 9103 c-10 -3 -16 -10 -14 -16 5 -17 52 -15 52 2 0 16 -12 21
-38 14z"/>
<path d="M5080 9051 c0 -5 4 -21 10 -36 9 -24 10 -25 28 -8 17 16 17 20 4 36
-16 18 -42 23 -42 8z"/>
<path d="M5162 9043 c4 -21 27 -27 48 -13 13 9 13 11 0 20 -25 16 -52 12 -48
-7z"/>
<path d="M4945 9023 c-22 -3 -43 -10 -47 -16 -5 -9 -10 -9 -20 1 -28 28 -40
-6 -14 -41 12 -16 20 -17 53 -8 21 5 64 13 96 16 31 4 57 11 57 15 0 13 -48
40 -67 38 -10 -1 -36 -3 -58 -5z"/>
<path d="M4698 8978 c-54 -28 -51 -54 5 -52 23 1 50 4 60 8 9 3 23 8 31 10 21
7 8 46 -14 46 -10 0 -24 2 -32 4 -7 2 -30 -5 -50 -16z"/>
<path d="M4490 8922 c0 -11 51 -35 58 -28 2 3 2 12 -1 21 -7 15 -57 22 -57 7z"/>
<path d="M4415 8900 c3 -5 12 -10 20 -10 7 0 15 -6 18 -12 4 -10 7 -10 18 0
12 11 12 14 -1 22 -20 13 -63 13 -55 0z"/>
<path d="M4290 8893 c-14 -2 -51 -11 -82 -19 -39 -10 -64 -11 -81 -5 -20 8
-29 6 -43 -10 -9 -10 -24 -19 -33 -19 -18 -1 -51 -23 -51 -34 0 -10 82 3 95
15 14 14 35 11 35 -6 0 -8 6 -15 14 -15 7 0 19 7 26 15 7 8 22 15 33 15 11 0
28 6 36 14 22 19 69 28 73 15 5 -16 73 4 73 22 0 15 -47 21 -95 12z"/>
<path d="M3937 8834 c-13 -13 -7 -24 14 -24 11 0 19 5 17 12 -5 14 -22 21 -31
12z"/>
<path d="M1390 8799 c0 -5 5 -7 10 -4 6 3 10 8 10 11 0 2 -4 4 -10 4 -5 0 -10
-5 -10 -11z"/>
<path d="M3649 8788 c-6 -23 -2 -78 6 -78 17 0 38 17 32 26 -3 5 18 9 46 9 27
0 52 5 54 11 2 6 -13 10 -39 9 -24 -1 -55 5 -70 12 -16 8 -28 12 -29 11z"/>
<path d="M3610 8745 c-17 -21 -9 -27 13 -10 10 7 14 16 9 19 -5 3 -15 -1 -22
-9z"/>
<path d="M3500 8731 c0 -17 3 -18 35 -8 19 6 35 14 35 19 0 4 -16 8 -35 8 -28
0 -35 -4 -35 -19z"/>
<path d="M1820 8699 c0 -5 5 -7 10 -4 6 3 10 8 10 11 0 2 -4 4 -10 4 -5 0 -10
-5 -10 -11z"/>
<path d="M3150 8660 c0 -5 5 -10 10 -10 6 0 10 5 10 10 0 6 -4 10 -10 10 -5 0
-10 -4 -10 -10z"/>
<path d="M3050 8650 c-8 -5 -12 -12 -9 -15 8 -8 39 5 39 16 0 11 -11 11 -30
-1z"/>
<path d="M7241 8014 c-16 -20 -18 -30 -10 -40 9 -11 15 -10 35 3 28 18 47 47
37 57 -14 14 -43 4 -62 -20z"/>
<path d="M7658 8021 c-6 -10 -18 -17 -25 -14 -8 3 -13 -3 -13 -16 0 -15 6 -21
23 -21 29 0 62 34 54 55 -8 20 -24 19 -39 -4z"/>
<path d="M6860 7953 l-32 -27 22 -18 c26 -21 59 -9 62 22 0 11 1 25 2 32 2 22
-22 19 -54 -9z"/>
<path d="M8050 7960 c-6 -11 -17 -20 -25 -20 -8 0 -15 -4 -15 -10 0 -11 30
-13 54 -4 17 7 22 39 7 49 -6 3 -15 -4 -21 -15z"/>
<path d="M7400 7920 c0 -6 7 -10 15 -10 8 0 17 0 20 0 16 0 6 14 -12 16 -13 2
-23 -1 -23 -6z"/>
<path d="M8196 7913 c-12 -12 -6 -33 9 -33 8 0 15 6 15 14 0 17 -14 28 -24 19z"/>
<path d="M6946 7878 c-27 -33 -35 -54 -15 -42 7 4 25 7 41 6 34 -1 44 17 28
47 -15 28 -23 27 -54 -11z"/>
<path d="M7256 7895 c-4 -12 -1 -16 11 -13 18 3 21 20 5 26 -5 1 -12 -4 -16
-13z"/>
<path d="M6674 7865 c-4 -8 -1 -21 5 -28 8 -10 5 -19 -14 -35 -14 -12 -25 -27
-25 -33 0 -16 81 -4 95 14 5 7 15 12 22 10 16 -6 25 14 18 38 -5 15 -10 18
-18 10 -19 -19 -47 -12 -57 14 -11 29 -18 31 -26 10z"/>
<path d="M7095 7869 c-12 -19 5 -23 22 -6 16 16 16 17 1 17 -9 0 -20 -5 -23
-11z"/>
<path d="M6505 7857 c-22 -11 -57 -74 -45 -82 16 -10 75 31 78 54 5 30 -7 40
-33 28z"/>
<path d="M8185 7839 c-4 -6 -5 -12 -2 -15 2 -3 7 2 10 11 7 17 1 20 -8 4z"/>
<path d="M8434 7804 c3 -9 6 -28 6 -42 l0 -27 15 28 c16 31 11 57 -12 57 -10
0 -13 -6 -9 -16z"/>
<path d="M6583 7773 c-15 -5 -17 -29 -4 -37 4 -3 13 6 19 19 11 25 9 28 -15
18z"/>
<path d="M8530 7750 c0 -12 37 -50 49 -50 18 0 54 37 47 48 -9 15 -96 16 -96
2z"/>
<path d="M6530 7731 c-17 -33 -12 -46 10 -26 21 19 27 45 10 45 -5 0 -14 -9
-20 -19z"/>
<path d="M7180 7725 c-101 -15 -255 -41 -325 -56 -79 -17 -278 -81 -296 -96
-8 -7 -22 -13 -29 -13 -13 0 -110 -42 -140 -60 -8 -5 -62 -33 -120 -62 -58
-29 -106 -56 -108 -60 -2 -4 -19 -15 -39 -24 -19 -9 -47 -30 -63 -45 -16 -16
-32 -29 -36 -29 -4 0 -14 -7 -23 -15 -33 -31 -77 -68 -108 -92 -18 -14 -35
-32 -38 -41 -3 -10 -21 -28 -40 -41 -20 -13 -34 -30 -31 -36 2 -7 -6 -18 -20
-25 -23 -13 -44 -41 -91 -122 -11 -21 -28 -44 -36 -52 -18 -19 -46 -76 -87
-181 -53 -134 -69 -267 -50 -420 6 -55 16 -109 20 -120 5 -11 16 -46 25 -77 8
-32 20 -58 25 -58 6 0 10 -7 10 -15 0 -9 11 -27 25 -41 14 -14 25 -28 25 -32
0 -11 160 -172 200 -202 49 -36 97 -60 121 -60 18 0 14 6 -22 38 -161 141
-228 220 -291 342 -41 79 -52 122 -69 260 -8 61 -7 95 0 121 6 21 9 44 5 52
-19 50 97 337 167 413 10 11 19 24 19 30 0 9 12 24 93 118 40 46 54 60 150
151 77 73 215 167 337 229 30 16 64 33 75 39 100 53 292 131 395 158 41 11 98
27 126 34 120 33 274 44 539 40 304 -5 353 -8 445 -29 77 -18 100 -20 100 -8
0 14 -85 41 -150 48 -36 4 -70 10 -76 15 -37 29 -467 46 -614 24z"/>
<path d="M6420 7716 c0 -9 -11 -23 -25 -32 -14 -9 -25 -23 -25 -30 0 -19 9
-18 48 6 24 15 32 27 30 42 -4 25 -28 37 -28 14z"/>
<path d="M8654 7707 c3 -12 6 -25 6 -29 0 -4 10 -7 23 -5 18 2 23 -3 25 -33 2
-19 12 -43 23 -53 10 -10 19 -24 19 -31 0 -7 11 -18 25 -24 14 -6 25 -16 25
-21 0 -5 5 -22 10 -36 8 -22 13 -25 25 -15 11 9 19 8 39 -7 14 -10 27 -27 30
-38 3 -11 17 -33 32 -48 20 -22 25 -35 20 -57 -3 -16 -2 -32 3 -34 4 -3 16
-27 26 -53 9 -26 28 -65 42 -85 33 -48 45 -185 19 -207 -21 -17 -20 -55 1 -91
14 -25 15 -34 3 -69 -7 -22 -10 -56 -7 -77 7 -41 -16 -126 -39 -145 -8 -6 -14
-24 -14 -40 0 -19 -5 -29 -15 -29 -8 0 -15 -5 -15 -11 0 -6 -11 -33 -25 -61
-33 -66 -32 -101 3 -66 9 9 12 9 12 -1 0 -7 -14 -24 -31 -38 -17 -15 -35 -37
-40 -50 -5 -12 -16 -23 -25 -23 -11 0 -14 -5 -10 -16 4 -11 2 -15 -8 -11 -20
8 -36 -13 -36 -45 0 -33 -24 -84 -42 -91 -7 -2 -18 5 -25 17 l-12 21 -1 -22
c0 -35 -11 -53 -31 -53 -17 0 -25 -22 -20 -53 3 -16 -20 -47 -34 -47 -8 0 -15
-4 -15 -8 0 -5 -13 -23 -29 -41 -29 -32 -51 -34 -51 -5 0 19 -14 18 -31 -2
-11 -14 -10 -19 8 -34 20 -16 21 -19 7 -39 -9 -12 -26 -21 -40 -21 -13 0 -24
-6 -24 -13 0 -8 -11 -19 -25 -25 -35 -16 -36 -16 -29 13 5 19 2 25 -10 25 -10
0 -16 -8 -16 -21 0 -12 -8 -23 -19 -26 -12 -3 -25 -21 -33 -46 -15 -47 -55
-70 -86 -50 -18 11 -19 11 -94 -50 -16 -12 -28 -29 -28 -39 0 -9 -6 -18 -12
-20 -21 -7 17 -55 49 -61 20 -4 31 0 41 14 7 10 19 19 26 19 8 0 19 7 26 15 7
8 16 12 21 9 8 -5 97 50 109 67 3 5 27 18 53 29 26 12 47 26 47 31 0 20 74 89
95 89 25 1 59 25 51 38 -7 12 106 141 137 156 13 7 23 23 25 40 2 17 17 40 38
58 19 17 34 37 34 45 0 14 71 122 101 153 9 10 19 39 23 66 4 32 15 59 31 76
14 15 27 45 31 70 4 24 15 51 26 61 12 12 17 26 13 38 -4 10 0 28 9 40 9 13
12 33 9 54 -4 25 0 38 17 55 19 19 21 26 11 42 -16 25 -23 130 -10 138 6 5 7
21 1 47 -6 26 -6 47 1 59 6 10 10 34 8 52 -1 19 4 40 10 48 9 11 8 18 -5 32
-9 10 -16 27 -16 36 0 13 -6 17 -20 13 -20 -5 -28 7 -11 18 6 3 4 17 -5 33 -7
15 -14 33 -14 40 0 6 -3 12 -7 12 -5 0 -9 11 -9 25 -1 14 2 25 7 25 14 0 11
20 -3 20 -7 1 -23 9 -36 20 -17 14 -21 25 -16 44 4 17 2 26 -5 26 -7 0 -19 16
-27 35 -8 20 -23 44 -34 55 -11 11 -20 25 -20 30 0 6 -7 10 -15 10 -8 0 -15 5
-15 10 0 6 -10 10 -23 10 -15 0 -48 25 -98 73 -79 78 -126 104 -115 64z"/>
<path d="M6126 7669 c-21 -22 -36 -43 -33 -46 4 -3 22 -7 41 -8 27 -3 36 1 45
21 14 33 14 49 -2 63 -10 8 -22 1 -51 -30z"/>
<path d="M6236 7636 c-9 -14 -16 -30 -16 -35 0 -5 -9 -12 -19 -16 -26 -8 -54
-52 -40 -61 15 -9 57 15 64 36 3 9 20 23 38 31 24 10 32 20 32 39 0 35 -37 39
-59 6z"/>
<path d="M8126 7599 c6 -10 65 -39 79 -39 3 0 5 7 5 15 0 10 -10 15 -29 15
-17 0 -33 5 -36 10 -3 6 -11 10 -16 10 -6 0 -7 -5 -3 -11z"/>
<path d="M5925 7541 c-15 -25 -33 -41 -45 -41 -23 0 -36 -18 -22 -32 8 -8 19
-8 39 0 15 6 41 13 56 17 26 5 28 9 25 47 -4 55 -21 58 -53 9z"/>
<path d="M7470 7550 c0 -11 5 -20 10 -20 6 0 10 9 10 20 0 11 -4 20 -10 20 -5
0 -10 -9 -10 -20z"/>
<path d="M8247 7544 c-8 -8 1 -24 14 -24 5 0 9 7 9 15 0 15 -12 20 -23 9z"/>
<path d="M6040 7520 c0 -30 -97 -122 -125 -118 -12 1 -28 -2 -36 -9 -8 -6 -23
-12 -34 -14 -18 -4 -65 -61 -65 -80 0 -5 10 -14 22 -20 19 -10 26 -6 64 35 24
25 49 46 57 46 7 0 33 18 57 40 25 22 59 53 77 68 38 31 40 40 16 58 -25 19
-33 17 -33 -6z"/>
<path d="M7145 7495 c-32 -18 -51 -22 -93 -18 -43 4 -60 0 -96 -21 -25 -14
-51 -26 -59 -26 -21 0 -26 -19 -33 -116 -7 -80 -6 -84 14 -84 22 0 45 49 35
76 -9 23 26 54 62 54 45 0 69 -29 61 -73 -8 -41 -1 -49 32 -36 18 7 35 6 56
-2 26 -11 31 -11 40 5 6 10 19 27 29 39 17 20 17 22 -13 45 -23 18 -30 31 -30
58 0 34 12 51 65 88 21 14 24 20 14 27 -21 13 -40 9 -84 -16z"/>
<path d="M8347 7483 c-10 -9 -9 -23 2 -23 5 0 11 7 15 15 5 15 -5 20 -17 8z"/>
<path d="M7296 7430 c5 -38 3 -55 -8 -68 -9 -9 -19 -27 -22 -39 -7 -21 -4 -23
27 -23 30 0 37 4 46 31 12 35 15 108 5 133 -3 9 -17 16 -30 16 -24 0 -24 -2
-18 -50z"/>
<path d="M8380 7470 c0 -5 5 -10 11 -10 5 0 7 5 4 10 -3 6 -8 10 -11 10 -2 0
-4 -4 -4 -10z"/>
<path d="M6730 7456 c0 -9 5 -16 10 -16 6 0 10 4 10 9 0 6 -4 13 -10 16 -5 3
-10 -1 -10 -9z"/>
<path d="M8410 7435 c0 -8 7 -15 15 -15 8 0 15 4 15 9 0 5 -7 11 -15 15 -9 3
-15 0 -15 -9z"/>
<path d="M7644 7409 c-3 -6 -1 -16 5 -22 9 -9 14 -8 21 3 9 15 4 30 -10 30 -5
0 -12 -5 -16 -11z"/>
<path d="M8480 7382 c0 -10 21 -32 32 -32 16 0 8 19 -12 30 -11 6 -20 7 -20 2z"/>
<path d="M7582 7369 c-23 -9 -23 -12 -20 -117 3 -100 5 -110 25 -119 20 -10
21 -8 16 26 -3 20 -10 44 -14 53 -13 24 -12 48 1 28 8 -12 10 -12 16 3 3 9 4
24 0 32 -3 8 3 19 13 25 26 13 33 37 18 60 -13 22 -21 23 -55 9z"/>
<path d="M8530 7341 c0 -4 11 -20 25 -35 14 -15 25 -31 25 -36 0 -5 9 -14 20
-20 11 -6 20 -17 20 -24 0 -7 9 -21 20 -31 11 -10 20 -24 20 -30 0 -7 8 -23
18 -36 64 -83 101 -341 68 -479 -8 -36 -19 -81 -24 -100 -14 -55 -99 -221
-143 -279 -21 -28 -39 -55 -39 -60 0 -5 -3 -11 -7 -13 -5 -1 -23 -21 -42 -43
-81 -95 -147 -165 -156 -165 -6 0 -18 -8 -26 -17 -31 -36 -89 -83 -100 -83 -7
0 -21 -9 -33 -20 -12 -11 -39 -36 -61 -55 -49 -42 -42 -46 10 -5 21 17 44 30
51 30 8 0 14 5 14 11 0 5 15 16 33 24 17 7 52 32 77 54 24 23 47 41 50 41 11
0 136 124 171 170 116 149 219 335 219 395 0 17 4 35 8 41 19 21 30 95 31 209
1 127 -9 193 -40 261 -11 23 -19 50 -19 61 0 10 -9 29 -20 41 -11 12 -20 26
-20 32 0 5 -4 10 -8 10 -5 0 -19 19 -32 42 -22 40 -91 118 -104 118 -3 0 -6
-4 -6 -9z"/>
<path d="M5644 7300 c-10 -25 -23 -40 -33 -40 -19 0 -45 -45 -36 -61 4 -5 14
-5 27 2 32 17 52 -8 37 -48 -6 -17 -17 -34 -25 -37 -17 -7 -19 -46 -1 -46 20
0 32 13 53 56 11 22 25 39 32 36 7 -2 12 1 12 7 0 6 6 11 14 11 15 0 51 48 42
57 -3 3 2 12 12 19 11 8 14 16 7 22 -14 14 -54 -3 -61 -25 -16 -50 -27 -73
-36 -73 -15 0 -21 30 -10 53 19 41 21 57 12 82 -14 36 -28 31 -46 -15z"/>
<path d="M7910 7311 c0 -6 -12 -9 -27 -8 -15 1 -28 -3 -28 -10 0 -22 -15 -26
-15 -5 0 23 -14 29 -25 12 -3 -5 -12 -7 -20 -4 -18 7 -37 -29 -32 -63 6 -49
72 -67 140 -38 55 23 77 83 40 111 -21 16 -33 18 -33 5z"/>
<path d="M6500 7283 c-40 -28 -52 -43 -46 -56 35 -65 32 -65 62 -4 32 64 25
88 -16 60z"/>
<path d="M6314 7241 c-16 -15 -44 -32 -62 -35 -18 -4 -37 -17 -43 -28 -14 -27
-17 -191 -4 -198 6 -3 11 11 13 30 3 41 21 92 36 102 14 10 64 10 70 0 2 -4 7
-23 11 -43 5 -30 2 -41 -20 -67 -21 -25 -24 -35 -16 -50 15 -27 34 -33 62 -17
13 8 34 19 47 24 12 6 25 19 29 28 3 10 20 38 37 63 17 25 32 47 34 50 2 2 12
-1 23 -8 13 -8 36 -10 69 -6 l49 6 6 52 c9 68 4 101 -15 101 -11 0 -14 -9 -12
-36 4 -52 -33 -84 -89 -76 -40 5 -89 -8 -89 -24 0 -13 -59 -41 -70 -34 -6 3
-10 15 -10 26 0 11 -7 33 -15 49 -15 29 -11 90 6 90 5 0 9 7 9 15 0 23 -23 18
-56 -14z"/>
<path d="M8305 7260 c-6 -10 33 -59 48 -60 4 0 7 16 7 35 0 30 -3 35 -24 35
-14 0 -28 -5 -31 -10z"/>
<path d="M9110 7254 c0 -9 5 -14 12 -12 18 6 21 28 4 28 -9 0 -16 -7 -16 -16z"/>
<path d="M8241 7234 c0 -11 3 -14 6 -6 3 7 2 16 -1 19 -3 4 -6 -2 -5 -13z"/>
<path d="M7000 7215 c0 -8 5 -15 10 -15 6 0 10 7 10 15 0 8 -4 15 -10 15 -5 0
-10 -7 -10 -15z"/>
<path d="M9155 7200 c3 -5 8 -10 11 -10 2 0 4 5 4 10 0 6 -5 10 -11 10 -5 0
-7 -4 -4 -10z"/>
<path d="M8275 7180 c-3 -5 -3 -15 1 -21 6 -11 23 6 24 24 0 10 -18 9 -25 -3z"/>
<path d="M5555 7123 c-4 -23 -16 -50 -26 -59 -13 -12 -19 -31 -19 -59 0 -24
-6 -48 -14 -54 -8 -7 -17 -23 -20 -36 -3 -13 -14 -26 -24 -30 -50 -15 -92
-117 -92 -219 0 -25 -4 -46 -10 -46 -11 0 -11 2 -15 38 -3 28 -4 29 -38 37
-22 6 -27 4 -27 -12 0 -11 -7 -28 -15 -39 -17 -22 -20 -87 -4 -115 11 -22 34
-15 25 8 -3 8 6 25 22 40 l27 25 3 -47 c2 -35 -3 -59 -23 -97 l-26 -50 26 -63
c26 -61 26 -63 11 -109 -22 -63 -20 -79 9 -106 27 -25 36 -92 14 -106 -15 -9
-4 -105 13 -116 26 -16 48 -9 48 17 0 55 62 9 66 -49 2 -23 -3 -39 -17 -51
-20 -19 -26 -45 -9 -45 6 0 15 11 20 25 12 31 25 32 45 1 9 -13 27 -27 39 -30
32 -8 43 -56 13 -56 -17 0 -19 -4 -12 -32 4 -18 7 -45 7 -60 -1 -33 11 -42 38
-28 16 9 20 21 20 65 0 30 4 55 8 55 15 0 40 -34 44 -60 2 -15 14 -30 30 -38
16 -7 31 -24 34 -38 7 -27 19 -31 28 -9 3 8 12 15 21 15 23 0 18 11 -24 49
-21 20 -64 60 -95 89 -31 28 -59 52 -62 52 -11 0 -43 45 -44 61 0 9 -16 34
-36 55 -59 65 -120 213 -140 342 -7 48 -18 102 -23 121 -8 26 -7 40 5 63 10
19 14 51 13 89 -2 42 2 64 13 76 9 10 16 34 16 55 0 20 9 49 20 65 11 15 25
49 32 76 7 26 17 47 22 47 5 0 21 26 35 58 14 31 31 64 38 72 25 32 36 94 27
150 l-9 55 -8 -42z"/>
<path d="M7955 7150 c-3 -5 -1 -10 4 -10 6 0 11 5 11 10 0 6 -2 10 -4 10 -3 0
-8 -4 -11 -10z"/>
<path d="M8360 7080 c0 -11 7 -20 15 -20 8 0 15 9 15 20 0 11 -7 20 -15 20 -8
0 -15 -9 -15 -20z"/>
<path d="M7364 7055 c-22 -13 -71 -28 -110 -34 -38 -6 -94 -15 -124 -21 -73
-13 -266 -17 -307 -7 l-33 9 0 -84 c0 -70 3 -85 19 -95 12 -8 23 -33 31 -77
15 -82 30 -94 30 -26 0 56 13 90 35 90 23 0 45 30 45 63 0 40 9 54 36 58 31 6
54 -19 54 -57 0 -27 4 -34 19 -34 27 0 33 -14 20 -43 -9 -20 -8 -30 5 -48 22
-32 20 -56 -4 -64 -25 -8 -25 -16 0 -57 23 -39 26 -100 5 -118 -12 -10 -45
-66 -45 -76 0 -1 7 -10 16 -19 19 -18 18 -20 -13 -29 -19 -6 -25 -2 -33 19 -5
14 -25 35 -44 46 -32 18 -35 26 -47 92 -13 78 -33 114 -45 83 -6 -16 13 -97
35 -151 5 -11 14 -40 21 -65 7 -25 30 -66 51 -91 40 -48 47 -67 28 -86 -6 -6
-9 -21 -7 -34 2 -19 9 -24 33 -24 17 -1 36 -4 43 -8 8 -6 12 -1 12 17 0 21 -4
25 -22 23 -18 -1 -22 2 -20 18 7 45 3 88 -9 95 -6 5 -9 15 -6 24 6 14 31 21
63 17 7 -1 14 5 18 14 3 8 15 15 26 15 19 0 20 -6 20 -98 0 -63 4 -102 12
-110 21 -21 78 -14 110 13 36 30 59 32 76 5 17 -28 39 -25 46 6 4 15 6 27 4
28 -2 0 -13 6 -24 13 -17 9 -26 9 -41 -2 -15 -11 -24 -11 -51 1 l-32 13 7 88
c3 48 12 98 20 112 7 15 13 36 13 49 0 49 41 11 42 -40 0 -18 11 -53 24 -78
l23 -45 0 235 c-1 138 -4 227 -9 215 -5 -11 -9 -46 -9 -78 -1 -46 -5 -59 -18
-63 -10 -3 -26 -10 -35 -15 -9 -5 -35 -11 -56 -15 -31 -5 -44 -2 -59 13 -23
23 -72 28 -79 8 -4 -8 -10 -15 -15 -15 -14 0 -11 30 4 34 6 2 21 7 32 12 11 4
23 6 28 6 4 -1 7 2 7 8 0 6 7 10 16 10 11 0 14 6 9 20 -8 26 9 26 36 -1 25
-25 29 -22 36 33 2 24 10 54 16 67 10 19 8 25 -7 36 -25 19 -18 69 11 73 22 3
56 -23 66 -49 11 -32 38 19 52 100 19 111 17 115 -51 76z m-184 -101 c0 -10 5
-14 15 -10 23 9 30 -20 15 -65 -11 -32 -11 -44 0 -67 21 -41 18 -47 -25 -47
-52 -1 -89 28 -73 58 5 11 8 39 5 61 -6 45 -3 55 28 73 28 16 35 16 35 -3z
m-305 -64 c3 -5 1 -10 -4 -10 -6 0 -11 5 -11 10 0 6 2 10 4 10 3 0 8 -4 11
-10z m495 -300 c0 -10 -9 -24 -19 -30 -27 -14 -31 -13 -31 10 0 11 7 20 15 20
8 0 15 5 15 10 0 6 5 10 10 10 6 0 10 -9 10 -20z m-162 -39 c-2 -9 -13 -17
-26 -19 -16 -3 -22 2 -22 16 0 14 7 20 25 20 19 0 25 -5 23 -17z m5 -86 c7
-16 -21 -57 -34 -50 -10 7 -13 58 -3 68 9 8 32 -2 37 -18z"/>
<path d="M5417 7043 c-4 -3 -7 -14 -7 -23 0 -9 -11 -27 -25 -40 -26 -25 -35
-80 -12 -80 6 0 29 16 51 36 33 30 37 39 32 66 -3 17 -6 34 -6 39 0 11 -24 12
-33 2z"/>
<path d="M7701 6994 c0 -11 3 -14 6 -6 3 7 2 16 -1 19 -3 4 -6 -2 -5 -13z"/>
<path d="M8210 6969 c-29 -17 -46 -19 -102 -14 -63 6 -71 4 -110 -22 -24 -16
-55 -35 -70 -42 l-28 -14 0 -188 c0 -190 7 -239 35 -239 9 0 41 -13 73 -28 58
-29 92 -31 92 -7 0 15 -45 29 -62 19 -13 -8 -28 15 -21 33 3 7 11 13 18 13 28
0 23 39 -9 72 -18 18 -35 41 -39 51 -3 9 -11 17 -17 17 -15 0 -11 91 5 120 8
14 14 35 15 48 0 14 9 26 24 32 14 5 30 19 36 30 17 32 74 24 78 -10 2 -14 10
-32 17 -40 8 -8 18 -27 24 -42 7 -19 18 -28 38 -30 22 -2 29 -9 31 -30 2 -16
8 -28 13 -28 16 0 21 27 9 49 -13 25 -5 42 15 35 8 -3 15 -20 17 -37 4 -38 20
-45 33 -15 11 26 39 26 68 1 16 -15 17 -12 17 55 0 66 -2 71 -22 74 -20 3 -24
10 -28 61 l-5 58 -55 19 c-30 11 -55 19 -55 19 0 0 -16 -9 -35 -20z"/>
<path d="M7820 6956 c0 -8 7 -16 15 -20 10 -4 15 1 15 14 0 11 -7 20 -15 20
-8 0 -15 -6 -15 -14z"/>
<path d="M6496 6862 c-2 -4 -1 -14 5 -22 7 -12 9 -10 9 8 0 23 -5 28 -14 14z"/>
<path d="M6360 6789 c0 -18 2 -19 15 -9 8 7 15 16 15 21 0 5 -7 9 -15 9 -9 0
-15 -9 -15 -21z"/>
<path d="M8640 6739 l0 -33 21 23 c12 12 18 25 15 28 -3 4 -6 3 -6 -2 0 -4 -7
-2 -15 5 -13 11 -15 8 -15 -21z"/>
<path d="M5959 6727 c-10 -7 -24 -29 -32 -50 -14 -33 -20 -37 -50 -37 -33 0
-35 -2 -41 -45 -4 -25 -4 -50 -1 -55 4 -6 1 -17 -5 -25 -14 -17 -5 -50 10 -40
5 3 10 19 10 35 0 19 11 42 29 62 25 28 31 30 45 19 25 -21 21 -83 -7 -109
-13 -12 -27 -22 -31 -22 -17 0 -46 -39 -52 -69 -6 -26 -4 -33 7 -29 8 2 19 15
26 28 20 39 40 44 60 13 l18 -27 7 44 c8 45 22 62 48 57 11 -1 16 -18 18 -60
4 -69 17 -78 69 -47 36 21 37 21 55 2 17 -17 18 -23 6 -62 -8 -25 -20 -45 -30
-48 -26 -6 -22 -32 5 -32 29 -1 145 60 152 80 4 8 9 61 12 118 4 73 3 102 -5
102 -7 0 -12 -6 -12 -14 0 -8 -5 -16 -12 -18 -11 -4 -18 0 -72 49 -21 19 -29
21 -50 12 -13 -6 -29 -22 -34 -34 -18 -38 -51 -42 -78 -9 -26 32 -30 74 -12
107 16 29 20 88 6 104 -13 16 -38 16 -59 0z"/>
<path d="M6073 6713 c-4 -10 -1 -19 6 -21 19 -6 61 -55 61 -72 0 -8 4 -22 10
-30 7 -11 11 -9 19 13 12 32 5 52 -37 98 -29 33 -50 37 -59 12z"/>
<path d="M6240 6700 c-28 -28 -26 -56 5 -64 18 -5 25 -13 25 -31 0 -14 4 -25
9 -25 10 0 25 116 16 130 -10 16 -33 12 -55 -10z"/>
<path d="M6665 6699 c-4 -6 -5 -12 -2 -15 2 -3 7 2 10 11 7 17 1 20 -8 4z"/>
<path d="M6550 6676 c0 -8 5 -18 10 -21 6 -3 10 3 10 14 0 12 -4 21 -10 21 -5
0 -10 -6 -10 -14z"/>
<path d="M7680 6666 c0 -31 14 -40 40 -26 27 14 25 24 -5 38 -34 16 -35 16
-35 -12z"/>
<path d="M8232 6638 c-6 -6 -12 -29 -12 -50 0 -31 4 -38 20 -38 11 0 20 -6 20
-14 0 -8 12 -28 26 -43 l25 -28 -6 30 c-3 17 -15 42 -25 57 -11 15 -20 35 -21
45 0 10 -4 26 -7 36 -6 14 -10 15 -20 5z"/>
<path d="M8367 6623 c-4 -3 -7 -19 -7 -35 0 -16 -7 -36 -15 -45 -21 -20 -15
-35 17 -44 21 -5 28 -2 37 18 6 13 11 44 11 68 0 37 -3 45 -18 45 -10 0 -22
-3 -25 -7z m20 -95 c-3 -7 -5 -2 -5 12 0 14 2 19 5 13 2 -7 2 -19 0 -25z"/>
<path d="M6476 6555 c-9 -13 -16 -29 -16 -35 0 -10 29 -47 30 -38 4 22 7 98 5
98 -1 0 -10 -11 -19 -25z"/>
<path d="M6693 6560 c-8 -12 -9 -21 -3 -25 14 -9 27 1 33 25 7 26 -14 26 -30
0z"/>
<path d="M8507 6563 c-4 -3 -7 -13 -7 -22 1 -13 3 -13 11 2 11 19 8 33 -4 20z"/>
<path d="M7620 6510 c0 -5 5 -10 11 -10 5 0 7 5 4 10 -3 6 -8 10 -11 10 -2 0
-4 -4 -4 -10z"/>
<path d="M6540 6410 c0 -19 3 -21 12 -12 9 9 9 15 0 24 -9 9 -12 7 -12 -12z"/>
<path d="M7830 6380 c-9 -16 -8 -20 5 -20 8 0 15 9 15 20 0 11 -2 20 -5 20 -2
0 -9 -9 -15 -20z"/>
<path d="M8387 6383 c-10 -9 -9 -43 1 -43 12 0 32 23 32 37 0 14 -22 18 -33 6z"/>
<path d="M6662 6360 c0 -14 2 -19 5 -12 2 6 2 18 0 25 -3 6 -5 1 -5 -13z"/>
<path d="M5216 6283 c-10 -64 -8 -73 17 -73 18 0 28 10 43 41 18 40 18 42 -1
55 -33 25 -52 17 -59 -23z"/>
<path d="M6665 6307 c-4 -8 -1 -26 7 -39 l13 -23 3 29 c4 33 -14 59 -23 33z"/>
<path d="M5815 6290 c-10 -16 5 -50 21 -50 16 0 17 5 8 38 -7 23 -19 29 -29
12z"/>
<path d="M7530 6270 c0 -5 5 -10 10 -10 6 0 10 5 10 10 0 6 -4 10 -10 10 -5 0
-10 -4 -10 -10z"/>
<path d="M6330 6236 c0 -15 18 -31 26 -23 7 7 -7 37 -17 37 -5 0 -9 -6 -9 -14z"/>
<path d="M7851 6212 c-53 -24 -56 -25 -99 -8 l-45 16 -64 -40 c-35 -22 -68
-40 -73 -40 -21 0 -27 -40 -22 -149 4 -115 13 -146 38 -137 7 3 26 0 43 -7 26
-10 32 -8 50 14 30 36 27 79 -9 112 -22 21 -30 38 -30 62 0 19 5 37 10 40 18
11 50 -6 50 -26 0 -11 5 -17 10 -14 6 3 10 21 10 40 0 20 6 35 15 39 8 3 15
12 15 20 0 21 38 30 65 16 17 -9 29 -8 60 4 31 13 42 14 63 3 26 -12 26 -14
23 -101 -3 -81 -14 -122 -41 -146 -10 -9 -50 -68 -50 -74 0 -3 11 -6 25 -6 14
0 25 5 25 10 0 6 9 10 20 10 11 0 37 10 58 23 20 13 45 26 54 30 15 5 17 22
17 124 0 132 -4 153 -25 153 -8 0 -42 13 -77 28 l-62 28 -54 -24z"/>
<path d="M5480 6221 c0 -6 5 -13 10 -16 6 -3 10 1 10 9 0 9 -4 16 -10 16 -5 0
-10 -4 -10 -9z"/>
<path d="M8350 6194 c-13 -34 -13 -34 15 -34 21 0 25 5 25 30 0 38 -26 41 -40
4z"/>
<path d="M6460 6190 c0 -19 3 -21 12 -12 9 9 9 15 0 24 -9 9 -12 7 -12 -12z"/>
<path d="M6620 6191 c0 -12 5 -21 10 -21 6 0 10 6 10 14 0 8 -4 18 -10 21 -5
3 -10 -3 -10 -14z"/>
<path d="M8260 6170 c0 -5 5 -10 10 -10 6 0 10 5 10 10 0 6 -4 10 -10 10 -5 0
-10 -4 -10 -10z"/>
<path d="M5815 6128 c-9 -22 4 -43 17 -30 7 7 7 16 0 29 -10 17 -11 17 -17 1z"/>
<path d="M6215 6024 c-35 -28 -60 -42 -64 -36 -4 6 -12 7 -20 3 -17 -11 -27
-236 -11 -246 13 -8 52 24 44 36 -3 5 2 9 10 9 8 0 20 9 26 20 9 16 8 18 -5
14 -11 -5 -15 1 -15 23 0 23 6 31 31 40 21 8 30 17 26 27 -3 8 3 26 14 40 16
21 29 26 63 26 47 0 72 -19 78 -58 6 -43 23 -27 26 24 4 74 -9 100 -55 108
-21 4 -50 9 -64 12 -21 4 -39 -5 -84 -42z"/>
<path d="M6450 6066 c0 -8 63 -36 68 -31 8 8 -31 34 -50 35 -10 0 -18 -2 -18
-4z"/>
<path d="M6530 6040 c0 -5 4 -10 9 -10 6 0 11 -17 13 -37 4 -49 30 -56 48 -13
11 26 11 33 -1 44 -19 18 -69 29 -69 16z"/>
<path d="M6930 5971 c-54 -35 -110 -83 -110 -94 0 -16 -44 -44 -61 -40 -9 3
-20 15 -24 26 l-8 22 -4 -23 c-2 -12 -18 -29 -34 -37 -16 -9 -29 -19 -29 -24
0 -17 37 -41 76 -49 34 -7 44 -5 79 20 27 20 47 27 62 23 18 -4 23 -1 23 15 0
13 -7 20 -18 20 -10 0 -27 6 -38 14 -15 12 -17 17 -6 28 11 11 14 10 22 -2 8
-12 10 -12 10 -1 0 20 48 61 71 61 25 0 79 27 79 40 0 8 -32 30 -42 30 -2 0
-23 -13 -48 -29z"/>
<path d="M7092 5982 c-36 -17 -37 -31 -3 -48 24 -12 28 -31 6 -26 -20 4 -77
-58 -70 -77 3 -8 3 -12 -1 -8 -4 4 -15 0 -25 -9 -16 -14 -18 -14 -29 5 -12 24
-30 28 -30 7 0 -7 -7 -19 -15 -26 -21 -18 -19 -40 5 -40 11 0 20 4 20 10 0 6
23 7 58 4 49 -5 60 -4 65 10 4 9 16 16 28 16 15 0 19 5 15 15 -3 9 6 25 21 39
21 20 30 22 57 15 31 -9 56 -33 56 -55 0 -14 49 -25 79 -17 12 3 21 13 21 24
0 15 -7 19 -32 19 -27 0 -36 6 -48 33 -13 27 -20 32 -50 32 -55 1 -80 20 -80
60 0 39 -1 39 -48 17z"/>
<path d="M5830 5950 c0 -5 5 -10 10 -10 6 0 10 5 10 10 0 6 -4 10 -10 10 -5 0
-10 -4 -10 -10z"/>
<path d="M6400 5815 c0 -8 5 -15 10 -15 6 0 10 7 10 15 0 8 -4 15 -10 15 -5 0
-10 -7 -10 -15z"/>
<path d="M6491 5819 c-53 -10 -65 -19 -25 -19 16 0 44 -4 63 -10 25 -7 38 -6
57 7 47 30 2 41 -95 22z"/>
<path d="M7167 5773 c-23 -6 -18 -37 6 -41 21 -4 47 15 47 34 0 14 -18 16 -53
7z"/>
<path d="M7546 5763 c-10 -10 5 -23 25 -23 10 0 19 -5 19 -10 0 -6 21 -20 47
-31 53 -23 72 -43 73 -79 0 -19 10 -30 40 -44 48 -23 62 -15 32 17 -12 13 -22
28 -22 33 0 16 45 10 64 -8 22 -23 50 -24 42 -2 -3 9 -6 22 -6 30 0 8 -9 14
-21 14 -11 0 -55 14 -97 30 -41 17 -81 29 -88 26 -7 -3 -15 2 -18 10 -3 8 -11
14 -18 14 -7 0 -25 6 -40 14 -15 8 -29 12 -32 9z"/>
<path d="M6480 5745 c-10 -12 -9 -16 5 -21 19 -8 40 9 31 25 -10 15 -21 14
-36 -4z"/>
<path d="M7247 5724 c-12 -12 6 -34 29 -34 29 0 31 15 5 30 -23 12 -26 12 -34
4z"/>
<path d="M6257 5713 c-4 -3 -7 -17 -7 -30 0 -24 -16 -32 -23 -10 -2 6 -2 2 0
-11 3 -22 -12 -62 -29 -73 -13 -8 2 -39 18 -39 8 0 14 8 14 18 0 19 29 52 45
52 4 0 22 10 39 23 17 13 39 27 50 30 18 7 18 8 1 27 -18 20 -93 29 -108 13z"/>
<path d="M6660 5679 c0 -5 5 -7 10 -4 6 3 10 8 10 11 0 2 -4 4 -10 4 -5 0 -10
-5 -10 -11z"/>
<path d="M7331 5658 c-22 -35 -23 -70 -3 -64 64 17 63 17 60 49 -4 40 -36 49
-57 15z"/>
<path d="M6116 5649 c-14 -11 -26 -27 -26 -35 0 -9 -11 -14 -31 -14 -23 0 -42
-10 -71 -40 -22 -22 -46 -40 -53 -40 -7 0 -15 -6 -18 -14 -3 -8 -16 -16 -29
-18 -21 -3 -23 -8 -23 -60 0 -65 15 -76 38 -30 9 18 11 36 6 50 -6 16 -5 22 5
22 8 0 26 6 42 14 19 11 33 12 46 5 14 -8 20 -6 25 8 9 26 63 93 74 93 13 0
69 55 69 69 0 17 -25 13 -54 -10z"/>
<path d="M5805 5570 c-7 -11 5 -40 16 -40 4 0 13 9 18 19 9 15 7 20 -9 24 -11
3 -22 1 -25 -3z"/>
<path d="M6710 5545 c0 -9 5 -15 11 -13 6 2 11 8 11 13 0 5 -5 11 -11 13 -6 2
-11 -4 -11 -13z"/>
<path d="M7864 5525 c17 -14 41 -28 55 -32 14 -3 29 -11 33 -17 4 -6 10 -8 13
-4 10 10 -14 48 -29 48 -8 0 -16 7 -20 15 -3 10 -19 15 -43 15 l-38 0 29 -25z"/>
<path d="M6410 5515 c-16 -29 -7 -43 15 -25 16 13 21 50 7 50 -5 0 -15 -11
-22 -25z"/>
<path d="M5968 5449 c-25 -14 -24 -49 1 -42 22 6 36 32 24 44 -4 4 -16 3 -25
-2z"/>
<path d="M6045 5450 c3 -5 8 -10 11 -10 2 0 4 5 4 10 0 6 -5 10 -11 10 -5 0
-7 -4 -4 -10z"/>
<path d="M5780 5419 c0 -5 5 -7 10 -4 6 3 10 8 10 11 0 2 -4 4 -10 4 -5 0 -10
-5 -10 -11z"/>
<path d="M5777 5354 c-24 -13 -44 -45 -49 -79 -2 -12 -12 -21 -25 -23 -31 -5
-48 -59 -30 -95 10 -20 17 -23 25 -15 7 7 12 17 12 23 0 20 70 103 91 108 10
3 19 11 19 19 0 9 20 17 54 24 51 9 55 8 60 -10 7 -26 12 -19 20 24 l6 35 -80
0 c-44 0 -90 -5 -103 -11z"/>
<path d="M6335 5306 c-8 -19 -19 -37 -25 -41 -5 -3 -10 -18 -9 -33 0 -15 3
-21 6 -12 3 8 16 26 29 40 26 29 42 80 25 80 -7 0 -18 -15 -26 -34z"/>
<path d="M6960 5319 c0 -5 5 -7 10 -4 6 3 10 8 10 11 0 2 -4 4 -10 4 -5 0 -10
-5 -10 -11z"/>
<path d="M8110 5311 c0 -11 5 -23 10 -26 6 -3 10 -17 10 -30 0 -13 11 -40 24
-60 21 -31 24 -44 19 -85 -5 -45 -4 -50 17 -58 15 -6 19 -11 12 -16 -15 -9
-16 -52 -2 -61 6 -4 8 -10 5 -15 -7 -11 10 -46 35 -75 21 -25 50 -128 50 -182
0 -31 4 -42 18 -45 12 -4 28 -31 46 -81 15 -42 34 -81 41 -87 7 -6 13 -26 13
-46 0 -19 5 -41 11 -48 6 -7 10 -32 8 -55 -2 -22 1 -41 6 -41 5 0 7 -14 3 -31
-4 -21 1 -44 15 -72 27 -55 30 -96 13 -159 -14 -53 -9 -67 23 -68 10 0 55 -67
75 -110 15 -33 7 43 -12 112 -10 40 -21 114 -24 163 -13 244 -29 318 -101 470
-18 39 -39 88 -45 110 -7 22 -16 45 -20 50 -4 6 -10 23 -14 40 -20 82 -80 174
-115 175 -9 0 -11 5 -5 18 5 9 9 58 9 107 0 76 -3 93 -20 112 -11 11 -35 42
-54 67 -36 50 -51 57 -51 27z"/>
<path d="M6775 5203 c4 -16 7 -35 7 -43 -1 -35 8 -44 23 -22 14 18 13 25 -2
56 -21 42 -38 47 -28 9z"/>
<path d="M6490 5210 c0 -5 5 -10 10 -10 6 0 10 5 10 10 0 6 -4 10 -10 10 -5 0
-10 -4 -10 -10z"/>
<path d="M6561 5143 c-1 -29 4 -53 9 -53 12 0 12 57 0 85 -6 15 -9 6 -9 -32z"/>
<path d="M6265 5146 c-55 -61 -85 -136 -85 -214 l0 -37 30 45 c16 25 30 53 30
62 0 9 4 27 9 40 17 43 34 108 30 112 -2 2 -9 -1 -14 -8z"/>
<path d="M5796 5135 c-3 -8 -1 -15 4 -15 6 0 10 7 10 15 0 8 -2 15 -4 15 -2 0
-6 -7 -10 -15z"/>
<path d="M5640 5074 c-39 -43 -42 -49 -36 -88 4 -26 1 -57 -8 -82 -13 -38 -12
-94 3 -94 5 0 40 78 55 123 3 9 11 17 18 17 20 0 38 35 45 86 5 37 2 48 -15
64 -20 19 -21 19 -62 -26z"/>
<path d="M6496 5033 c-9 -27 -1 -58 30 -118 18 -36 25 -44 30 -31 4 9 -1 24
-10 34 -8 10 -22 45 -29 78 -11 46 -15 54 -21 37z"/>
<path d="M6134 5032 c-10 -7 -27 -82 -19 -82 7 0 36 73 33 81 -2 5 -8 5 -14 1z"/>
<path d="M6751 5004 c0 -11 3 -14 6 -6 3 7 2 16 -1 19 -3 4 -6 -2 -5 -13z"/>
<path d="M6343 4938 c-18 -40 -35 -169 -23 -183 7 -9 7 -30 0 -71 -6 -33 -11
-83 -10 -112 l1 -54 -22 21 c-19 17 -21 27 -16 68 4 26 2 55 -3 63 -14 22 -13
-113 2 -144 10 -23 15 -25 49 -20 25 4 44 2 54 -6 13 -11 15 -8 15 18 0 16 -6
32 -14 35 -17 7 -39 126 -26 142 5 6 17 45 25 86 25 117 2 229 -32 157z"/>
<path d="M7050 4945 c0 -8 5 -15 10 -15 6 0 10 7 10 15 0 8 -4 15 -10 15 -5 0
-10 -7 -10 -15z"/>
<path d="M6750 4931 c0 -12 5 -21 10 -21 6 0 10 6 10 14 0 8 -4 18 -10 21 -5
3 -10 -3 -10 -14z"/>
<path d="M5972 4907 c-7 -18 -12 -42 -12 -52 0 -17 2 -17 20 3 12 12 25 22 30
22 14 0 12 34 -2 48 -18 18 -23 15 -36 -21z"/>
<path d="M5475 4788 c-44 -89 -55 -128 -36 -128 5 0 13 10 16 23 4 12 18 37
32 55 13 17 28 44 33 60 35 113 12 108 -45 -10z"/>
<path d="M5737 4842 c-10 -10 -17 -24 -17 -30 0 -7 -3 -12 -7 -12 -13 0 -33
-52 -33 -86 0 -17 6 -37 14 -43 24 -20 29 -61 10 -82 -24 -27 -39 -24 -62 12
-20 32 -20 32 -32 10 -7 -14 -8 -34 -4 -54 5 -18 7 -51 5 -74 -2 -31 3 -50 18
-69 l21 -27 -22 -12 c-19 -10 -25 -9 -35 3 -10 12 -13 10 -18 -14 -16 -77 -21
-89 -38 -86 -10 2 -17 -4 -17 -12 0 -8 -5 -16 -12 -18 -15 -5 -22 -138 -8
-138 6 0 10 8 10 18 0 9 13 30 30 45 16 15 27 34 24 42 -3 7 4 19 17 25 30 17
68 62 69 82 0 9 9 23 21 31 11 8 16 18 11 21 -6 3 -3 20 6 41 12 26 19 32 28
24 14 -11 34 -4 34 12 0 5 -7 9 -15 9 -13 0 -12 5 5 22 11 13 23 34 26 48 3
14 10 35 15 48 15 38 10 69 -15 99 -37 45 -50 73 -33 73 8 0 22 -10 30 -22 14
-20 18 -21 26 -8 16 23 13 109 -3 126 -19 19 -30 18 -49 -4z"/>
<path d="M6195 4820 c-26 -40 -35 -66 -35 -106 0 -53 12 -56 34 -9 19 39 19
143 1 115z"/>
<path d="M5537 4758 c-6 -19 4 -49 14 -42 12 7 12 41 0 48 -5 4 -11 0 -14 -6z"/>
<path d="M6606 4763 c-3 -3 -6 -24 -6 -46 0 -38 1 -39 22 -25 12 8 23 19 25
25 5 13 -32 55 -41 46z"/>
<path d="M5960 4698 c0 -9 5 -20 10 -23 13 -8 13 5 0 25 -8 13 -10 13 -10 -2z"/>
<path d="M6068 4686 c-10 -7 -18 -24 -18 -36 l0 -24 -27 26 c-31 29 -33 28
-71 -34 -12 -20 -29 -39 -37 -42 -8 -3 -15 -11 -15 -18 0 -23 -41 -92 -78
-130 -20 -21 -34 -39 -31 -42 2 -2 27 -7 55 -11 l50 -6 45 61 c73 102 79 113
79 153 0 35 12 48 25 27 3 -5 14 -10 24 -10 13 0 21 10 25 35 9 47 -2 68 -26
51z"/>
<path d="M6115 4650 c-7 -11 19 -65 36 -75 18 -12 21 2 6 38 -16 38 -32 53
-42 37z"/>
<path d="M5445 4620 c-3 -5 -3 -15 1 -21 6 -11 23 6 24 24 0 10 -18 9 -25 -3z"/>
<path d="M6420 4590 c0 -11 11 -42 24 -68 14 -26 28 -64 31 -84 9 -48 22 -49
31 -2 9 50 -21 144 -47 144 -10 0 -19 7 -19 15 0 8 -4 15 -10 15 -5 0 -10 -9
-10 -20z"/>
<path d="M6582 4580 c0 -14 2 -19 5 -12 2 6 2 18 0 25 -3 6 -5 1 -5 -13z"/>
<path d="M6970 4585 c0 -8 5 -15 10 -15 6 0 10 7 10 15 0 8 -4 15 -10 15 -5 0
-10 -7 -10 -15z"/>
<path d="M7062 4559 c2 -7 10 -15 17 -17 8 -3 12 1 9 9 -2 7 -10 15 -17 17 -8
3 -12 -1 -9 -9z"/>
<path d="M5428 4533 c-14 -30 -13 -73 3 -73 5 0 9 -9 9 -20 0 -15 7 -20 26
-20 20 0 24 4 19 19 -3 11 -1 22 5 26 15 9 13 88 -2 83 -7 -3 -15 -15 -18 -28
-3 -13 -11 -25 -18 -28 -10 -3 -12 5 -7 32 9 43 1 46 -17 9z"/>
<path d="M7440 4541 c0 -12 39 -25 47 -17 4 3 -1 6 -10 6 -9 0 -17 5 -17 10 0
6 -4 10 -10 10 -5 0 -10 -4 -10 -9z"/>
<path d="M7880 4440 c0 -5 5 -10 10 -10 6 0 10 5 10 10 0 6 -4 10 -10 10 -5 0
-10 -4 -10 -10z"/>
<path d="M5426 4391 c-3 -5 1 -11 9 -15 9 -3 15 0 15 9 0 16 -16 20 -24 6z"/>
<path d="M5675 4267 c-5 -7 -19 -23 -29 -35 -33 -38 -9 -36 28 3 20 20 36 39
36 41 0 9 -26 2 -35 -9z"/>
<path d="M5413 4103 c-16 -6 -17 -33 -3 -33 11 0 26 28 19 34 -2 2 -10 1 -16
-1z"/>
<path d="M5481 4001 c-13 -59 -9 -85 11 -79 13 5 38 82 38 116 0 15 -6 22 -18
22 -14 0 -21 -14 -31 -59z"/>
<path d="M5425 4007 c-4 -10 -5 -21 -1 -24 10 -10 18 4 13 24 -4 17 -4 17 -12
0z"/>
<path d="M8449 3933 c-1 -4 -1 -12 0 -17 3 -17 -11 -46 -22 -46 -7 0 -18 -13
-24 -30 -6 -16 -18 -30 -27 -30 -9 0 -16 -5 -16 -11 0 -6 7 -9 15 -5 8 3 15 1
15 -4 0 -6 13 -10 30 -10 42 0 62 34 58 101 -2 31 -8 54 -15 57 -7 2 -14 0
-14 -5z"/>
<path d="M5470 3839 c-6 -10 -10 -20 -10 -23 0 -8 44 -3 58 7 19 15 14 24 -13
30 -18 3 -29 -1 -35 -14z"/>
<path d="M5715 3828 c-13 -20 -13 -24 -1 -33 8 -6 17 -28 21 -48 9 -47 21 -47
40 0 17 41 14 63 -10 63 -8 0 -15 9 -15 20 0 26 -15 25 -35 -2z"/>
<path d="M6944 3835 c-3 -8 -3 -19 1 -25 3 -5 -1 -10 -9 -10 -18 0 -21 -16 -6
-25 6 -4 10 -21 10 -38 0 -53 12 -127 20 -127 10 0 20 62 20 123 0 28 -4 47
-11 47 -8 0 -8 4 -1 13 6 7 6 21 1 35 -10 26 -17 28 -25 7z"/>
<path d="M8316 3805 c-3 -8 -1 -15 4 -15 6 0 10 7 10 15 0 8 -2 15 -4 15 -2 0
-6 -7 -10 -15z"/>
<path d="M5556 3774 c-3 -9 -4 -20 0 -25 3 -5 -2 -12 -10 -15 -16 -6 -21 -31
-10 -57 3 -9 14 -12 30 -9 20 4 24 1 24 -21 0 -14 5 -29 11 -33 8 -4 7 -9 -2
-15 -11 -6 -9 -13 9 -32 27 -29 27 -32 0 -84 -17 -32 -30 -43 -54 -48 -26 -4
-33 -11 -38 -38 -10 -53 28 -236 58 -278 14 -20 15 -19 21 26 4 26 5 79 1 118
-13 134 -7 167 29 167 19 0 26 8 34 37 6 21 8 54 5 74 -8 46 11 86 32 68 8 -6
14 -17 14 -23 0 -6 9 -17 20 -24 11 -7 20 -18 20 -26 0 -7 9 -23 20 -36 l20
-23 0 31 c0 22 5 32 15 32 12 0 9 11 -12 54 -16 32 -31 52 -39 49 -7 -2 -15 5
-19 16 -3 12 -13 21 -21 21 -8 0 -14 7 -14 15 0 8 -4 15 -9 15 -5 0 -11 9 -14
20 -3 11 -10 20 -15 20 -17 0 -21 -26 -10 -69 11 -44 5 -76 -13 -65 -6 3 -9
18 -6 32 5 29 -12 70 -38 92 -9 7 -13 20 -10 31 8 24 -20 26 -29 3z"/>
<path d="M8360 3761 c0 -12 5 -21 10 -21 6 0 10 6 10 14 0 8 -4 18 -10 21 -5
3 -10 -3 -10 -14z"/>
<path d="M8530 3773 c0 -4 10 -17 22 -30 19 -20 20 -27 10 -43 -14 -24 -16
-70 -2 -70 5 0 7 -7 4 -15 -4 -8 -2 -15 4 -15 6 0 13 6 15 13 3 6 6 0 6 -15 1
-16 6 -28 11 -28 6 0 10 -7 10 -16 0 -11 -6 -15 -17 -12 -15 4 -18 -2 -18 -29
0 -19 6 -37 13 -42 11 -7 11 -9 -2 -14 -20 -8 -21 -53 -2 -64 9 -5 11 -15 5
-28 -4 -11 -8 -14 -8 -7 -2 38 -51 -25 -51 -66 0 -10 -7 -33 -16 -51 -14 -29
-14 -34 0 -56 9 -13 12 -26 7 -29 -4 -3 -9 -35 -9 -72 -1 -36 -6 -72 -13 -80
-6 -8 -13 -42 -16 -76 -6 -90 -8 -100 -22 -126 -7 -13 -9 -31 -5 -40 15 -36
12 -79 -9 -122 -23 -47 -55 -63 -82 -40 -11 9 -20 8 -39 -7 -14 -10 -26 -20
-26 -23 0 -4 19 -7 43 -8 23 -1 56 -3 72 -4 67 -4 110 78 97 187 -7 60 -4 103
18 225 6 36 15 94 19 130 10 75 23 126 51 195 20 50 30 136 30 251 0 122 -5
147 -38 182 -6 7 -17 22 -22 33 -10 18 -40 27 -40 12z m70 -98 c10 -12 10 -15
-4 -15 -9 0 -16 7 -16 15 0 8 2 15 4 15 2 0 9 -7 16 -15z m7 -247 c-3 -8 -6
-5 -6 6 -1 11 2 17 5 13 3 -3 4 -12 1 -19z m-57 -230 c0 -16 -3 -19 -11 -11
-6 6 -8 16 -5 22 11 17 16 13 16 -11z"/>
<path d="M6257 3722 c-28 -13 -37 -22 -35 -37 3 -17 9 -19 43 -16 67 5 93 29
63 59 -15 15 -25 15 -71 -6z"/>
<path d="M5463 3628 c-2 -107 1 -115 12 -35 4 31 11 47 21 47 8 0 14 7 14 16
0 10 -6 14 -15 10 -9 -3 -15 0 -15 8 0 8 6 16 13 19 9 3 9 7 -2 20 -7 10 -17
17 -20 17 -4 0 -8 -46 -8 -102z"/>
<path d="M8366 3712 c-2 -4 3 -17 12 -30 12 -15 21 -19 32 -12 13 8 11 12 -7
30 -24 22 -29 24 -37 12z"/>
<path d="M6413 3696 c-51 -14 -63 -24 -42 -39 8 -7 18 -19 21 -28 8 -21 51
-29 159 -29 77 0 90 2 99 19 5 11 10 23 10 28 -1 12 -68 40 -128 52 -60 12
-62 12 -119 -3z"/>
<path d="M8297 3704 c-8 -8 1 -24 14 -24 5 0 9 7 9 15 0 15 -12 20 -23 9z"/>
<path d="M6940 3590 c0 -5 5 -10 10 -10 6 0 10 5 10 10 0 6 -4 10 -10 10 -5 0
-10 -4 -10 -10z"/>
<path d="M5827 3468 c-4 -33 0 -52 24 -96 16 -30 29 -65 29 -78 0 -31 33 -64
64 -64 31 0 42 -15 50 -68 8 -56 41 -124 66 -140 11 -7 40 -14 65 -17 25 -2
54 -9 64 -15 11 -5 27 -7 35 -4 9 3 28 -2 42 -11 20 -13 28 -14 34 -5 5 9 9 9
14 1 4 -6 23 -11 42 -11 19 0 34 -4 34 -10 0 -10 79 -5 115 7 11 4 28 6 37 4
9 -1 30 5 45 13 25 13 26 15 9 22 -10 4 -34 2 -52 -5 -23 -8 -39 -9 -52 -2
-20 10 -81 9 -99 -2 -6 -4 -13 -3 -17 1 -4 4 -31 8 -59 8 -133 3 -245 43 -270
97 -27 56 -49 176 -45 238 4 54 3 57 -15 48 -14 -8 -26 -5 -52 15 -19 14 -38
26 -43 26 -5 0 -17 20 -28 45 -10 25 -21 45 -25 45 -3 0 -9 -19 -12 -42z"/>
<path d="M6395 3469 c-4 -6 -5 -13 -2 -16 7 -7 27 6 27 18 0 12 -17 12 -25 -2z"/>
<path d="M6818 3455 c-21 -29 -22 -35 -5 -35 8 0 24 -11 37 -25 15 -16 30 -23
41 -20 44 14 46 -83 3 -112 -28 -18 -31 -54 -8 -74 12 -10 15 -24 10 -56 -3
-24 -2 -43 4 -43 11 0 15 12 39 133 13 65 26 103 37 112 17 12 16 13 -3 19
-12 4 -33 27 -47 51 -26 43 -60 75 -81 75 -5 0 -18 -11 -27 -25z"/>
<path d="M6715 3460 c3 -5 8 -10 11 -10 2 0 4 5 4 10 0 6 -5 10 -11 10 -5 0
-7 -4 -4 -10z"/>
<path d="M7742 3452 c-15 -10 -5 -42 13 -42 18 0 26 15 19 34 -7 18 -13 19
-32 8z"/>
<path d="M8226 3453 c-10 -10 -7 -83 3 -83 5 0 16 6 23 13 7 8 19 12 26 9 6
-2 12 3 12 10 0 17 -55 60 -64 51z"/>
<path d="M6277 3443 c-4 -3 -37 -5 -74 -4 -38 1 -75 -3 -83 -9 -13 -9 -13 -10
0 -10 8 0 22 -5 30 -10 13 -8 12 -12 -7 -25 -26 -18 -30 -35 -9 -35 8 0 16 -6
19 -12 3 -10 13 -9 41 5 20 9 52 17 70 17 21 0 36 6 40 15 6 18 -2 45 -15 45
-4 0 -6 7 -3 15 6 16 2 20 -9 8z"/>
<path d="M7654 3439 c-3 -6 3 -20 14 -31 13 -13 22 -16 26 -9 4 6 2 11 -3 11
-6 0 -11 9 -11 20 0 22 -15 27 -26 9z"/>
<path d="M7790 3446 c0 -2 7 -6 15 -10 8 -3 15 -1 15 4 0 6 -7 10 -15 10 -8 0
-15 -2 -15 -4z"/>
<path d="M6053 3432 c-10 -6 -10 -12 1 -28 14 -18 16 -18 32 -2 26 26 -1 51
-33 30z"/>
<path d="M7790 3404 c0 -17 22 -14 28 4 2 7 -3 12 -12 12 -9 0 -16 -7 -16 -16z"/>
<path d="M6383 3403 c-28 -5 -29 -15 -3 -38 11 -10 20 -26 20 -35 0 -14 9 -16
58 -12 93 7 115 15 123 46 6 22 5 26 -6 22 -8 -3 -17 -1 -20 4 -3 5 -29 8 -58
7 -29 -1 -61 1 -72 4 -11 3 -30 4 -42 2z"/>
<path d="M7179 3394 c-20 -25 -19 -43 3 -55 15 -8 24 -7 40 7 19 18 20 18 29
1 12 -20 29 -23 29 -4 -1 42 -77 80 -101 51z"/>
<path d="M7750 3390 c0 -5 7 -10 16 -10 8 0 12 5 9 10 -3 6 -10 10 -16 10 -5
0 -9 -4 -9 -10z"/>
<path d="M7085 3360 c-3 -6 5 -10 19 -10 14 0 28 5 31 10 3 6 -5 10 -19 10
-14 0 -28 -4 -31 -10z"/>
<path d="M7275 3279 c-4 -18 -3 -35 4 -42 6 -6 11 -19 11 -29 0 -27 29 -22 42
8 11 24 10 29 -10 42 -12 8 -22 20 -22 28 0 28 -19 23 -25 -7z"/>
<path d="M5753 3224 c-7 -18 2 -110 13 -138 6 -16 4 -18 -12 -11 -52 22 -62
19 -70 -20 -11 -59 6 -97 48 -113 60 -23 71 -12 63 57 -5 40 -3 65 6 79 12 19
6 71 -17 150 -5 17 -23 15 -31 -4z"/>
<path d="M6976 3188 c-3 -7 -7 -31 -10 -53 -3 -21 -22 -72 -42 -112 -40 -77
-38 -108 2 -58 13 17 24 33 24 37 0 4 11 31 24 60 29 64 38 101 30 122 -7 19
-23 21 -28 4z"/>
<path d="M6665 3101 c-3 -5 -19 -12 -35 -16 -37 -8 -39 -21 -4 -28 24 -4 64
23 64 45 0 11 -17 10 -25 -1z"/>
<path d="M6856 3046 c-29 -39 -18 -59 13 -24 18 18 29 58 17 58 -2 0 -15 -15
-30 -34z"/>
<path d="M6738 2799 c-21 -21 -39 -48 -40 -61 -1 -13 -2 -32 -3 -43 -1 -11 -3
-28 -4 -39 0 -11 -6 -16 -15 -13 -20 8 -38 -17 -34 -46 1 -13 -3 -32 -11 -40
-8 -10 -11 -27 -7 -42 4 -14 2 -25 -3 -25 -5 0 -14 -20 -20 -45 -6 -25 -16
-45 -21 -45 -6 0 -10 -7 -10 -15 0 -8 7 -15 15 -15 8 0 15 4 15 10 0 5 29 45
64 89 35 43 68 85 72 92 5 8 18 19 29 25 23 13 33 65 34 182 1 84 -6 88 -61
31z"/>
<path d="M5647 2754 c-3 -3 6 -17 19 -29 20 -19 23 -27 15 -43 -11 -20 5 -102
20 -102 11 0 22 84 14 112 -7 23 -43 68 -55 68 -4 0 -9 -3 -13 -6z"/>
<path d="M5821 2568 c0 -18 4 -58 8 -88 5 -34 5 -60 -1 -67 -8 -9 -6 -13 6
-13 13 0 16 -11 16 -50 0 -28 4 -58 9 -68 23 -46 29 -81 15 -86 -8 -3 -14 -9
-14 -15 0 -13 43 -22 50 -10 8 12 0 69 -9 69 -3 0 -6 12 -7 28 -1 60 -12 110
-27 132 -12 18 -14 28 -5 43 11 22 3 108 -13 139 -15 28 -29 21 -28 -14z"/>
<path d="M6907 2573 c-29 -7 -18 -47 14 -51 18 -2 32 -14 45 -38 12 -22 26
-34 40 -34 12 0 24 -6 27 -14 4 -9 17 -14 34 -13 35 3 46 42 14 52 -11 3 -28
19 -37 34 -31 53 -84 78 -137 64z"/>
<path d="M8291 2503 c-1 -18 4 -33 9 -33 12 0 12 17 0 45 -7 17 -9 15 -9 -12z"/>
<path d="M7306 2482 c-15 -18 -15 -20 2 -35 10 -10 23 -17 29 -17 6 0 21 -8
34 -17 13 -10 35 -18 49 -18 21 0 26 6 28 33 3 30 1 32 -28 32 -23 0 -31 4
-27 14 4 9 0 12 -13 9 -10 -3 -21 0 -24 6 -11 16 -31 13 -50 -7z"/>
<path d="M8275 2429 c-4 -6 -9 -38 -11 -72 -5 -59 -29 -161 -45 -182 -3 -5
-10 -30 -14 -55 -4 -25 -13 -56 -20 -70 -30 -59 -47 -110 -42 -125 4 -8 -3
-39 -14 -67 -14 -37 -18 -63 -14 -90 5 -27 2 -46 -9 -63 -25 -38 -20 -55 14
-55 23 0 30 -4 30 -20 0 -11 -5 -20 -12 -20 -8 0 -9 -3 -2 -10 7 -7 8 -29 3
-63 -8 -50 1 -80 18 -63 5 4 11 65 14 134 10 180 39 361 70 439 13 30 29 115
33 173 1 19 7 46 13 60 5 14 13 55 17 93 5 55 4 67 -8 67 -8 0 -18 -5 -21 -11z"/>
<path d="M6117 2366 c-3 -8 -2 -18 3 -21 13 -8 24 15 12 27 -6 6 -11 4 -15 -6z"/>
<path d="M6880 2358 c0 -19 2 -20 10 -8 13 19 13 30 0 30 -5 0 -10 -10 -10
-22z"/>
<path d="M4648 2329 c-10 -5 -18 -19 -18 -29 0 -13 -7 -20 -20 -20 -11 0 -20
-4 -20 -9 0 -5 -10 -11 -22 -13 -15 -2 -23 -10 -23 -23 0 -11 -6 -30 -13 -42
-6 -12 -12 -29 -12 -37 0 -17 25 -22 35 -7 3 5 19 12 35 16 22 5 30 12 30 29
0 19 4 22 28 18 19 -2 34 3 50 21 l24 25 -26 41 c-15 23 -27 41 -29 41 -1 0
-10 -5 -19 -11z"/>
<path d="M6850 2330 c-12 -7 -12 -12 -2 -22 9 -9 15 -9 24 0 16 16 -2 34 -22
22z"/>
<path d="M7148 2323 c-6 -8 -13 -36 -15 -63 -3 -58 21 -89 56 -71 16 9 19 18
14 41 -3 20 -1 30 6 30 7 0 9 5 4 13 -4 6 -6 19 -5 27 1 8 -9 20 -23 26 -19
10 -27 9 -37 -3z"/>
<path d="M3790 2298 c0 -12 32 -26 51 -21 35 10 27 28 -12 28 -22 1 -39 -2
-39 -7z"/>
<path d="M4824 2299 c-3 -6 -1 -16 5 -22 9 -9 14 -8 21 3 9 15 4 30 -10 30 -5
0 -12 -5 -16 -11z"/>
<path d="M4055 2290 c3 -5 10 -10 16 -10 5 0 9 5 9 10 0 6 -7 10 -16 10 -8 0
-12 -4 -9 -10z"/>
<path d="M3578 2268 c-20 -15 -21 -17 -6 -23 19 -8 108 23 108 36 0 15 -79 5
-102 -13z"/>
<path d="M4434 2275 c-4 -8 -11 -15 -18 -15 -14 0 -52 -27 -75 -54 -9 -11 -26
-29 -38 -41 -27 -26 -30 -63 -6 -72 12 -5 29 8 60 42 41 45 45 47 68 35 14 -7
27 -11 29 -9 2 2 7 32 11 67 6 54 5 62 -9 62 -9 0 -19 -7 -22 -15z"/>
<path d="M4520 2279 c0 -5 5 -7 10 -4 6 3 10 8 10 11 0 2 -4 4 -10 4 -5 0 -10
-5 -10 -11z"/>
<path d="M4774 2276 c-3 -9 -15 -16 -25 -16 -28 0 -23 -29 7 -42 29 -13 44 0
44 39 0 27 -18 40 -26 19z"/>
<path d="M6786 2274 c-4 -10 -1 -14 6 -12 15 5 23 28 10 28 -5 0 -13 -7 -16
-16z"/>
<path d="M3290 2270 c-27 -4 -36 -10 -38 -27 -4 -25 -22 -32 -22 -8 0 16 -12
18 -47 9 -16 -4 -23 -14 -23 -30 0 -13 2 -24 4 -24 3 0 38 7 78 16 40 9 86 18
101 19 58 6 97 16 97 25 0 17 -91 29 -150 20z"/>
<path d="M6960 2261 c0 -12 5 -21 10 -21 6 0 10 6 10 14 0 8 -4 18 -10 21 -5
3 -10 -3 -10 -14z"/>
<path d="M5073 2245 c-40 -17 -35 -45 7 -45 29 0 45 22 33 45 -7 11 -13 11
-40 0z"/>
<path d="M6880 2245 c0 -8 2 -15 4 -15 2 0 6 7 10 15 3 8 1 15 -4 15 -6 0 -10
-7 -10 -15z"/>
<path d="M3020 2204 c0 -8 7 -14 15 -14 7 0 18 -8 24 -17 11 -21 17 -17 26 18
6 23 4 25 -29 26 -25 1 -36 -3 -36 -13z"/>
<path d="M2893 2182 c-58 -6 -37 -25 22 -20 30 3 55 1 55 -4 0 -4 5 -8 11 -8
6 0 9 8 7 18 -3 18 -29 22 -95 14z"/>
<path d="M2735 2157 c-16 -5 -39 -16 -50 -23 -25 -18 -35 -18 -35 1 0 17 -35
21 -45 5 -3 -5 -21 -10 -40 -10 -32 0 -58 -8 -112 -33 -12 -5 -33 -7 -46 -3
-18 4 -27 1 -31 -10 -3 -9 -13 -14 -21 -10 -30 11 -125 -47 -125 -78 0 -26 19
-28 53 -7 17 11 55 32 82 47 28 15 52 31 53 36 2 5 10 4 18 -2 10 -9 20 -8 42
3 24 12 32 12 47 0 13 -9 22 -10 29 -3 5 5 22 10 36 10 15 0 30 3 34 7 4 4 24
6 46 4 32 -2 45 3 76 32 40 37 36 50 -11 34z"/>
<path d="M3937 2163 c-11 -10 -8 -43 3 -43 6 0 10 4 10 9 0 5 3 16 6 25 6 16
-7 22 -19 9z"/>
<path d="M2793 2148 c4 -14 36 -12 52 3 5 5 -4 9 -24 9 -22 0 -31 -4 -28 -12z"/>
<path d="M6737 2121 c-3 -12 -17 -21 -40 -25 -19 -4 -38 -14 -41 -23 -6 -14
-8 -14 -21 4 -10 15 -26 21 -50 21 -19 0 -35 -4 -35 -9 0 -5 -9 -9 -20 -9 -11
0 -20 -5 -20 -10 0 -6 -9 -30 -20 -52 -23 -48 -24 -66 -8 -119 12 -43 32 -51
41 -18 3 12 10 18 17 14 7 -4 14 2 17 14 3 12 9 21 13 21 5 0 10 10 12 21 2
17 16 26 58 39 40 12 59 24 68 43 13 27 44 43 62 32 13 -8 72 34 64 46 -4 6
-10 6 -18 -1 -10 -7 -20 -5 -39 10 -31 25 -33 25 -40 1z"/>
<path d="M6883 2123 c-22 -8 -14 -23 13 -23 15 0 24 5 22 12 -5 14 -18 18 -35
11z"/>
<path d="M4242 2096 c2 -8 -9 -25 -24 -39 -39 -37 -38 -61 3 -53 17 3 40 6 50
6 14 0 19 7 19 25 0 16 -6 25 -15 25 -9 0 -15 9 -15 25 0 14 -5 25 -10 25 -6
0 -10 -6 -8 -14z"/>
<path d="M3905 2090 c-3 -5 -1 -10 4 -10 6 0 11 5 11 10 0 6 -2 10 -4 10 -3 0
-8 -4 -11 -10z"/>
<path d="M7058 2088 c9 -9 15 -9 24 0 9 9 7 12 -12 12 -19 0 -21 -3 -12 -12z"/>
<path d="M7750 2088 c0 -18 18 -34 28 -24 3 4 -2 14 -11 23 -16 16 -17 16 -17
1z"/>
<path d="M3990 2070 c-12 -8 -11 -10 8 -10 12 0 22 5 22 10 0 13 -11 13 -30 0z"/>
<path d="M2141 2029 c-30 -41 -118 -80 -174 -78 -33 2 -52 -4 -72 -19 -15 -12
-41 -22 -57 -22 -16 0 -44 -11 -62 -25 -22 -16 -39 -22 -55 -18 -17 4 -29 -1
-44 -19 -27 -31 -46 -38 -76 -26 -19 7 -22 5 -17 -7 3 -10 -1 -15 -12 -16 -53
-4 -67 -8 -70 -18 -2 -6 -12 -11 -21 -11 -21 0 -78 -27 -86 -41 -4 -5 -19 -9
-35 -9 -16 0 -35 -7 -44 -15 -8 -8 -25 -15 -38 -15 -14 0 -35 -13 -50 -30 -21
-24 -32 -29 -51 -24 -20 4 -27 1 -32 -15 -8 -27 -30 -38 -93 -47 -50 -6 -65
-17 -39 -27 6 -3 3 -6 -8 -7 -11 0 -47 -28 -80 -61 -46 -46 -65 -59 -83 -56
-15 3 -33 -4 -49 -19 -14 -13 -32 -24 -39 -24 -18 0 -84 -40 -84 -51 0 -5 -6
-9 -13 -9 -8 0 -22 -9 -32 -20 -10 -11 -24 -20 -32 -20 -8 0 -34 -19 -58 -42
-46 -42 -66 -56 -121 -81 -17 -8 -53 -35 -80 -61 -27 -25 -57 -46 -66 -46 -11
0 -15 -5 -12 -15 4 -10 0 -15 -15 -15 -12 0 -21 -4 -21 -9 0 -5 -16 -16 -35
-25 -19 -9 -35 -20 -35 -24 0 -5 -19 -27 -42 -50 -37 -38 -45 -42 -75 -36
l-33 6 0 -83 c1 -80 2 -83 15 -57 9 15 32 35 52 44 20 10 51 32 68 50 18 18
50 43 71 57 22 14 66 51 99 83 71 67 111 94 144 94 20 0 23 4 19 30 -4 25 0
31 26 40 84 32 111 47 156 92 42 41 55 48 88 48 39 0 76 22 151 90 13 12 54
38 92 58 38 19 69 41 69 48 0 18 32 34 67 34 36 0 47 8 64 45 12 25 22 31 59
37 80 12 100 20 121 49 16 23 26 28 44 23 24 -6 44 5 111 63 14 12 32 19 41
16 10 -4 14 0 11 13 -2 14 4 20 26 22 16 2 36 10 44 18 8 8 22 12 33 9 14 -5
19 -1 19 14 0 27 26 27 42 1 15 -23 34 -26 41 -6 3 8 21 17 39 21 51 11 121
35 145 51 12 8 31 14 42 14 11 0 23 5 26 10 3 6 17 10 29 10 13 0 29 6 36 14
6 8 17 13 24 10 6 -2 25 9 41 26 16 16 37 30 47 30 23 0 23 13 1 32 -33 28
-40 27 -62 -3z"/>
<path d="M3004 2021 l-21 -39 21 -6 c22 -6 66 17 66 35 0 19 -20 49 -33 49 -7
0 -22 -18 -33 -39z"/>
<path d="M3735 2050 c-3 -5 1 -10 10 -10 9 0 13 5 10 10 -3 6 -8 10 -10 10 -2
0 -7 -4 -10 -10z"/>
<path d="M3835 2003 c-13 -102 -16 -112 -35 -118 -23 -7 -60 -56 -60 -79 0
-23 17 -20 25 5 7 23 60 78 90 95 17 10 18 14 7 39 -11 23 -10 31 3 52 18 27
14 53 -9 53 -10 0 -17 -15 -21 -47z"/>
<path d="M7676 2034 c-5 -14 14 -44 28 -44 2 0 4 14 4 30 -1 32 -22 41 -32 14z"/>
<path d="M2871 2017 c-11 -14 -6 -27 10 -27 5 0 13 9 19 20 8 16 8 20 -3 20
-8 0 -20 -6 -26 -13z"/>
<path d="M3230 2020 c0 -5 5 -10 10 -10 6 0 10 5 10 10 0 6 -4 10 -10 10 -5 0
-10 -4 -10 -10z"/>
<path d="M4955 2020 c-3 -5 -2 -10 4 -10 5 0 13 5 16 10 3 6 2 10 -4 10 -5 0
-13 -4 -16 -10z"/>
<path d="M3440 1988 c0 -16 4 -28 9 -28 18 0 20 17 6 36 -14 18 -14 18 -15 -8z"/>
<path d="M3126 1975 c4 -8 10 -12 15 -9 11 6 2 24 -11 24 -5 0 -7 -7 -4 -15z"/>
<path d="M4740 1970 c0 -11 4 -20 10 -20 5 0 12 -16 16 -35 8 -46 24 -35 22
16 -1 27 -7 43 -19 50 -25 13 -29 12 -29 -11z"/>
<path d="M6076 1981 c-4 -7 -5 -15 -2 -18 9 -9 19 4 14 18 -4 11 -6 11 -12 0z"/>
<path d="M2790 1971 c0 -18 18 -21 30 -6 10 13 9 15 -9 15 -11 0 -21 -4 -21
-9z"/>
<path d="M5027 1974 c-8 -8 1 -24 14 -24 5 0 9 7 9 15 0 15 -12 20 -23 9z"/>
<path d="M3651 1961 c-7 -5 -11 -19 -9 -32 4 -24 5 -24 16 5 14 32 12 39 -7
27z"/>
<path d="M4940 1955 c0 -8 5 -15 10 -15 6 0 10 7 10 15 0 8 -4 15 -10 15 -5 0
-10 -7 -10 -15z"/>
<path d="M3130 1920 c-8 -15 -9 -25 -2 -32 14 -14 33 24 22 41 -6 11 -11 8
-20 -9z"/>
<path d="M4030 1920 c-15 -28 -9 -34 16 -16 14 11 16 17 7 26 -8 9 -14 7 -23
-10z"/>
<path d="M6085 1930 c-3 -5 1 -10 9 -10 9 0 16 5 16 10 0 6 -4 10 -9 10 -6 0
-13 -4 -16 -10z"/>
<path d="M2891 1921 c-8 -5 -11 -16 -8 -25 10 -25 27 -19 27 9 0 28 0 28 -19
16z"/>
<path d="M3399 1849 c-41 -44 -80 -94 -88 -110 -13 -26 -13 -31 2 -46 14 -15
19 -15 43 -3 33 18 41 37 26 61 -10 16 -5 24 33 60 50 47 93 119 71 119 -7 0
-46 -36 -87 -81z"/>
<path d="M2474 1905 c-4 -10 -1 -21 7 -26 23 -14 31 -10 27 13 -4 27 -26 35
-34 13z"/>
<path d="M5602 1890 c-24 -32 -27 -40 -13 -40 14 0 61 45 61 59 0 21 -26 11
-48 -19z"/>
<path d="M3058 1899 c-10 -5 -18 -16 -18 -24 0 -7 -16 -32 -35 -55 -36 -43
-45 -70 -23 -70 17 0 78 69 94 107 23 52 18 63 -18 42z"/>
<path d="M3274 1902 c-6 -4 -14 -34 -18 -67 -5 -44 -13 -67 -31 -85 -30 -31
-31 -40 -6 -40 24 0 76 98 84 158 5 42 -3 52 -29 34z"/>
<path d="M5067 1893 c-4 -3 -7 -17 -7 -30 0 -33 24 -24 28 10 3 26 -7 35 -21
20z"/>
<path d="M2628 1876 c-10 -7 -18 -18 -18 -25 0 -6 -4 -11 -10 -11 -5 0 -10 -8
-10 -19 0 -10 -11 -39 -25 -65 -34 -63 -31 -76 6 -38 17 18 37 32 45 32 21 0
24 15 12 48 -10 26 -9 34 6 51 23 25 18 45 -6 27z"/>
<path d="M3552 1870 c-12 -12 -22 -30 -22 -40 0 -11 -6 -20 -14 -20 -8 0 -15
-14 -18 -35 -2 -21 0 -35 7 -35 13 0 45 63 45 88 0 10 9 28 20 40 26 28 11 29
-18 2z"/>
<path d="M3976 1882 c-3 -6 -1 -14 5 -17 15 -10 25 3 12 16 -7 7 -13 7 -17 1z"/>
<path d="M5910 1873 c0 -12 5 -25 10 -28 13 -8 13 15 0 35 -8 12 -10 11 -10
-7z"/>
<path d="M9636 1874 c-4 -10 -1 -14 6 -12 15 5 23 28 10 28 -5 0 -13 -7 -16
-16z"/>
<path d="M4350 1870 c-13 -8 -12 -10 3 -10 9 0 17 5 17 10 0 12 -1 12 -20 0z"/>
<path d="M4108 1859 c-22 -12 -23 -42 -3 -59 21 -17 27 -9 23 33 -3 31 -5 34
-20 26z"/>
<path d="M4260 1850 c-8 -5 -10 -10 -4 -10 7 0 14 -10 18 -22 4 -17 8 -20 17
-11 11 11 4 53 -9 53 -4 0 -14 -5 -22 -10z"/>
<path d="M4530 1830 c0 -34 14 -39 30 -11 15 29 12 41 -10 41 -16 0 -20 -7
-20 -30z"/>
<path d="M8640 1844 c0 -17 22 -14 28 4 2 7 -3 12 -12 12 -9 0 -16 -7 -16 -16z"/>
<path d="M2392 1830 c-15 -25 -15 -30 2 -30 17 0 30 30 19 41 -5 5 -14 0 -21
-11z"/>
<path d="M3870 1831 c0 -11 4 -22 9 -25 11 -7 23 22 15 35 -9 16 -24 10 -24
-10z"/>
<path d="M3993 1815 c-9 -28 -9 -35 3 -35 17 0 30 48 17 61 -6 6 -13 -3 -20
-26z"/>
<path d="M5620 1814 c0 -17 22 -14 28 4 2 7 -3 12 -12 12 -9 0 -16 -7 -16 -16z"/>
<path d="M10160 1819 c0 -5 5 -7 10 -4 6 3 10 8 10 11 0 2 -4 4 -10 4 -5 0
-10 -5 -10 -11z"/>
<path d="M9395 1808 c-7 -18 10 -58 25 -58 15 0 12 33 -4 56 -13 17 -15 17
-21 2z"/>
<path d="M2181 1794 c0 -11 3 -14 6 -6 3 7 2 16 -1 19 -3 4 -6 -2 -5 -13z"/>
<path d="M9061 1794 c0 -11 3 -14 6 -6 3 7 2 16 -1 19 -3 4 -6 -2 -5 -13z"/>
<path d="M9855 1800 c3 -5 8 -10 11 -10 2 0 4 5 4 10 0 6 -5 10 -11 10 -5 0
-7 -4 -4 -10z"/>
<path d="M10152 1788 c-16 -16 -15 -28 3 -28 8 0 15 9 15 20 0 23 -2 24 -18 8z"/>
<path d="M2820 1760 c0 -5 4 -10 9 -10 6 0 13 5 16 10 3 6 -1 10 -9 10 -9 0
-16 -4 -16 -10z"/>
<path d="M4642 1745 c0 -16 2 -22 5 -12 2 9 2 23 0 30 -3 6 -5 -1 -5 -18z"/>
<path d="M4837 1764 c-9 -10 -9 -54 1 -54 18 1 34 19 30 35 -3 20 -20 30 -31
19z"/>
<path d="M8301 1754 c0 -11 3 -14 6 -6 3 7 2 16 -1 19 -3 4 -6 -2 -5 -13z"/>
<path d="M3734 1746 c-9 -24 0 -51 19 -54 14 -3 17 4 17 32 0 26 -4 36 -15 36
-9 0 -18 -6 -21 -14z"/>
<path d="M4192 1743 c-6 -12 -12 -30 -12 -39 0 -17 1 -17 16 -2 9 8 14 26 12
39 l-3 24 -13 -22z"/>
<path d="M4380 1745 c0 -8 7 -15 15 -15 8 0 15 7 15 15 0 8 -7 15 -15 15 -8 0
-15 -7 -15 -15z"/>
<path d="M2916 1731 c-20 -22 -20 -31 -1 -31 17 0 39 36 26 44 -4 3 -16 -3
-25 -13z"/>
<path d="M3596 1734 c-9 -24 -7 -54 3 -54 9 0 51 52 51 64 0 14 -48 5 -54 -10z"/>
<path d="M4030 1734 c0 -9 5 -14 12 -12 18 6 21 28 4 28 -9 0 -16 -7 -16 -16z"/>
<path d="M8835 1736 c-19 -14 -19 -16 -3 -32 16 -16 18 -16 23 -1 4 9 5 23 3
32 -3 14 -5 14 -23 1z"/>
<path d="M1876 1731 c-4 -7 -5 -15 -2 -18 9 -9 19 4 14 18 -4 11 -6 11 -12 0z"/>
<path d="M2157 1722 c-22 -24 -21 -32 3 -32 16 0 40 26 40 44 0 13 -28 5 -43
-12z"/>
<path d="M9630 1720 c-9 -16 -8 -20 5 -20 8 0 15 9 15 20 0 11 -2 20 -5 20 -2
0 -9 -9 -15 -20z"/>
<path d="M2418 1723 c-22 -6 -23 -29 -2 -37 27 -10 34 -7 34 19 0 25 -1 26
-32 18z"/>
<path d="M3021 1690 c-40 -39 -61 -75 -61 -105 0 -10 11 -14 35 -13 34 1 35 3
35 40 0 27 8 50 25 72 46 60 26 64 -34 6z"/>
<path d="M3870 1716 c0 -9 5 -16 10 -16 6 0 10 4 10 9 0 6 -4 13 -10 16 -5 3
-10 -1 -10 -9z"/>
<path d="M9766 1723 c-12 -12 -6 -43 9 -43 8 0 15 9 15 19 0 21 -13 34 -24 24z"/>
<path d="M3940 1688 c0 -15 4 -29 9 -33 16 -9 18 9 5 35 l-14 25 0 -27z"/>
<path d="M4317 1695 c-4 -8 -2 -17 3 -20 6 -4 10 3 10 14 0 25 -6 27 -13 6z"/>
<path d="M5006 1694 c-9 -23 -8 -24 14 -24 13 0 20 7 20 20 0 24 -25 27 -34 4z"/>
<path d="M4558 1694 c-12 -22 -17 -63 -8 -69 16 -10 34 40 22 60 -5 10 -11 14
-14 9z"/>
<path d="M4800 1684 c0 -14 3 -14 15 -4 8 7 15 14 15 16 0 2 -7 4 -15 4 -8 0
-15 -7 -15 -16z"/>
<path d="M5837 1694 c-10 -10 -9 -54 2 -54 8 0 11 8 20 45 3 12 -13 18 -22 9z"/>
<path d="M8660 1680 c0 -23 15 -27 23 -6 3 8 -1 17 -9 20 -9 4 -14 -1 -14 -14z"/>
<path d="M2756 1639 c-4 -28 -5 -54 -2 -56 9 -9 26 8 26 25 0 9 11 30 25 46
14 16 25 31 25 33 0 1 -15 3 -34 3 -33 0 -34 -1 -40 -51z"/>
<path d="M5570 1673 c0 -10 4 -25 10 -33 8 -12 10 -12 16 3 7 20 -1 47 -16 47
-5 0 -10 -8 -10 -17z"/>
<path d="M3667 1655 c-10 -14 -26 -25 -36 -25 -19 0 -61 -35 -61 -51 0 -5 -11
-15 -25 -21 -34 -15 -32 -28 4 -28 19 0 40 10 59 30 35 35 92 105 92 114 0 13
-16 4 -33 -19z"/>
<path d="M3770 1660 c0 -12 9 -30 20 -42 l20 -22 0 23 c0 27 -17 61 -30 61 -6
0 -10 -9 -10 -20z"/>
<path d="M5940 1651 c0 -17 5 -31 10 -31 6 0 10 11 10 24 0 14 -4 28 -10 31
-6 4 -10 -7 -10 -24z"/>
<path d="M10067 1674 c-4 -4 -4 -10 -1 -15 6 -10 34 0 34 12 0 10 -24 12 -33
3z"/>
<path d="M5115 1660 c4 -6 11 -8 16 -5 14 9 11 15 -7 15 -8 0 -12 -5 -9 -10z"/>
<path d="M1660 1642 c0 -19 34 -37 52 -26 13 9 9 34 -6 34 -8 0 -21 3 -30 6
-11 4 -16 0 -16 -14z"/>
<path d="M2620 1640 c-14 -11 -37 -20 -52 -20 -41 0 -53 -31 -23 -60 l23 -22
4 28 c2 24 8 28 31 29 23 0 32 7 42 33 16 37 10 40 -25 12z"/>
<path d="M5280 1644 c0 -8 5 -12 10 -9 6 4 8 11 5 16 -9 14 -15 11 -15 -7z"/>
<path d="M2098 1639 c-18 -10 -25 -39 -10 -39 5 0 16 8 25 18 28 31 19 42 -15
21z"/>
<path d="M4197 1612 c-9 -21 -17 -50 -17 -63 0 -13 -9 -30 -20 -37 -11 -7 -20
-21 -20 -33 0 -19 1 -19 22 -5 12 9 30 16 40 16 21 0 23 13 7 42 -8 16 -8 30
1 58 17 53 8 69 -13 22z"/>
<path d="M4380 1621 c0 -16 -8 -43 -17 -60 -19 -32 -11 -54 11 -30 18 18 32
119 17 119 -6 0 -11 -13 -11 -29z"/>
<path d="M9662 1624 c-22 -21 -22 -23 -4 -28 20 -7 52 1 52 13 0 4 -6 14 -12
22 -12 14 -16 13 -36 -7z"/>
<path d="M1956 1631 c-3 -5 0 -11 8 -14 15 -6 26 1 26 15 0 11 -27 10 -34 -1z"/>
<path d="M4230 1630 c0 -5 5 -10 10 -10 6 0 10 5 10 10 0 6 -4 10 -10 10 -5 0
-10 -4 -10 -10z"/>
<path d="M9820 1628 c0 -9 5 -20 11 -23 17 -11 20 0 4 21 -13 17 -14 17 -15 2z"/>
<path d="M4304 1615 c-3 -8 -4 -20 -2 -27 3 -7 7 -1 10 15 6 29 1 36 -8 12z"/>
<path d="M3199 1593 c-14 -16 -31 -41 -38 -57 -15 -35 -2 -48 44 -44 24 2 29
7 27 23 -6 38 -3 57 12 74 21 23 20 31 -2 31 -10 0 -30 -12 -43 -27z"/>
<path d="M4074 1596 c-3 -14 -3 -29 0 -35 9 -14 33 -3 40 17 3 9 9 23 12 30 4
8 -3 12 -20 12 -19 0 -27 -6 -32 -24z"/>
<path d="M2316 1576 c-26 -35 -26 -60 0 -70 10 -4 14 2 14 18 0 13 9 35 20 49
24 30 25 37 6 37 -7 0 -25 -15 -40 -34z"/>
<path d="M2888 1603 c-11 -19 -18 -63 -10 -63 16 0 36 50 25 61 -6 6 -13 7
-15 2z"/>
<path d="M5817 1604 c-11 -11 -8 -44 3 -44 15 0 24 30 13 41 -5 5 -12 6 -16 3z"/>
<path d="M8467 1582 c-21 -23 -21 -38 -1 -46 22 -9 44 11 44 40 0 29 -20 31
-43 6z"/>
<path d="M9023 1585 c0 -8 4 -12 9 -9 4 3 8 9 8 15 0 5 -4 9 -8 9 -5 0 -9 -7
-9 -15z"/>
<path d="M4546 1565 c-20 -30 -20 -45 -3 -45 16 0 47 31 47 47 0 23 -29 21
-44 -2z"/>
<path d="M5518 1584 c-5 -4 -8 -16 -8 -28 0 -14 3 -17 11 -9 6 6 9 19 7 28 -1
9 -6 13 -10 9z"/>
<path d="M1738 1555 c-3 -14 -1 -28 4 -31 12 -8 15 -4 23 29 5 20 4 27 -8 27
-8 0 -17 -11 -19 -25z"/>
<path d="M6383 1573 c-14 -5 -18 -33 -5 -33 4 0 13 5 20 12 12 12 15 8 26 -44
4 -16 13 -28 21 -28 9 0 19 -10 24 -22 14 -35 56 -87 92 -113 l32 -24 26 20
c24 19 26 19 38 3 7 -10 16 -14 20 -11 4 4 1 13 -5 19 -17 17 -15 48 3 54 8 4
15 15 15 26 0 15 -6 19 -27 16 -23 -2 -29 1 -31 20 -2 12 -10 22 -19 22 -9 0
-13 -6 -9 -15 3 -9 0 -15 -8 -15 -7 0 -27 -3 -44 -6 -25 -5 -36 -1 -56 21 -14
16 -26 34 -26 42 0 31 -58 68 -87 56z"/>
<path d="M9340 1576 c0 -2 7 -9 15 -16 12 -10 15 -10 15 4 0 9 -7 16 -15 16
-8 0 -15 -2 -15 -4z"/>
<path d="M2190 1528 c-22 -87 -56 -152 -81 -158 -26 -6 -46 -47 -36 -74 6 -14
13 -12 54 17 42 30 49 39 53 78 3 24 18 68 33 97 15 30 27 55 27 57 0 3 -9 9
-20 15 -17 9 -20 6 -30 -32z"/>
<path d="M3980 1555 c-19 -22 -8 -35 18 -21 20 11 21 14 9 24 -11 10 -17 9
-27 -3z"/>
<path d="M4882 1555 c-6 -8 -18 -12 -25 -9 -8 3 -19 -2 -26 -10 -18 -22 6 -32
29 -11 15 14 21 14 39 4 26 -17 36 -7 21 20 -13 24 -20 26 -38 6z"/>
<path d="M5220 1546 c0 -16 5 -26 15 -26 8 0 15 6 15 14 0 7 -7 19 -15 26 -13
11 -15 8 -15 -14z"/>
<path d="M12135 1557 c-4 -10 -5 -21 -1 -24 10 -10 18 4 13 24 -4 17 -4 17
-12 0z"/>
<path d="M3368 1510 c-11 -27 -27 -50 -34 -50 -8 0 -14 -10 -14 -23 0 -30 -10
-40 -26 -26 -20 16 -28 -12 -18 -59 4 -20 6 -41 5 -46 -1 -6 1 -21 4 -35 6
-25 7 -25 21 -7 8 11 14 43 14 73 0 48 3 54 29 67 27 15 41 40 41 80 0 11 7
27 16 37 16 18 12 39 -7 39 -6 0 -19 -22 -31 -50z"/>
<path d="M3717 1542 c-26 -28 -22 -56 6 -48 12 3 25 6 30 6 4 0 7 14 7 30 0
34 -18 39 -43 12z"/>
<path d="M1552 1538 c-15 -15 -16 -45 -1 -54 14 -8 26 5 31 35 3 27 -12 37
-30 19z"/>
<path d="M1871 1526 c-17 -18 -19 -26 -10 -32 7 -4 19 2 31 16 34 42 17 56
-21 16z"/>
<path d="M5948 1532 c-32 -19 -37 -48 -10 -56 14 -5 17 -14 14 -41 -2 -19 0
-35 6 -35 18 0 43 80 36 116 -7 39 -9 40 -46 16z"/>
<path d="M6123 1543 c-8 -3 1 -18 26 -41 21 -20 42 -46 45 -57 8 -24 126 -107
214 -152 35 -17 71 -38 81 -47 10 -9 20 -13 24 -10 3 3 25 -9 49 -28 60 -49
163 -95 228 -104 30 -3 68 -13 85 -22 16 -8 49 -14 72 -13 34 1 45 -4 63 -26
16 -21 23 -24 29 -14 10 16 47 10 44 -7 -4 -16 59 -16 75 0 9 9 18 8 38 -3 21
-11 28 -11 31 -1 6 17 23 15 23 -3 0 -23 47 -19 60 5 6 11 16 18 21 14 6 -3
19 2 29 11 20 18 41 2 21 -18 -14 -14 -14 -27 -1 -27 6 0 10 5 10 11 0 6 11
20 25 31 32 25 31 33 -4 48 -23 9 -41 8 -94 -5 -60 -15 -68 -15 -117 1 -38 12
-57 14 -69 7 -20 -13 -79 -5 -106 13 -11 8 -43 14 -71 14 -28 0 -65 7 -80 15
-16 8 -36 15 -45 15 -9 0 -22 7 -29 15 -12 15 -67 33 -120 40 -17 2 -45 19
-65 39 -32 33 -41 36 -90 36 -30 0 -55 4 -55 8 0 4 -12 13 -27 20 -49 21 -182
130 -269 220 -22 22 -29 24 -51 15z"/>
<path d="M2429 1527 c-9 -7 -19 -23 -23 -37 -10 -36 -28 -71 -49 -99 -19 -27
-11 -46 16 -35 9 3 17 17 17 29 0 14 17 41 40 65 22 23 40 45 40 50 0 5 3 15
6 24 7 20 -23 21 -47 3z"/>
<path d="M2648 1519 c-23 -25 -23 -52 1 -73 16 -15 19 -27 14 -67 -4 -32 -2
-49 5 -49 18 0 21 12 23 111 2 101 -7 118 -43 78z"/>
<path d="M11845 1530 c3 -5 8 -10 11 -10 2 0 4 5 4 10 0 6 -5 10 -11 10 -5 0
-7 -4 -4 -10z"/>
<path d="M5630 1520 c0 -5 5 -10 10 -10 6 0 10 5 10 10 0 6 -4 10 -10 10 -5 0
-10 -4 -10 -10z"/>
<path d="M10347 1523 c-4 -3 -7 -12 -7 -20 0 -11 4 -11 20 -3 11 6 18 15 15
21 -7 11 -19 12 -28 2z"/>
<path d="M2810 1505 c-19 -22 -7 -41 13 -21 18 19 22 36 8 36 -5 0 -14 -7 -21
-15z"/>
<path d="M2939 1513 c-15 -4 -45 -91 -34 -101 10 -10 38 12 63 48 35 52 27 68
-29 53z"/>
<path d="M4685 1511 c-6 -11 9 -23 19 -14 9 9 7 23 -3 23 -6 0 -12 -4 -16 -9z"/>
<path d="M3040 1490 c0 -11 7 -20 15 -20 8 0 15 9 15 20 0 11 -7 20 -15 20 -8
0 -15 -9 -15 -20z"/>
<path d="M8340 1501 c0 -5 5 -13 10 -16 6 -3 10 -2 10 4 0 5 -4 13 -10 16 -5
3 -10 2 -10 -4z"/>
<path d="M9200 1490 c0 -19 3 -21 12 -12 9 9 9 15 0 24 -9 9 -12 7 -12 -12z"/>
<path d="M10850 1500 c0 -5 4 -10 9 -10 6 0 13 5 16 10 3 6 -1 10 -9 10 -9 0
-16 -4 -16 -10z"/>
<path d="M1980 1480 c0 -5 5 -10 10 -10 6 0 10 5 10 10 0 6 -4 10 -10 10 -5 0
-10 -4 -10 -10z"/>
<path d="M4235 1480 c-3 -5 -1 -10 4 -10 6 0 11 5 11 10 0 6 -2 10 -4 10 -3 0
-8 -4 -11 -10z"/>
<path d="M5775 1480 c3 -5 8 -10 11 -10 2 0 4 5 4 10 0 6 -5 10 -11 10 -5 0
-7 -4 -4 -10z"/>
<path d="M2291 1452 c-15 -28 -14 -52 3 -52 16 0 29 51 16 64 -4 4 -13 -1 -19
-12z"/>
<path d="M4630 1460 c0 -5 4 -10 9 -10 6 0 13 5 16 10 3 6 -1 10 -9 10 -9 0
-16 -4 -16 -10z"/>
<path d="M5440 1448 c0 -16 4 -28 9 -28 18 0 20 17 6 36 -14 18 -14 18 -15 -8z"/>
<path d="M4258 1449 c6 -7 12 -23 12 -36 0 -31 16 -29 24 3 8 30 9 29 -24 39
-20 6 -23 5 -12 -6z"/>
<path d="M4450 1428 c-1 -34 -19 -68 -37 -68 -6 0 -23 -16 -38 -36 -30 -39
-28 -78 4 -87 31 -8 40 -135 15 -201 -5 -13 1 -16 25 -16 29 0 30 1 19 26 -9
20 -9 30 0 45 17 26 15 49 -7 100 -26 60 -34 129 -15 129 8 0 14 6 14 13 0 7
16 21 35 30 31 15 33 19 25 39 -6 13 -13 31 -16 41 -10 28 -24 19 -24 -15z"/>
<path d="M8150 1428 c0 -18 4 -39 9 -47 14 -22 23 21 12 53 -14 35 -21 33 -21
-6z"/>
<path d="M9072 1439 c2 -6 8 -10 13 -10 5 0 11 4 13 10 2 6 -4 11 -13 11 -9 0
-15 -5 -13 -11z"/>
<path d="M1320 1420 c-19 -14 -22 -22 -13 -31 13 -13 29 -6 43 21 14 27 -1 32
-30 10z"/>
<path d="M1996 1428 c-6 -23 -26 -134 -26 -146 0 -7 7 -12 15 -12 9 0 15 9 15
25 0 14 7 42 15 63 16 37 13 82 -6 82 -5 0 -11 -6 -13 -12z"/>
<path d="M5863 1427 c-13 -5 -25 -19 -29 -30 -6 -20 -7 -20 -21 4 -13 23 -14
22 -8 -18 5 -41 4 -43 -20 -43 -19 0 -25 -5 -25 -22 0 -36 57 -148 75 -148 20
0 31 28 16 43 -21 21 -11 61 27 108 8 10 12 36 10 66 -3 48 -4 50 -25 40z"/>
<path d="M1706 1390 c-24 -23 -47 -52 -50 -65 -3 -14 -17 -41 -31 -61 -14 -21
-23 -39 -20 -42 7 -8 55 39 53 52 -3 25 22 66 41 66 11 0 26 6 33 13 7 8 23
19 36 26 26 14 29 36 6 45 -23 9 -20 10 -68 -34z"/>
<path d="M2466 1414 c-10 -25 -1 -27 19 -4 15 17 16 20 3 20 -9 0 -19 -7 -22
-16z"/>
<path d="M10195 1420 c3 -5 8 -10 11 -10 2 0 4 5 4 10 0 6 -5 10 -11 10 -5 0
-7 -4 -4 -10z"/>
<path d="M3917 1414 c-14 -15 -6 -34 14 -34 14 0 19 5 17 17 -3 18 -20 27 -31
17z"/>
<path d="M6727 1413 c-10 -9 -9 -23 2 -23 5 0 11 7 15 15 5 15 -5 20 -17 8z"/>
<path d="M8680 1399 c-15 -28 -6 -49 18 -42 20 5 36 39 26 55 -9 15 -33 8 -44
-13z"/>
<path d="M5043 1395 c-25 -27 -10 -48 15 -23 13 13 16 38 5 38 -5 -1 -14 -7
-20 -15z"/>
<path d="M3672 1388 c-16 -16 -15 -35 2 -41 17 -7 26 1 26 24 0 23 -14 31 -28
17z"/>
<path d="M4153 1390 c-13 -5 -23 -11 -23 -14 0 -14 14 -36 22 -36 13 0 37 31
38 48 0 14 -6 14 -37 2z"/>
<path d="M4814 1385 c-7 -17 4 -37 17 -30 12 8 12 45 -1 45 -6 0 -13 -7 -16
-15z"/>
<path d="M5673 1383 c-4 -10 -15 -24 -25 -31 -13 -10 -18 -24 -16 -45 4 -42
20 -41 34 3 6 19 18 36 25 39 17 5 29 21 29 39 0 19 -40 14 -47 -5z"/>
<path d="M4713 1360 c6 -16 15 -30 19 -30 15 0 8 48 -8 54 -23 9 -23 9 -11
-24z"/>
<path d="M4910 1371 c0 -6 5 -13 10 -16 6 -3 10 1 10 9 0 9 -4 16 -10 16 -5 0
-10 -4 -10 -9z"/>
<path d="M1573 1358 c-31 -15 -38 -38 -10 -38 14 0 26 10 34 25 12 27 9 29
-24 13z"/>
<path d="M2936 1326 c-13 -22 -23 -42 -21 -44 5 -5 78 37 87 50 14 23 8 36
-17 36 -18 0 -31 -11 -49 -42z"/>
<path d="M3140 1346 c0 -14 5 -26 10 -26 6 0 10 9 10 19 0 11 -4 23 -10 26 -6
4 -10 -5 -10 -19z"/>
<path d="M4033 1363 c-7 -2 -13 -14 -13 -25 0 -14 5 -18 16 -14 9 3 18 6 20 6
2 0 4 9 4 20 0 20 -5 23 -27 13z"/>
<path d="M1280 1349 c0 -6 -9 -22 -20 -36 -12 -15 -18 -34 -15 -44 4 -10 1
-28 -5 -40 -9 -16 -9 -24 0 -33 13 -13 39 15 70 78 18 36 19 42 5 63 -16 24
-35 31 -35 12z"/>
<path d="M8170 1342 c0 -26 11 -34 27 -21 20 17 16 39 -7 39 -13 0 -20 -7 -20
-18z"/>
<path d="M8581 1344 c0 -11 3 -14 6 -6 3 7 2 16 -1 19 -3 4 -6 -2 -5 -13z"/>
<path d="M1852 1338 c-5 -7 -13 -23 -16 -35 -6 -19 -3 -23 12 -23 21 0 32 18
32 51 0 22 -13 25 -28 7z"/>
<path d="M3417 1344 c-4 -4 -7 -14 -7 -23 0 -11 3 -12 11 -4 6 6 10 16 7 23
-2 6 -7 8 -11 4z"/>
<path d="M5560 1330 c-8 -15 -17 -19 -34 -14 -14 3 -29 -1 -39 -10 -8 -9 -24
-16 -34 -16 -11 0 -29 -14 -42 -31 -12 -17 -29 -28 -36 -26 -7 3 -18 0 -24 -6
-8 -8 -16 -5 -32 9 -19 17 -21 17 -30 2 -12 -21 -73 -52 -91 -45 -16 5 -48
-10 -48 -24 0 -12 187 -3 242 12 22 5 42 18 46 27 4 9 14 17 22 17 9 0 16 12
18 30 6 51 22 60 43 25 22 -35 39 -38 63 -11 12 13 15 27 10 45 -8 35 -21 41
-34 16z"/>
<path d="M6880 1341 c0 -13 26 -32 33 -24 14 13 6 33 -13 33 -11 0 -20 -4 -20
-9z"/>
<path d="M1115 1330 c-3 -5 -1 -10 4 -10 6 0 11 5 11 10 0 6 -2 10 -4 10 -3 0
-8 -4 -11 -10z"/>
<path d="M2488 1326 c-17 -12 -17 -15 2 -54 24 -49 25 -60 6 -81 -7 -9 -16
-28 -20 -43 -10 -43 15 -35 51 16 l31 44 -17 63 c-19 68 -26 76 -53 55z"/>
<path d="M3521 1306 c-26 -41 -29 -75 -5 -56 12 11 44 72 44 86 0 15 -22 -2
-39 -30z"/>
<path d="M9316 1325 c4 -8 8 -15 10 -15 2 0 4 7 4 15 0 8 -4 15 -10 15 -5 0
-7 -7 -4 -15z"/>
<path d="M2277 1323 c-4 -3 -7 -14 -7 -24 0 -10 -18 -39 -40 -64 -64 -74 -74
-104 -26 -82 13 7 37 31 52 54 16 23 32 43 37 43 9 0 9 52 -1 68 -5 7 -11 9
-15 5z"/>
<path d="M3836 1294 c-16 -19 -25 -38 -21 -42 7 -8 65 52 65 68 0 18 -14 9
-44 -26z"/>
<path d="M4620 1319 c0 -5 5 -7 10 -4 6 3 10 8 10 11 0 2 -4 4 -10 4 -5 0 -10
-5 -10 -11z"/>
<path d="M8210 1316 c0 -9 7 -19 15 -22 8 -4 15 -12 15 -19 0 -16 33 -45 52
-45 9 0 18 -6 21 -12 2 -7 8 -10 12 -6 4 4 -7 19 -24 33 -17 15 -31 35 -31 45
0 10 -8 20 -17 24 -10 3 -24 9 -30 12 -8 3 -13 -1 -13 -10z"/>
<path d="M5200 1291 c-16 -23 -18 -31 -7 -31 15 0 44 46 35 56 -3 3 -16 -9
-28 -25z"/>
<path d="M3574 1273 c-11 -29 -13 -42 -5 -56 12 -18 6 -55 -15 -96 -12 -22
-11 -27 2 -34 25 -14 46 0 39 24 -4 12 -1 32 6 46 10 19 10 28 1 43 -8 14 -9
27 -2 45 25 65 1 90 -26 28z"/>
<path d="M4481 1296 c-11 -13 -11 -20 -3 -28 8 -8 13 -7 18 5 10 27 0 41 -15
23z"/>
<path d="M4116 1284 c-9 -23 -8 -24 23 -24 34 0 51 18 30 31 -22 14 -46 11
-53 -7z"/>
<path d="M4818 1294 c-9 -8 13 -54 24 -54 5 0 6 10 3 23 -9 27 -19 39 -27 31z"/>
<path d="M9420 1290 c0 -5 5 -10 10 -10 6 0 10 5 10 10 0 6 -4 10 -10 10 -5 0
-10 -4 -10 -10z"/>
<path d="M11302 1271 c2 -19 9 -36 16 -39 17 -5 15 29 -4 53 -15 19 -15 18
-12 -14z"/>
<path d="M3045 1281 c-6 -11 9 -23 19 -14 9 9 7 23 -3 23 -6 0 -12 -4 -16 -9z"/>
<path d="M3970 1281 c0 -11 26 -22 34 -14 12 12 5 23 -14 23 -11 0 -20 -4 -20
-9z"/>
<path d="M9340 1269 c0 -24 23 -21 28 4 2 10 -3 17 -12 17 -10 0 -16 -9 -16
-21z"/>
<path d="M10586 1281 c-4 -7 -5 -15 -2 -18 9 -9 19 4 14 18 -4 11 -6 11 -12 0z"/>
<path d="M2371 1262 c-6 -11 -11 -28 -11 -36 0 -8 -9 -20 -20 -26 -18 -9 -30
-60 -14 -60 17 0 44 23 44 39 0 10 7 32 16 50 19 38 4 69 -15 33z"/>
<path d="M1486 1254 c-3 -9 -6 -26 -6 -40 0 -23 1 -23 20 -7 23 20 27 63 6 63
-8 0 -17 -7 -20 -16z"/>
<path d="M1720 1260 c0 -5 7 -10 15 -10 8 0 15 5 15 10 0 6 -7 10 -15 10 -8 0
-15 -4 -15 -10z"/>
<path d="M9900 1246 c0 -13 7 -29 15 -36 13 -11 18 -10 30 6 20 27 19 33 -11
44 -34 13 -34 13 -34 -14z"/>
<path d="M10050 1254 c0 -8 5 -12 10 -9 6 3 10 10 10 16 0 5 -4 9 -10 9 -5 0
-10 -7 -10 -16z"/>
<path d="M2112 1235 c-7 -14 -12 -41 -12 -59 0 -19 -7 -39 -15 -46 -8 -7 -15
-20 -15 -29 0 -9 -9 -31 -20 -48 l-20 -33 29 0 c35 0 43 20 88 218 7 31 -21
29 -35 -3z"/>
<path d="M3685 1250 c-7 -12 2 -30 16 -30 12 0 12 27 0 35 -5 3 -12 1 -16 -5z"/>
<path d="M3031 1219 c-7 -16 -24 -35 -37 -42 -24 -13 -25 -13 -6 -30 19 -17
21 -16 53 18 18 19 43 36 54 36 17 1 17 2 3 6 -10 2 -18 8 -18 13 0 5 -8 14
-18 19 -14 8 -20 4 -31 -20z"/>
<path d="M5072 1239 c2 -6 8 -10 13 -10 5 0 11 4 13 10 2 6 -4 11 -13 11 -9 0
-15 -5 -13 -11z"/>
<path d="M9227 1243 c-4 -3 -7 -15 -7 -25 0 -26 24 -17 28 10 3 21 -8 29 -21
15z"/>
<path d="M1783 1223 c-4 -10 -12 -22 -20 -26 -14 -9 -18 -37 -5 -37 12 0 62
54 62 68 0 19 -30 14 -37 -5z"/>
<path d="M10300 1225 c0 -8 2 -15 4 -15 2 0 6 7 10 15 3 8 1 15 -4 15 -6 0
-10 -7 -10 -15z"/>
<path d="M11220 1230 c0 -5 5 -10 11 -10 5 0 7 5 4 10 -3 6 -8 10 -11 10 -2 0
-4 -4 -4 -10z"/>
<path d="M3266 1208 c-19 -27 -21 -51 -4 -46 15 5 42 68 29 68 -6 0 -17 -10
-25 -22z"/>
<path d="M3430 1213 c0 -10 4 -24 9 -31 7 -11 9 -11 14 2 7 19 -1 46 -14 46
-5 0 -9 -8 -9 -17z"/>
<path d="M3788 1190 c-21 -30 -28 -52 -28 -87 0 -27 -1 -58 -3 -70 -4 -39 18
-25 23 15 3 21 18 63 33 94 24 49 28 89 8 88 -3 -1 -18 -19 -33 -40z"/>
<path d="M4058 1216 c-22 -16 -24 -46 -3 -46 18 0 40 39 28 50 -4 5 -16 3 -25
-4z"/>
<path d="M4612 1218 c-25 -25 -1 -55 33 -42 18 7 19 3 3 -30 -6 -14 -22 -33
-35 -41 -12 -9 -23 -25 -23 -36 0 -12 -8 -23 -20 -26 -12 -3 -20 -14 -20 -25
0 -17 4 -19 28 -13 39 10 62 34 62 67 0 16 6 31 14 34 8 3 21 16 29 28 13 20
12 24 -23 58 -28 28 -40 34 -48 26z"/>
<path d="M4981 1217 c-14 -18 -4 -27 31 -27 18 0 28 -5 28 -15 0 -8 6 -15 14
-15 8 0 16 -7 20 -15 6 -16 46 -21 46 -6 0 25 -15 41 -37 41 -16 0 -27 7 -30
19 -3 11 -15 22 -26 25 -31 8 -33 8 -46 -7z"/>
<path d="M4770 1205 c0 -8 5 -15 10 -15 6 0 10 7 10 15 0 8 -4 15 -10 15 -5 0
-10 -7 -10 -15z"/>
<path d="M8443 1205 c-35 -15 -47 -55 -18 -55 9 0 19 -8 22 -17 9 -26 24 -33
44 -22 11 6 20 5 24 -1 7 -12 65 -14 65 -2 -1 18 -19 34 -33 29 -20 -8 -29 3
-16 19 9 10 7 15 -5 20 -9 3 -16 15 -16 25 0 23 -22 24 -67 4z"/>
<path d="M4210 1200 c0 -5 5 -10 10 -10 6 0 10 5 10 10 0 6 -4 10 -10 10 -5 0
-10 -4 -10 -10z"/>
<path d="M4850 1155 c-11 -53 -13 -55 -44 -55 -34 0 -76 -33 -58 -44 19 -11
102 6 102 21 0 8 7 21 15 29 9 10 13 25 9 39 -3 13 -1 33 6 44 8 17 8 21 -4
21 -10 0 -18 -19 -26 -55z"/>
<path d="M8961 1184 c0 -11 3 -14 6 -6 3 7 2 16 -1 19 -3 4 -6 -2 -5 -13z"/>
<path d="M9110 1190 c0 -5 5 -10 10 -10 6 0 10 5 10 10 0 6 -4 10 -10 10 -5 0
-10 -4 -10 -10z"/>
<path d="M1067 1183 c-4 -3 -7 -15 -7 -26 0 -16 3 -17 15 -7 8 7 15 19 15 26
0 15 -12 19 -23 7z"/>
<path d="M2655 1170 c-3 -11 -17 -23 -30 -26 -13 -3 -26 -13 -30 -22 -10 -27
10 -34 50 -18 21 9 46 16 56 16 24 0 24 19 0 48 -24 27 -38 28 -46 2z"/>
<path d="M2830 1171 c-22 -4 -36 -12 -38 -23 -4 -22 21 -24 38 -3 7 8 21 15
31 15 11 0 19 5 19 10 0 6 -3 9 -7 9 -5 -1 -24 -4 -43 -8z"/>
<path d="M3941 1143 c1 -21 7 -46 12 -57 8 -17 11 -17 32 10 22 28 22 29 4 42
-10 7 -19 20 -19 28 0 8 -7 14 -15 14 -12 0 -15 -10 -14 -37z"/>
<path d="M4199 1167 c-20 -15 -13 -37 12 -37 19 0 19 0 0 -19 -13 -13 -20 -33
-19 -60 0 -40 1 -41 34 -41 33 0 45 12 24 25 -6 4 -5 14 1 29 8 17 7 34 -4 67
-16 48 -24 54 -48 36z"/>
<path d="M4927 1163 c-8 -10 -15 -35 -15 -55 0 -32 3 -38 21 -38 22 0 104 36
112 50 8 12 -33 23 -61 16 -21 -6 -24 -3 -24 19 0 29 -11 32 -33 8z"/>
<path d="M8870 1159 c0 -5 5 -7 10 -4 6 3 10 8 10 11 0 2 -4 4 -10 4 -5 0 -10
-5 -10 -11z"/>
<path d="M1332 1138 c-21 -42 -19 -63 6 -66 20 -3 22 -9 22 -63 0 -45 3 -59
14 -59 22 0 24 10 17 67 -6 43 -4 58 11 80 23 35 23 43 -1 43 -11 0 -23 5 -26
10 -11 17 -31 11 -43 -12z"/>
<path d="M5570 1141 c0 -27 10 -51 22 -51 5 0 17 -7 26 -16 28 -29 25 3 -5 46
-31 44 -43 50 -43 21z"/>
<path d="M980 1134 c0 -8 5 -12 10 -9 6 3 10 10 10 16 0 5 -4 9 -10 9 -5 0
-10 -7 -10 -16z"/>
<path d="M1644 1126 c-16 -26 -16 -71 1 -71 6 0 11 17 13 38 2 20 7 37 13 37
5 0 9 5 9 10 0 18 -19 10 -36 -14z"/>
<path d="M9746 1134 c-4 -11 -1 -14 11 -12 9 2 18 9 21 16 6 18 -25 15 -32 -4z"/>
<path d="M3436 1125 c-15 -8 -34 -15 -41 -15 -8 0 -15 -17 -17 -42 -6 -55 0
-78 18 -71 10 3 13 18 12 46 -3 38 -1 41 30 50 21 7 32 16 32 28 0 23 2 22
-34 4z"/>
<path d="M8814 1108 c3 -13 6 -29 6 -35 0 -7 4 -13 8 -13 4 0 8 16 8 35 0 24
-5 35 -14 35 -10 0 -12 -7 -8 -22z"/>
<path d="M1950 1090 c0 -21 4 -30 13 -27 6 2 12 14 12 27 0 13 -6 25 -12 28
-9 2 -13 -7 -13 -28z"/>
<path d="M9355 1097 c-4 -10 -5 -21 -1 -24 10 -10 18 4 13 24 -4 17 -4 17 -12
0z"/>
<path d="M1835 1090 c-7 -12 2 -30 16 -30 5 0 9 9 9 20 0 21 -15 27 -25 10z"/>
<path d="M2275 1075 c-24 -36 -38 -75 -31 -82 8 -8 86 76 86 93 0 20 -41 12
-55 -11z"/>
<path d="M2498 1073 c-20 -23 -31 -70 -18 -78 5 -3 15 5 22 19 6 14 14 26 18
26 4 0 10 11 12 25 6 29 -12 33 -34 8z"/>
<path d="M3024 1073 c-3 -10 -11 -30 -19 -46 -8 -15 -12 -34 -8 -43 3 -8 -4
-25 -17 -39 -12 -13 -19 -28 -16 -34 4 -5 2 -12 -4 -16 -14 -8 -13 -52 1 -61
22 -13 50 38 44 79 -5 33 -1 42 24 68 17 16 40 29 54 29 41 0 42 28 2 44 -19
8 -35 20 -35 25 0 18 -20 12 -26 -6z"/>
<path d="M846 1065 c-9 -26 -7 -32 5 -12 6 10 9 21 6 23 -2 3 -7 -2 -11 -11z"/>
<path d="M1160 1060 c0 -11 5 -20 10 -20 6 0 10 9 10 20 0 11 -4 20 -10 20 -5
0 -10 -9 -10 -20z"/>
<path d="M2410 1070 c-8 -5 -11 -12 -7 -16 4 -4 13 -2 19 4 15 15 7 24 -12 12z"/>
<path d="M2772 1068 c-15 -15 -16 -45 -2 -53 14 -9 12 -35 -4 -67 -14 -26 -13
-28 5 -28 12 0 19 7 19 20 0 12 7 32 16 46 13 19 14 28 5 37 -6 6 -11 21 -11
34 0 25 -10 29 -28 11z"/>
<path d="M3487 1073 c-13 -12 -7 -72 9 -87 26 -26 32 -19 30 39 -1 43 -4 55
-17 55 -9 0 -19 -3 -22 -7z"/>
<path d="M3863 1063 c-31 -21 -29 -35 5 -31 19 2 28 9 30 26 4 26 -4 27 -35 5z"/>
<path d="M1255 1028 c-8 -42 -4 -71 10 -72 14 -1 19 69 6 91 -8 14 -10 11 -16
-19z"/>
<path d="M3670 1040 c-9 -18 -8 -20 15 -20 18 0 25 5 25 20 0 11 -7 20 -15 20
-8 0 -19 -9 -25 -20z"/>
<path d="M3948 1041 c-26 -25 -32 -65 -13 -85 22 -22 35 -20 75 9 19 14 38 25
42 25 12 0 48 38 48 51 0 8 -17 9 -56 4 -31 -4 -60 -2 -67 3 -8 6 -18 4 -29
-7z"/>
<path d="M4482 1044 c-12 -8 -20 -20 -17 -25 10 -15 42 -10 49 7 14 37 4 43
-32 18z"/>
<path d="M9220 1039 c0 -11 5 -17 10 -14 6 3 10 13 10 21 0 8 -4 14 -10 14 -5
0 -10 -9 -10 -21z"/>
<path d="M1078 1025 c-6 -14 -17 -25 -24 -25 -18 0 -37 -37 -24 -45 15 -9 90
54 90 76 0 27 -28 23 -42 -6z"/>
<path d="M3596 1041 c-4 -6 3 -15 14 -21 23 -12 27 2 6 19 -9 8 -16 8 -20 2z"/>
<path d="M4140 1038 c0 -18 27 -44 37 -34 4 4 -3 16 -15 29 -18 17 -22 18 -22
5z"/>
<path d="M1733 1014 c-20 -25 -21 -28 -6 -50 26 -41 41 -25 41 44 1 39 -8 40
-35 6z"/>
<path d="M8117 1033 c-13 -12 -7 -23 12 -23 26 0 35 16 15 24 -19 7 -19 7 -27
-1z"/>
<path d="M2335 1020 c-3 -5 -1 -10 4 -10 6 0 11 5 11 10 0 6 -2 10 -4 10 -3 0
-8 -4 -11 -10z"/>
<path d="M2602 1017 c-12 -14 -62 -164 -62 -185 0 -9 7 -9 30 3 27 14 30 21
29 53 -1 22 7 54 19 79 12 23 22 47 22 53 0 14 -25 13 -38 -3z"/>
<path d="M3535 1020 c-3 -5 -1 -10 4 -10 6 0 11 5 11 10 0 6 -2 10 -4 10 -3 0
-8 -4 -11 -10z"/>
<path d="M10420 1019 c0 -5 5 -7 10 -4 6 3 10 8 10 11 0 2 -4 4 -10 4 -5 0
-10 -5 -10 -11z"/>
<path d="M1455 1010 c-3 -5 -1 -10 4 -10 6 0 11 5 11 10 0 6 -2 10 -4 10 -3 0
-8 -4 -11 -10z"/>
<path d="M1622 990 c0 -19 2 -27 5 -17 2 9 2 25 0 35 -3 9 -5 1 -5 -18z"/>
<path d="M3265 983 c-12 -23 -37 -45 -63 -60 -44 -22 -82 -77 -82 -116 0 -23
18 -12 30 19 5 13 27 32 48 43 74 38 102 69 102 112 0 49 -9 49 -35 2z"/>
<path d="M9062 1008 c-18 -18 -14 -38 7 -38 20 0 35 25 25 41 -7 12 -18 11
-32 -3z"/>
<path d="M10073 993 c9 -9 19 -14 23 -11 10 10 -6 28 -24 28 -15 0 -15 -1 1
-17z"/>
<path d="M2384 989 c-3 -6 -1 -16 5 -22 9 -9 14 -8 21 3 9 15 4 30 -10 30 -5
0 -12 -5 -16 -11z"/>
<path d="M2117 983 c-13 -12 -7 -23 13 -23 11 0 20 7 20 15 0 15 -21 21 -33 8z"/>
<path d="M2320 964 c0 -17 22 -14 28 4 2 7 -3 12 -12 12 -9 0 -16 -7 -16 -16z"/>
<path d="M10280 970 c0 -5 5 -10 10 -10 6 0 10 5 10 10 0 6 -4 10 -10 10 -5 0
-10 -4 -10 -10z"/>
<path d="M667 952 c-10 -10 -17 -26 -17 -36 0 -9 -7 -31 -16 -47 -19 -38 -11
-48 24 -28 23 13 28 23 32 72 6 61 2 67 -23 39z"/>
<path d="M3797 963 c-4 -3 -7 -13 -7 -20 0 -10 9 -12 38 -8 60 10 67 14 53 28
-9 9 -14 9 -21 -3 -8 -12 -13 -13 -30 -2 -23 14 -24 14 -33 5z"/>
<path d="M1866 944 c-15 -14 -14 -18 6 -39 l22 -23 13 25 c10 19 10 29 2 39
-15 18 -24 18 -43 -2z"/>
<path d="M3360 944 c0 -8 5 -12 10 -9 6 3 10 10 10 16 0 5 -4 9 -10 9 -5 0
-10 -7 -10 -16z"/>
<path d="M3608 935 c-10 -13 -18 -33 -18 -45 0 -49 -43 -96 -81 -88 -7 2 -15
-6 -17 -17 -2 -11 -20 -39 -39 -62 -20 -24 -31 -43 -25 -43 21 0 100 53 155
104 33 30 72 60 88 66 29 13 44 42 37 77 -2 10 -9 18 -17 18 -16 0 -27 -18
-36 -58 -9 -46 -27 -20 -19 29 7 49 -2 55 -28 19z"/>
<path d="M10540 945 c0 -10 7 -15 18 -13 21 4 19 22 -2 26 -10 2 -16 -3 -16
-13z"/>
<path d="M1170 941 c0 -5 -12 -8 -26 -8 -14 0 -31 -6 -37 -12 -8 -8 -8 -11 2
-11 8 0 20 -8 27 -17 12 -17 15 -16 38 12 29 35 32 45 11 45 -8 0 -15 -4 -15
-9z"/>
<path d="M2050 931 c-18 -35 -11 -45 15 -21 14 13 25 27 25 32 0 16 -29 8 -40
-11z"/>
<path d="M1437 924 c-10 -11 -9 -52 3 -59 6 -3 13 1 16 10 8 19 -8 60 -19 49z"/>
<path d="M3517 919 c-20 -12 -23 -29 -3 -29 17 0 40 26 29 33 -5 3 -16 1 -26
-4z"/>
<path d="M910 896 c-7 -13 -23 -29 -36 -35 -25 -11 -32 -35 -14 -46 12 -7 80
62 80 81 0 24 -17 23 -30 0z"/>
<path d="M1597 913 c-9 -8 -9 -46 -1 -67 10 -27 24 -18 24 17 0 35 -12 61 -23
50z"/>
<path d="M1760 879 c0 -5 5 -7 10 -4 6 3 10 8 10 11 0 2 -4 4 -10 4 -5 0 -10
-5 -10 -11z"/>
<path d="M2791 865 c-19 -14 -40 -25 -45 -25 -13 0 -46 -56 -46 -78 0 -12 3
-13 11 -5 9 9 17 9 32 0 16 -10 21 -9 25 3 7 19 78 90 91 90 5 0 13 5 17 11 5
8 -1 10 -19 5 -19 -4 -26 -2 -29 9 -2 13 -9 11 -37 -10z"/>
<path d="M3082 881 c2 -7 7 -12 11 -12 12 1 9 15 -3 20 -7 2 -11 -2 -8 -8z"/>
<path d="M3430 880 c0 -5 5 -10 10 -10 6 0 10 5 10 10 0 6 -4 10 -10 10 -5 0
-10 -4 -10 -10z"/>
<path d="M1363 856 c-19 -9 -23 -19 -23 -59 0 -67 20 -57 35 16 6 31 11 56 11
56 -1 -1 -11 -6 -23 -13z"/>
<path d="M1881 842 c-1 -19 -10 -46 -22 -60 -17 -22 -19 -34 -13 -76 6 -50 28
-96 45 -96 5 0 6 21 2 46 -5 37 -3 48 10 56 19 10 23 68 6 85 -6 6 -15 26 -19
45 l-8 33 -1 -33z"/>
<path d="M1090 826 c0 -31 26 -54 32 -29 6 28 -2 53 -18 53 -8 0 -14 -10 -14
-24z"/>
<path d="M2010 841 c0 -5 3 -16 6 -25 5 -14 8 -14 21 -1 8 8 11 19 8 25 -8 13
-35 13 -35 1z"/>
<path d="M3327 832 c-20 -22 -21 -32 -4 -32 8 0 19 11 25 25 14 29 2 33 -21 7z"/>
<path d="M423 825 c-3 -9 -3 -18 0 -22 10 -10 37 6 37 22 0 20 -29 20 -37 0z"/>
<path d="M2197 826 c-4 -10 -5 -21 -2 -24 9 -9 17 6 13 25 -3 17 -4 17 -11 -1z"/>
<path d="M322 810 c-15 -24 -15 -30 -2 -30 6 0 10 7 10 15 0 8 5 15 10 15 6 0
10 5 10 10 0 16 -14 11 -28 -10z"/>
<path d="M2392 818 c-15 -15 -16 -85 0 -94 16 -10 39 26 31 50 -3 12 -6 29 -5
39 1 20 -9 22 -26 5z"/>
<path d="M3924 814 c3 -8 2 -12 -3 -9 -17 10 -23 -16 -11 -46 8 -19 19 -29 29
-27 21 4 26 44 10 74 -14 26 -35 33 -25 8z"/>
<path d="M725 790 c-3 -5 -1 -10 4 -10 6 0 11 5 11 10 0 6 -2 10 -4 10 -3 0
-8 -4 -11 -10z"/>
<path d="M3435 780 c-10 -11 -23 -20 -30 -20 -6 0 -21 -10 -32 -22 -11 -13
-33 -34 -49 -48 -69 -61 -133 -158 -119 -180 6 -9 -55 -50 -73 -50 -19 0 -99
-61 -113 -86 -7 -13 -21 -26 -31 -30 -11 -3 -17 -11 -15 -17 5 -16 47 -21 60
-8 17 17 40 14 33 -4 -4 -12 -2 -13 13 -6 27 15 121 121 132 148 5 13 15 23
24 23 8 0 15 4 15 9 0 5 25 34 55 63 30 29 54 59 52 68 -1 8 5 15 13 16 31 2
35 5 21 13 -11 7 -8 18 15 60 16 28 37 54 47 57 9 3 17 12 17 20 0 20 -14 18
-35 -6z"/>
<path d="M1676 781 c-16 -3 -32 -13 -36 -21 -4 -8 -12 -25 -18 -36 -6 -12 -8
-25 -5 -28 12 -12 43 -6 43 8 0 8 14 26 31 41 35 29 29 44 -15 36z"/>
<path d="M2574 766 c-8 -20 -1 -47 11 -49 6 -1 11 13 13 31 3 32 -14 45 -24
18z"/>
<path d="M3237 756 c-6 -16 2 -28 14 -20 12 7 11 34 0 34 -5 0 -11 -6 -14 -14z"/>
<path d="M456 730 c-31 -31 -28 -57 4 -40 25 13 45 50 33 60 -4 5 -21 -4 -37
-20z"/>
<path d="M1387 753 c-14 -13 -6 -49 13 -60 24 -16 34 -2 25 37 -6 28 -23 38
-38 23z"/>
<path d="M2852 748 c-15 -15 -16 -38 -2 -38 12 0 23 25 18 40 -2 7 -7 7 -16
-2z"/>
<path d="M3122 718 c-9 -33 0 -68 18 -68 4 0 14 16 20 35 9 28 9 39 0 50 -19
23 -29 18 -38 -17z"/>
<path d="M3008 729 c-23 -13 -23 -25 1 -32 21 -5 41 9 41 30 0 15 -18 16 -42
2z"/>
<path d="M561 716 c-8 -10 -9 -16 -1 -21 13 -8 30 3 30 21 0 18 -14 18 -29 0z"/>
<path d="M976 720 c-2 -8 -7 -31 -10 -50 -3 -19 -9 -52 -12 -72 -5 -28 -3 -38
6 -38 24 0 39 35 40 90 0 57 -14 99 -24 70z"/>
<path d="M1099 702 c-22 -23 -45 -92 -31 -92 2 0 16 12 31 28 15 15 34 32 43
37 9 6 19 20 23 33 5 18 2 22 -17 22 -13 0 -35 -12 -49 -28z"/>
<path d="M2278 723 c7 -3 16 -2 19 1 4 3 -2 6 -13 5 -11 0 -14 -3 -6 -6z"/>
<path d="M3630 716 c0 -8 -8 -17 -18 -21 -11 -3 -31 -31 -47 -63 -15 -31 -33
-64 -40 -72 -16 -20 -55 -133 -48 -143 3 -4 6 -34 8 -65 2 -31 10 -88 19 -127
9 -38 21 -99 27 -135 6 -36 13 -71 15 -77 2 -9 24 -13 64 -13 54 0 59 2 50 18
-5 9 -21 51 -36 92 -47 134 -35 355 30 537 8 23 12 51 9 62 -6 24 -33 29 -33
7z"/>
<path d="M1277 648 c-43 -67 -57 -114 -40 -131 3 -4 21 21 39 55 58 110 66
130 56 140 -5 5 -28 -21 -55 -64z"/>
<path d="M2930 692 c0 -26 11 -34 27 -21 20 17 16 39 -7 39 -13 0 -20 -7 -20
-18z"/>
<path d="M3958 693 c-14 -18 -15 -30 -17 -182 -1 -80 2 -108 14 -121 8 -9 15
-26 15 -38 0 -15 5 -20 15 -16 19 8 33 -25 15 -36 -9 -6 -19 -2 -27 8 -7 10
-13 12 -13 5 0 -6 7 -19 16 -27 15 -15 12 -46 -6 -71 -7 -10 -10 -20 -34 -110
-31 -114 -33 -105 23 -105 l49 0 16 47 c9 26 16 63 16 83 0 20 5 41 10 46 6 6
10 41 8 80 -3 62 -6 70 -28 81 l-25 13 23 6 c25 7 31 34 7 34 -18 0 -19 12 -4
27 8 8 8 20 0 46 -9 27 -9 41 1 62 10 23 10 29 0 33 -6 2 -12 19 -12 37 0 45
-9 65 -29 66 -10 0 -11 2 -3 6 6 2 12 11 12 18 0 20 -27 26 -42 8z"/>
<path d="M2667 674 c-21 -28 -45 -31 -54 -8 -5 14 -8 12 -19 -7 -7 -13 -13
-32 -14 -41 0 -20 15 -24 25 -8 3 6 17 10 30 10 17 0 29 9 40 31 21 39 15 54
-8 23z"/>
<path d="M10485 690 c3 -5 11 -10 16 -10 6 0 7 5 4 10 -3 6 -11 10 -16 10 -6
0 -7 -4 -4 -10z"/>
<path d="M262 667 c-12 -13 -19 -27 -15 -30 12 -13 22 -7 37 23 17 36 8 39
-22 7z"/>
<path d="M729 673 c-13 -16 -12 -17 4 -4 9 7 17 15 17 17 0 8 -8 3 -21 -13z"/>
<path d="M1480 680 c0 -5 7 -10 15 -10 8 0 15 5 15 10 0 6 -7 10 -15 10 -8 0
-15 -4 -15 -10z"/>
<path d="M2798 683 c7 -3 16 -2 19 1 4 3 -2 6 -13 5 -11 0 -14 -3 -6 -6z"/>
<path d="M2067 663 c-13 -12 -7 -43 8 -43 8 0 15 4 15 9 0 5 3 16 6 25 6 16
-16 23 -29 9z"/>
<path d="M2276 661 c-5 -7 -5 -27 -2 -46 4 -19 2 -36 -4 -40 -13 -8 -13 -25 0
-25 15 0 31 75 22 101 -6 16 -11 19 -16 10z"/>
<path d="M2480 658 c0 -10 -4 -18 -10 -18 -5 0 -10 -18 -10 -40 0 -46 19 -54
37 -14 9 20 9 32 -2 57 -8 19 -14 25 -15 15z"/>
<path d="M1756 644 c-8 -22 1 -31 16 -16 9 9 9 15 1 23 -7 7 -12 5 -17 -7z"/>
<path d="M693 621 c-10 -29 -10 -29 14 -18 13 6 22 17 21 25 -5 27 -23 23 -35
-7z"/>
<path d="M2847 610 c-30 -42 -28 -65 5 -55 14 5 21 1 25 -14 3 -12 10 -21 15
-21 5 0 8 6 5 13 -2 6 0 23 5 36 11 29 1 81 -15 81 -7 0 -25 -18 -40 -40z"/>
<path d="M432 618 c-7 -7 -12 -23 -12 -37 0 -22 2 -23 14 -11 31 33 29 79 -2
48z"/>
<path d="M597 619 c-9 -6 -15 -14 -12 -20 9 -14 19 -11 33 11 13 22 7 25 -21
9z"/>
<path d="M1374 608 c-22 -25 -44 -71 -44 -92 0 -13 41 -36 64 -36 12 0 36 40
36 62 0 6 -10 8 -25 4 -20 -5 -25 -3 -25 12 0 10 5 23 11 29 6 6 9 18 7 28 -3
14 -6 13 -24 -7z"/>
<path d="M3032 617 c-11 -12 -15 -104 -6 -119 3 -4 11 -5 19 -1 11 4 15 22 15
69 0 63 -7 76 -28 51z"/>
<path d="M3120 606 c0 -17 5 -26 16 -26 10 0 14 7 12 22 -5 32 -28 35 -28 4z"/>
<path d="M90 585 c-17 -21 -8 -28 15 -11 11 8 14 15 8 19 -6 4 -16 0 -23 -8z"/>
<path d="M1846 569 c-9 -45 -8 -49 9 -49 8 0 15 8 15 18 0 9 3 27 6 40 5 15 2
22 -9 22 -8 0 -17 -13 -21 -31z"/>
<path d="M211 535 c-25 -37 -24 -50 1 -40 13 5 48 55 48 69 0 18 -28 1 -49
-29z"/>
<path d="M826 551 c-7 -11 0 -121 9 -144 16 -39 30 -8 32 71 2 75 1 82 -17 82
-10 0 -21 -4 -24 -9z"/>
<path d="M1620 530 c0 -11 6 -20 14 -20 21 0 31 21 15 31 -22 14 -29 11 -29
-11z"/>
<path d="M2014 539 c-3 -6 -1 -16 5 -22 8 -8 11 -5 11 11 0 24 -5 28 -16 11z"/>
<path d="M463 503 c-11 -21 -24 -53 -28 -71 -6 -29 -4 -33 11 -30 23 4 65 88
57 116 -8 31 -16 28 -40 -15z"/>
<path d="M2300 514 c0 -14 3 -14 15 -4 8 7 15 14 15 16 0 2 -7 4 -15 4 -8 0
-15 -7 -15 -16z"/>
<path d="M2623 507 c-10 -12 -28 -40 -39 -62 -20 -42 -29 -56 -55 -84 -13 -14
-14 -23 -5 -39 11 -20 11 -20 39 3 15 14 27 34 27 48 0 13 9 36 20 50 11 14
20 30 20 36 0 7 7 22 16 35 20 32 2 42 -23 13z"/>
<path d="M2717 485 c-32 -38 -36 -48 -27 -65 6 -11 12 -20 14 -20 12 0 66 88
66 107 0 33 -10 29 -53 -22z"/>
<path d="M2406 485 c-16 -13 -41 -25 -55 -28 -22 -5 -29 -16 -48 -80 -28 -91
-28 -90 0 -103 20 -9 25 -7 34 13 9 18 8 23 -3 23 -33 0 -2 69 50 110 24 19
49 43 56 54 19 29 -2 37 -34 11z"/>
<path d="M2017 494 c-3 -3 -4 -11 -1 -18 3 -7 -4 -20 -15 -30 -30 -27 -14 -40
19 -16 20 14 27 26 23 40 -6 22 -17 33 -26 24z"/>
<path d="M1766 467 c-24 -21 -36 -67 -17 -67 18 0 61 42 61 60 0 29 -15 32
-44 7z"/>
<path d="M1180 454 c-19 -49 -10 -67 28 -58 29 8 35 30 16 60 -21 31 -32 30
-44 -2z"/>
<path d="M1615 437 c-15 -79 -15 -117 -1 -117 15 0 26 21 26 51 0 11 7 22 15
25 21 9 19 27 -9 57 l-24 26 -7 -42z"/>
<path d="M970 450 c0 -5 5 -10 10 -10 6 0 10 5 10 10 0 6 -4 10 -10 10 -5 0
-10 -4 -10 -10z"/>
<path d="M1323 395 c5 -49 4 -51 -47 -107 -38 -42 -59 -58 -78 -58 -19 0 -29
-8 -38 -29 -6 -16 -18 -32 -26 -35 -15 -6 -20 -46 -6 -46 5 0 17 12 29 28 11
15 38 33 59 41 43 15 73 42 91 84 14 30 38 36 47 12 5 -14 8 -14 30 0 14 9 40
16 58 15 18 -1 39 -2 46 -1 21 2 13 37 -15 66 -25 24 -29 25 -38 10 -29 -50
-42 -60 -59 -46 -9 7 -16 22 -16 32 0 10 -9 33 -21 51 l-21 33 5 -50z"/>
<path d="M2860 415 c0 -15 4 -24 10 -20 6 3 10 12 10 20 0 8 -4 17 -10 20 -6
4 -10 -5 -10 -20z"/>
<path d="M2161 411 c-2 -21 -31 -50 -44 -45 -7 2 -17 -8 -24 -22 -16 -34 6
-43 41 -17 28 19 41 50 33 80 -3 10 -5 12 -6 4z"/>
<path d="M597 380 c-3 -11 -2 -20 3 -20 12 0 31 26 23 33 -11 12 -21 7 -26
-13z"/>
<path d="M904 385 c-9 -22 1 -29 15 -11 8 10 9 16 1 21 -5 3 -13 -1 -16 -10z"/>
<path d="M1015 359 c-15 -22 -25 -47 -23 -55 5 -23 68 43 68 72 0 35 -16 30
-45 -17z"/>
<path d="M2736 392 c-8 -13 5 -53 15 -46 12 7 12 41 0 49 -5 3 -12 2 -15 -3z"/>
<path d="M10820 376 c0 -9 5 -16 10 -16 6 0 10 4 10 9 0 6 -4 13 -10 16 -5 3
-10 -1 -10 -9z"/>
<path d="M2894 331 c-7 -33 -38 -71 -58 -71 -28 0 -37 -26 -21 -56 8 -16 15
-22 16 -14 0 8 25 35 55 60 46 38 54 50 52 75 -4 42 -36 47 -44 6z"/>
<path d="M1960 325 c0 -8 7 -15 15 -15 8 0 15 7 15 15 0 8 -7 15 -15 15 -8 0
-15 -7 -15 -15z"/>
<path d="M670 315 c-7 -9 -10 -18 -7 -21 10 -11 37 5 37 21 0 19 -14 19 -30 0z"/>
<path d="M1727 323 c-4 -3 -7 -20 -7 -36 0 -25 2 -28 15 -17 8 7 15 23 15 36
0 23 -10 31 -23 17z"/>
<path d="M1147 303 c-4 -3 -7 -11 -7 -17 0 -6 5 -5 12 2 6 6 9 14 7 17 -3 3
-9 2 -12 -2z"/>
<path d="M247 274 c-10 -13 -14 -24 -9 -24 13 0 35 27 30 39 -1 5 -11 -2 -21
-15z"/>
<path d="M1986 264 c-4 -9 -4 -19 -1 -22 7 -8 35 19 29 29 -8 14 -21 11 -28
-7z"/>
<path d="M2987 261 c-8 -9 -20 -32 -26 -51 -12 -37 -54 -75 -71 -65 -6 3 -10
-1 -10 -9 0 -9 -4 -16 -10 -16 -12 0 -36 -46 -45 -88 -6 -29 -5 -32 19 -32 16
0 32 10 43 27 10 14 32 40 49 57 40 39 58 68 83 132 19 51 19 52 1 57 -10 3
-25 -3 -33 -12z"/>
<path d="M646 254 c-9 -8 -16 -24 -16 -34 0 -10 -7 -20 -15 -24 -8 -3 -15 -12
-15 -19 0 -8 -9 -22 -20 -32 -11 -10 -20 -28 -20 -41 l0 -22 38 20 c32 18 38
26 38 55 0 21 8 40 22 53 23 22 28 45 13 55 -5 3 -17 -2 -25 -11z"/>
<path d="M2226 245 c-21 -32 -20 -45 2 -45 23 0 52 30 52 53 0 26 -35 20 -54
-8z"/>
<path d="M2621 241 c-10 -17 -9 -21 3 -21 20 0 31 19 18 32 -7 7 -14 3 -21
-11z"/>
<path d="M1690 232 c0 -10 -4 -22 -9 -27 -4 -6 -11 -23 -14 -40 -4 -16 -4 -24
-1 -17 8 17 63 15 70 -3 5 -12 11 -10 30 12 13 16 24 35 24 43 0 9 -5 7 -16
-8 -17 -24 -44 -30 -44 -9 0 18 -24 67 -32 67 -5 0 -8 -8 -8 -18z"/>
<path d="M7527 235 c-59 -7 -111 -15 -114 -19 -4 -4 1 -14 10 -23 24 -25 142
-24 179 1 22 14 34 16 56 8 21 -7 33 -6 48 5 19 14 19 14 0 29 -22 16 -31 16
-179 -1z"/>
<path d="M440 210 c-12 -16 -27 -30 -35 -30 -14 0 -95 -77 -95 -91 0 -16 16
-10 47 18 49 44 85 72 126 95 45 26 47 38 8 38 -21 0 -36 -8 -51 -30z"/>
<path d="M3805 229 c-4 -6 -4 -13 -1 -16 3 -4 -1 -17 -10 -30 -13 -20 -14 -33
-5 -74 6 -28 11 -63 11 -79 0 -22 5 -30 18 -30 15 0 17 11 16 103 -1 56 -2
110 -3 120 -1 19 -16 23 -26 6z"/>
<path d="M1432 218 c-7 -7 -12 -18 -12 -25 0 -7 -4 -13 -9 -13 -5 0 -13 -10
-17 -22 -3 -13 -13 -30 -21 -39 -12 -15 -11 -17 19 -21 46 -7 69 18 71 77 2
49 -9 65 -31 43z"/>
<path d="M977 213 c-23 -22 8 -100 37 -90 14 5 30 62 23 81 -6 16 -48 22 -60
9z"/>
<path d="M2133 203 c-17 -6 -18 -96 -1 -91 15 5 32 79 21 89 -5 3 -14 4 -20 2z"/>
<path d="M2463 174 c-17 -26 -16 -27 12 -52 l30 -25 8 37 c6 25 5 41 -3 51
-18 21 -27 19 -47 -11z"/>
<path d="M801 133 c-17 -21 -31 -41 -31 -45 0 -4 11 -15 25 -24 24 -16 27 -16
40 2 16 21 20 104 6 104 -5 0 -23 -17 -40 -37z"/>
<path d="M2325 160 c-3 -5 -1 -10 4 -10 6 0 11 5 11 10 0 6 -2 10 -4 10 -3 0
-8 -4 -11 -10z"/>
<path d="M68 153 c-19 -5 -24 -28 -9 -38 5 -3 17 2 25 11 9 8 14 20 11 25 -4
5 -7 8 -8 8 -1 -1 -10 -3 -19 -6z"/>
<path d="M10600 146 c0 -8 5 -18 10 -21 6 -3 10 1 10 9 0 8 -4 18 -10 21 -5 3
-10 -1 -10 -9z"/>
<path d="M1549 138 c-1 -7 -3 -20 -4 -28 0 -8 -5 -28 -9 -43 -5 -18 -5 -32 2
-39 7 -7 14 2 22 31 6 24 17 41 25 41 20 0 19 20 -2 36 -23 17 -33 17 -34 2z"/>
<path d="M2652 128 c-20 -20 -13 -29 20 -26 40 4 54 38 16 38 -13 0 -29 -5
-36 -12z"/>
<path d="M2770 130 c0 -5 5 -10 10 -10 6 0 10 5 10 10 0 6 -4 10 -10 10 -5 0
-10 -4 -10 -10z"/>
<path d="M437 85 c-16 -14 -26 -29 -22 -34 3 -5 1 -12 -5 -16 -18 -11 -11 -35
10 -35 13 0 24 10 30 28 6 15 15 35 20 44 24 42 8 49 -33 13z"/>
<path d="M1251 74 c-27 -45 -27 -74 -1 -74 11 0 20 6 20 13 0 7 6 19 12 25 17
17 19 72 3 72 -7 0 -22 -16 -34 -36z"/>
<path d="M1880 95 c0 -8 5 -15 10 -15 6 0 10 7 10 15 0 8 -4 15 -10 15 -5 0
-10 -7 -10 -15z"/>
<path d="M222 55 c-12 -25 -22 -48 -22 -50 0 -3 15 -5 34 -5 27 0 35 5 40 24
6 26 -8 76 -22 76 -4 0 -18 -20 -30 -45z"/>
<path d="M1777 93 c-10 -17 -11 -77 -2 -80 14 -4 49 62 41 76 -8 13 -33 15
-39 4z"/>
<path d="M10300 90 c0 -5 5 -10 10 -10 6 0 10 5 10 10 0 6 -4 10 -10 10 -5 0
-10 -4 -10 -10z"/>
<path d="M10607 94 c-3 -3 -3 -13 0 -21 3 -8 6 -24 7 -36 1 -28 22 -33 29 -6
10 37 -16 83 -36 63z"/>
<path d="M2335 69 c-8 -23 -1 -34 14 -24 13 8 15 45 2 45 -5 0 -13 -9 -16 -21z"/>
<path d="M2440 47 c0 -18 5 -27 15 -27 13 0 14 4 4 23 -17 33 -19 33 -19 4z"/>
<path d="M1915 45 c-3 -8 -7 -22 -10 -30 -2 -9 2 -15 10 -15 10 0 15 10 15 30
0 32 -8 40 -15 15z"/>
<path d="M1091 36 c-8 -9 -11 -19 -7 -23 9 -9 29 13 24 27 -2 8 -8 7 -17 -4z"/>
<path d="M1666 25 c-9 -24 -8 -25 15 -25 14 0 19 5 17 17 -4 23 -24 27 -32 8z"/>
<path d="M775 10 c-4 -6 3 -10 14 -10 25 0 27 6 6 13 -8 4 -17 2 -20 -3z"/>
<path d="M878 3 c7 -3 16 -2 19 1 4 3 -2 6 -13 5 -11 0 -14 -3 -6 -6z"/>
</g>
</svg>
